<svg id="Ebene_1" data-name="Ebene 1" xmlns="http://www.w3.org/2000/svg" viewBox="0 0 1145.2 346.86"><defs><style>.cls-1{fill:#003767;}</style></defs><path class="cls-1" d="M80.09,330.21l1.71,8.91H82L84,330.21l11.53-39.37h4.59l11.57,39.37,1.85,9h.23l1.82-9,9.75-39.37h4.93l-14.15,55.23h-4.32L99.28,303.7l-1.36-6h-.23l-1.29,6L83.77,346.07H79.44L65.3,290.84h4.93Z"/><path class="cls-1" d="M167.83,319.33H143.07v22.9H171.7v3.84H138.51V290.84h33v3.87H143.07v20.75h24.76Z"/><path class="cls-1" d="M206.33,342.23h28.52v3.84H201.78V290.84h4.55Z"/><path class="cls-1" d="M281.48,323q0,10.69-5.86,17.29t-15.72,6.6q-9.7,0-15.49-6.6T238.62,323v-9q0-10.67,5.77-17.3T259.86,290q9.87,0,15.74,6.64t5.88,17.3ZM277,313.9q0-9-4.53-14.41T259.86,294q-7.89,0-12.29,5.46t-4.4,14.41V323q0,9,4.42,14.48t12.31,5.47q8.09,0,12.57-5.45T277,323Z"/><path class="cls-1" d="M306.57,336.39l1.1,3.87h.23l1.1-3.87,16.61-45.55h4.89L310,346.07h-4.33l-20.56-55.23H290Z"/><path class="cls-1" d="M367.74,319.33H343v22.9h28.63v3.84H338.42V290.84h33v3.87H343v20.75h24.76Z"/><path class="cls-1" d="M428.24,339.47h.23L449,290.84h5.53v55.23H450V299.68l-.23,0L430,346.07h-3.26L406.47,298.5l-.23,0v47.53h-4.55V290.84h6.07Z"/><path class="cls-1" d="M497.12,330.67H472.89l-5.58,15.4h-4.7l20.29-55.23h4.29l20.14,55.23h-4.71Zm-22.79-4.06h21.31l-10.46-29.28H485Z"/><path class="cls-1" d="M525.92,319.86h-6v26.21h-4.55V290.84H520V316h5.92l21.69-25.19h5.16l.08.19L529.9,317.58l25.18,28.3-.07.19h-5.46Z"/><path class="cls-1" d="M568.07,346.07h-4.56V290.84h4.56Z"/><path class="cls-1" d="M621.58,346.07H617l-31.37-47.26-.23,0v47.23h-4.55V290.84h4.55L616.8,338l.23,0V290.84h4.55Z"/><path class="cls-1" d="M673.09,338.63q-1.83,3-6.73,5.61A26.14,26.14,0,0,1,654,346.86a20.26,20.26,0,0,1-15.59-6.56q-6.06-6.56-6.07-17V313.18q0-10.24,5.88-16.69A19.64,19.64,0,0,1,653.4,290q9,0,14.28,4.74a15.06,15.06,0,0,1,5.14,12.07l-.11.22h-4.17a12.42,12.42,0,0,0-3.95-9.44q-3.95-3.72-11.19-3.72a14.92,14.92,0,0,0-12,5.39q-4.56,5.38-4.55,13.81v10.2q0,8.64,4.74,14.18A15.47,15.47,0,0,0,654,343a22.24,22.24,0,0,0,9.48-1.74,11.75,11.75,0,0,0,5.12-4.06V323.08H653.71v-3.87h19.38Z"/><path class="cls-1" d="M724.4,321.52l17.11-30.68h5.27l-20.14,35.05v20.18h-4.51V325.7l-20-34.86h5.27Z"/><path class="cls-1" d="M792.42,323q0,10.69-5.86,17.29t-15.72,6.6q-9.71,0-15.49-6.6T749.56,323v-9q0-10.67,5.77-17.3T770.8,290q9.87,0,15.74,6.64t5.88,17.3Zm-4.51-9.07q0-9-4.53-14.41T770.8,294q-7.89,0-12.29,5.46t-4.4,14.41V323q0,9,4.42,14.48t12.31,5.47q8.08,0,12.57-5.45t4.5-14.5Z"/><path class="cls-1" d="M841.75,290.84v36.68q0,9.11-5.57,14.22t-14.34,5.12q-8.64,0-14.13-5.14t-5.48-14.2V290.84h4.55v36.68q0,7.13,4.23,11.32A14.75,14.75,0,0,0,821.84,343a15.32,15.32,0,0,0,11.08-4.17q4.32-4.17,4.32-11.34V290.84Z"/><path class="cls-1" d="M858.07,321.11v25h-4.55V290.88h18.39q8.88,0,13.62,3.89t4.74,11.36a13.08,13.08,0,0,1-2.52,7.87,14.31,14.31,0,0,1-7.15,5.06q5.11,1.29,7.38,4.61a14.51,14.51,0,0,1,2.25,8.32v5.2a16.13,16.13,0,0,0,.61,4.63,7.16,7.16,0,0,0,2,3.34v.91h-4.63a7.63,7.63,0,0,1-2-3.84,22.63,22.63,0,0,1-.57-5.12v-5a10.21,10.21,0,0,0-3.28-8q-3.28-2.94-9.16-2.94Zm0-3.87h13.31q7.47,0,10.92-3a10.26,10.26,0,0,0,3.46-8.13q0-5.46-3.44-8.4t-10.41-2.94H858.07Z"/><path class="cls-1" d="M951.3,339.47h.22l20.56-48.63h5.54v55.23h-4.55V299.68l-.23,0L953,346.07h-3.26L929.52,298.5l-.22,0v47.53h-4.55V290.84h6.06Z"/><path class="cls-1" d="M1029,290.84v36.68q0,9.11-5.57,14.22t-14.34,5.12q-8.64,0-14.13-5.14t-5.48-14.2V290.84H994v36.68q0,7.13,4.23,11.32a14.75,14.75,0,0,0,10.83,4.19,15.32,15.32,0,0,0,11.08-4.17q4.32-4.17,4.32-11.34V290.84Z"/><path class="cls-1" d="M1079.9,338.63q-1.82,3-6.73,5.61a26.11,26.11,0,0,1-12.39,2.62,20.24,20.24,0,0,1-15.58-6.56q-6.08-6.56-6.07-17V313.18q0-10.24,5.88-16.69a19.62,19.62,0,0,1,15.21-6.45q9,0,14.28,4.74a15.09,15.09,0,0,1,5.14,12.07l-.12.22h-4.17a12.42,12.42,0,0,0-3.95-9.44q-3.95-3.72-11.18-3.72a14.93,14.93,0,0,0-12,5.39q-4.55,5.38-4.55,13.81v10.2q0,8.64,4.74,14.18a15.47,15.47,0,0,0,12.36,5.54,22.32,22.32,0,0,0,9.49-1.74,11.81,11.81,0,0,0,5.12-4.06V323.08h-14.87v-3.87h19.38Z"/><path class="cls-1" d="M1145.05,89.78a1.8,1.8,0,0,0-2.63-.47,1,1,0,0,0-.39.67c-.4,3.54-4.11,10.53-10.41,19.59-1.2,1.49-2.59,3.22-3.84,5l-14.53,18.63c-6.21,8-12.73,16.08-19,23.87q-5.16,6.33-10.25,12.7a1.07,1.07,0,0,0-.19.18l-.61.73a.47.47,0,0,0-.06.09l-4.73,5.73a15.79,15.79,0,0,0-1.44,2.6.69.69,0,0,0-.09.23l-.13.42c-.77,2.77-7.77,27.15-15.67,37.7-7.49,3.28-15.88,5.23-22.35,6.55a234.55,234.55,0,0,1-38,4.12,235.17,235.17,0,0,1-38-4.11c-11.72-2.41-15.07-3.89-23.88-10.54-4.14-3.3-11-16.22-12.93-21.58l-4-61c-.15-4-.48-9.59-1.11-14.1-.37-2.74.62-7.63,1.6-12.36.89-4.36,1.82-8.88,1.71-12-.13-4.34-1.58-11.46-3-18.35-1-5-2-9.61-2.31-12.77l-.17-1.48,0-19.9c0-1.18,0-2.37,0-3.56-.08-4.94-.15-9.62,3-13.15A24.73,24.73,0,0,1,927,18.29c8.18-5,19.57-7.77,28.71-10L957.13,8a222.63,222.63,0,0,1,87.09,0c11.8,2.85,24,6.29,32.14,14.33,4.15,3.74,4.05,9,3.48,15.4-.27,3.26-.64,6.25-1.14,9.09l0,.28c-.26,1.4-.52,2.84-.92,4.27l-.6,2.33c-.06.27-.13.56-.25.95a2.35,2.35,0,0,0-.17,1.12,6.1,6.1,0,0,0,1.93,4.16,7,7,0,0,0,5,2.59h1.08a.76.76,0,0,0,.3-.05,6.17,6.17,0,0,0,.77-.14.93.93,0,0,0,.47-.27l4.73-4.84c5.72-7.58,16.77-11,27.55-8.5a1.08,1.08,0,0,0,.64-.07,1.8,1.8,0,0,0,.92-2.3l-.09-.23a1,1,0,0,0-.52-.53c-7.89-3.58-20-6.77-33.42-2.12-.12-.87-.23-1.73-.32-2.54l0-10.28a16,16,0,0,0-3.6-9.29c-4.21-5.34-10.29-8.4-15.7-10.7l-1.11-.43c-1.59-.64-3.25-1.25-5.09-1.83-8.45-2.81-18-4.78-30-6.21q-4.75-.51-9.52-.87a263.92,263.92,0,0,0-40.16,0q-4.77.36-9.54.87a174.77,174.77,0,0,0-22,3.89c-12,2.56-24.11,5.9-31.76,13a16.19,16.19,0,0,0-2.23,2.68c-.27.38-.54.75-.83,1.12l-.83-1.12A15.27,15.27,0,0,0,911.23,19c-4.09-3.78-9.84-6.83-17.54-9.31-9.33-3.52-20.05-5.9-33.76-7.54A280.53,280.53,0,0,0,830.09.52h-2a280.57,280.57,0,0,0-29.85,1.64c-13.69,1.64-24.42,4-33.7,7.53-7.75,2.49-13.5,5.54-17.59,9.31a15.71,15.71,0,0,0-2.23,2.68c-.32.43-.63.87-1,1.28a1.07,1.07,0,0,0-.16.27,15.75,15.75,0,0,1-.64,1.46l-.07.14a.61.61,0,0,1,0-.12c-.23-.48-.47-1-.66-1.47a.85.85,0,0,0-.15-.28c-.33-.41-.65-.85-1-1.28A15.72,15.72,0,0,0,738.88,19C730,10.84,715.35,7.76,703.55,5.29l-3.75-.8C676.7.16,651.86-.64,625.92,2.16c-15,1.78-26.16,4.4-36.17,8.48-5.4,2.29-11.49,5.36-15.65,10.65a13.46,13.46,0,0,0-2.16,3.38,13,13,0,0,0-2.13-3.34c-4.2-5.34-10.29-8.4-15.69-10.7C544.12,6.57,533,3.94,518,2.16A285.59,285.59,0,0,0,486.1.53a270.54,270.54,0,0,0-31.86,1.63c-15,1.79-26.18,4.41-36.18,8.48-5.39,2.29-11.47,5.35-15.66,10.65a14.1,14.1,0,0,0-2.82,5.13,15.87,15.87,0,0,0-.76-1.73c-.22-.48-.46-1-.64-1.45A1,1,0,0,0,398,23c-.33-.41-.65-.85-1-1.28A15.27,15.27,0,0,0,394.83,19C386,10.84,371.3,7.76,359.5,5.29l-3.75-.8C332.67.16,307.82-.64,281.88,2.16c-15,1.79-26.17,4.41-36.17,8.48-5.39,2.29-11.48,5.35-15.66,10.65a12.55,12.55,0,0,0-1.7,2.47A13.35,13.35,0,0,0,226.47,21c-4.28-5.42-10.43-8.52-15.9-10.84C200.49,6,189.29,3.42,174.26,1.64c-25.73-2.79-50.92-2-74,2.32l-.14,0C88.47,6.52,75.33,9.38,65.31,18.61A16.82,16.82,0,0,0,63,21.43c-.3.39-.6.81-.94,1.23a1.53,1.53,0,0,0-.21.4c-.17.47-.4.93-.64,1.44A10.13,10.13,0,0,0,60,28.05a36,36,0,0,0-.54,6.12c0,1.16-.08,2.27-.2,3.47-.12,1.45-.26,2.82-.42,4.16-16.68-5.07-32,2.32-39.73,7.29a1.32,1.32,0,0,0-.33,1.4,1,1,0,0,0,.58.6,1.06,1.06,0,0,0,.82,0c11.69-6,27-3.22,34.16,6.24L59,62a.93.93,0,0,0,.47.27,7,7,0,0,0,4.08-.22A9,9,0,0,0,65,61.64a6.94,6.94,0,0,0,4.1-5.88,2.6,2.6,0,0,0-.17-1.26c-.11-.3-.18-.61-.28-1l-.59-2.33c-.39-1.39-.65-2.83-.92-4.22l-1,.19.93-.45c-.48-2.76-.86-5.73-1.13-9.06-.56-6.51-.66-11.38,3.36-15,8-7.91,20.12-11.33,31.81-14.15a237.68,237.68,0,0,1,72.64-2.71C188.25,7.5,199.43,10.12,209,14c4.63,1.95,10.39,4.79,14.18,9.49a1.31,1.31,0,0,0,.12.15c3,3.34,2.9,7.9,2.83,12.72,0,1.17,0,2.4,0,3.57l.27,156.57,0,.89a24.68,24.68,0,0,1-.67,7.58c-1.63,4.37-5.55,8.1-12,11.42-11.33,5.61-23.9,7.87-34.7,9.33a227.88,227.88,0,0,1-72.34-2.28c-6.73-1.39-15.41-3.41-23-6.88-6.41-9.24-12.2-27.42-14.45-35l0-.69c.16-3.18-5.67-9.36-7.47-11.16l-.33-.34a.93.93,0,0,0-.67-.29C57.52,165,54.25,161,51,156.93c-6.28-7.74-12.77-15.76-19-23.78l-14.52-18.6c-1.35-1.87-2.82-3.68-4.24-5.46-3.4-4.23-6.92-8.6-8.91-13.68a31.76,31.76,0,0,1-1.9-6.1,1,1,0,0,0-.61-.72,1,1,0,0,0-.95.1L.42,89a1,1,0,0,0-.4,1A34.28,34.28,0,0,0,2,96.44c6.2,14.26,50.41,77.71,53.47,82.08l1.31,21.64a33.74,33.74,0,0,0,.79,6,2.47,2.47,0,0,0,.1.29A22.87,22.87,0,0,0,60.34,212a27.83,27.83,0,0,0,8.21,7.64c11.5,7,23.91,9.47,36.66,11.56a.4.4,0,0,0,.15,0,258.88,258.88,0,0,0,34.3,2.26,286,286,0,0,0,40.07-2.88c11.15-1.77,24.14-4.42,35.88-10.57,6.43-3.5,10.52-7.27,12.73-11.83,2.17,4.29,6.25,8,12.4,11.37,11.71,6.12,24.62,8.74,35.72,10.5a270.24,270.24,0,0,0,74.22.61c12.75-2.09,25.13-4.53,36.59-11.5,2.45-1.51,9.56-7.89,12.65-11.29.42.46.89.95,1.37,1.4,2.26,3.82,6.12,7.19,11.8,10.28l1.12.56c11,6.27,22.82,8.57,35,10.55a258.09,258.09,0,0,0,36.9,2.26A258.56,258.56,0,0,0,523,230.65c12.13-2,23.93-4.28,34.91-10.52l1.18-.6c5.67-3.08,9.52-6.45,11.64-10.08.58-.57,1.07-1.1,1.49-1.55,2.13,4.43,6.16,8.16,12.54,11.64,11.7,6.12,24.61,8.74,35.72,10.5a270.3,270.3,0,0,0,74.23.61c12.74-2.09,25.13-4.54,36.57-11.5,2.11-1.29,8.16-6.61,11.63-10.2,3.53,3.64,9.5,8.89,11.64,10.2,11.44,7,23.82,9.41,36.6,11.5a253,253,0,0,0,37.93,2.25,254.33,254.33,0,0,0,38-2.25c12.75-2.09,25.13-4.54,36.57-11.5,2.05-1.25,7.29-5.87,10.64-9.2,3.36,3.33,8.6,8,10.64,9.2,11.45,7,23.83,9.41,36.6,11.5a262.05,262.05,0,0,0,39.14,2.23,255.72,255.72,0,0,0,39.22-2.23c12.74-2.09,25.12-4.54,36.56-11.5a27.09,27.09,0,0,0,8-7.5,21.75,21.75,0,0,0,2.62-5.29c0-.06.12-.33.13-.39a35.58,35.58,0,0,0,.77-5.73l1.26-20.88c3.08-4.4,47.82-68.62,54.06-82.94a34.25,34.25,0,0,0,1.83-5.9A1,1,0,0,0,1145.05,89.78ZM908,22.29a21.78,21.78,0,0,1,3.57,10.3c.13,2.37.23,4.88.31,7.47-.18,10.51-.37,27.73-.59,51.21-.37,10.3-.87,21.3-1.48,32.67a.49.49,0,0,0,0,.12l-7,67.65c-1.87,5.28-8.79,18.38-13,21.69-8.82,6.67-12.17,8.15-23.87,10.55A234.29,234.29,0,0,1,829.13,228a234.66,234.66,0,0,1-36.8-4.07c-11.72-2.41-15.06-3.89-23.88-10.54-4.13-3.29-11-16.21-12.93-21.58l-5.16-72.41,0-2.5a82.63,82.63,0,0,1,1.5-10.23c1-5.24,1.92-10.65,1.81-14.26-.14-4.34-1.59-11.45-3-18.34-1-4.95-1.94-9.62-2.3-12.79a140.78,140.78,0,0,1-.91-15.8,93.39,93.39,0,0,0-.86-13.12c-.71-4.85,3-9.59,3.6-10.12,7.53-7.43,22.57-11,33.55-13.59l3-.71a210.93,210.93,0,0,1,84.65,0l3,.72C885.41,11.29,900.44,14.85,908,22.29ZM573.93,200.91V178.74s-.22-36.88-.54-74.12l.11-64.68c0-1.18,0-2.37,0-3.56-.08-4.94-.15-9.62,3-13.15,3.79-4.81,9.72-7.72,14.45-9.72,9.6-3.92,20.83-6.54,35.33-8.25C651.61,2.46,676.1,3.34,699.06,8l3,.72c11,2.6,26,6.16,33.55,13.61.56.5,4.28,5.24,3.57,10.09a92.73,92.73,0,0,0-.85,13.08,144.56,144.56,0,0,1-.92,15.84c-.36,3.18-1.31,7.87-2.32,12.85-1.38,6.85-2.82,14-3,18.28-.12,3.61.86,9,1.81,14.26a84.59,84.59,0,0,1,1.5,10.23c0,1.56.06,3,.07,4.32l-1.29,17.39,0,.26a3.13,3.13,0,0,0-.05.45.88.88,0,0,0,0,.33l-3.84,52.16c-1.94,5.36-8.78,18.28-12.91,21.56-8.82,6.67-12.18,8.15-23.87,10.55A226,226,0,0,1,621,226.26c-10.83-1.47-23.45-3.74-34.85-9.39-6.54-3.36-10.54-7.15-12.22-11.58a12.49,12.49,0,0,0,0-3.38C574,201.57,573.94,201.23,573.93,200.91Zm-10-178.61a21.57,21.57,0,0,1,3.57,10.29c.41,7.4-.19,16.39-.82,25.92-.42,6.31-.85,12.84-1,19.34-.24,8.88-.07,17.76.07,25.6.16,8,.29,15,0,20.52h0a.28.28,0,0,0,0,.09l-7,67.65c-1.88,5.28-8.82,18.39-13,21.69-8.82,6.66-12.17,8.15-23.87,10.55A233.52,233.52,0,0,1,486.13,228a233.84,233.84,0,0,1-35.79-4c-11.71-2.41-15.06-3.89-23.88-10.54-4.16-3.32-11.09-16.43-12.92-21.48l-7.09-67.88a.29.29,0,0,0,0-.09h0c-.29-5.52-.17-12.51,0-20.59.16-7.81.32-16.67.09-25.53-.17-6.51-.6-13-1-19.37-.63-9.52-1.23-18.5-.82-25.89a21.43,21.43,0,0,1,3.6-10.32c7.52-7.43,22.56-11,33.55-13.59L444.78,8a227.05,227.05,0,0,1,41.3-4.28A226.48,226.48,0,0,1,527.37,8l3,.71C541.34,11.28,556.38,14.84,563.94,22.3ZM230.18,30.59a16.15,16.15,0,0,0-.28-2.14,11.28,11.28,0,0,1,2.55-5.22c3.81-4.82,9.74-7.73,14.46-9.72,9.61-3.92,20.84-6.54,35.33-8.25A236.2,236.2,0,0,1,355,8l3,.71c11,2.6,26,6.16,33.58,13.62.56.5,4.28,5.2,3.57,10.09a91.44,91.44,0,0,0-.85,13.1,144.12,144.12,0,0,1-.92,15.82c-.36,3.17-1.3,7.83-2.31,12.78-1.38,6.89-2.83,14-3,18.34-.11,3,.78,7.09,1.73,11.44,1.07,4.94,2.17,10.06,1.59,12.82-1.06,5-1.33,12.51-1.37,17.88l-3.76,57.27c-1.94,5.37-8.8,18.29-12.91,21.56-8.82,6.66-12.18,8.15-23.87,10.55A226.06,226.06,0,0,1,277,226.26c-10.83-1.48-23.46-3.74-34.85-9.39-6.59-3.38-10.59-7.21-12.25-11.68-.11-.32-.18-.66-.27-1a36.18,36.18,0,0,0,.34-6.45l.27-157.83Z"/><path class="cls-1" d="M1101.11,57a1,1,0,0,0,.28,1.51c7.4-2.1,14.94-1.41,20.78,3.57,8.83,7,4.8,26,.52,36.22-1.81,5.06-23.87,41.42-23.87,41.42-5.69,7-5.19,7.52.36.73,7.76-9.22,32.65-40.39,35.21-46.66,5.16-12.14.78-27.27-9.74-34.91C1116.48,52.63,1108.59,52.68,1101.11,57Z"/><path class="cls-1" d="M1066.43,35.2a8.87,8.87,0,0,0,1.71-2.06,6,6,0,0,0,.75-2.85,1.43,1.43,0,0,0-1.5-1.49,1.5,1.5,0,0,0-1.5,1.47,2.85,2.85,0,0,1-.4,1.36,5.43,5.43,0,0,1-1.1,1.3A14.91,14.91,0,0,1,1061,35a45.74,45.74,0,0,1-8,2.75c-2.51.64-5.29,1.22-8.48,1.76-2.79.46-5.69.87-8.64,1.2-5.43.62-11.14,1.07-17.43,1.37-3.88.17-7.81.28-11.58.32-14.26-1.3-25-5.85-31.07-13.15a22.13,22.13,0,0,1-5.19-16.5,2.49,2.49,0,0,0-1-2.3c-3.4-2.74-16.43,1.44-19.08,2.34-8.79,4-18.44,10.37-19.13,16.35a6.29,6.29,0,0,0,2.8,5.89c.23.23.46.48.72.71a19.31,19.31,0,0,0,4.23,2.7,47.94,47.94,0,0,0,8.73,3c2.65.69,5.52,1.28,8.79,1.83,2.86.48,5.74.88,8.83,1.23,5.51.64,11.3,1.09,17.7,1.38,5.1.25,10.42.36,15.85.36H1001c6,0,11.95-.22,17.69-.54,6.34-.37,12.12-.88,17.66-1.58,3.21-.41,6.09-.85,8.78-1.34,3.25-.57,6.1-1.2,8.74-1.9a50.54,50.54,0,0,0,8.57-3.07A17.2,17.2,0,0,0,1066.43,35.2Z"/><path class="cls-1" d="M845.65,42.12c-3.51.15-7.27.26-11.5.32C829.57,36.53,807,9.88,800.76,9.88h-.17C788.69,11,778.47,14.24,774.85,16c-10.16,4.62-15.45,8.73-16.19,12.55A4.82,4.82,0,0,0,760,32.91a6,6,0,0,0,.31.62,9.52,9.52,0,0,0,1.88,2.25,19.31,19.31,0,0,0,4.23,2.7,47.94,47.94,0,0,0,8.73,3c2.65.69,5.52,1.28,8.79,1.83,2.85.48,5.74.88,8.83,1.23,5.51.64,11.29,1.09,17.68,1.38,5.12.25,10.44.36,15.87.36h1.85c6,0,12-.22,17.69-.54,6.35-.37,12.13-.89,17.65-1.58,3.25-.42,6.12-.85,8.79-1.34,3.21-.57,6.08-1.2,8.74-1.9a50.85,50.85,0,0,0,8.57-3.07,17.2,17.2,0,0,0,4-2.63,8.35,8.35,0,0,0,1.69-2.05,5.79,5.79,0,0,0,.77-2.86,1.49,1.49,0,0,0-1.48-1.49h0a1.5,1.5,0,0,0-1.49,1.47,2.85,2.85,0,0,1-.4,1.36,5.5,5.5,0,0,1-1.11,1.3A14.65,14.65,0,0,1,888.24,35a45.74,45.74,0,0,1-8,2.75c-2.53.64-5.3,1.22-8.49,1.76-2.78.46-5.67.87-8.63,1.2C857.63,41.37,851.93,41.82,845.65,42.12Z"/><path class="cls-1" d="M248.43,35.78a18.9,18.9,0,0,0,4.23,2.7,48.92,48.92,0,0,0,8.72,3c2.63.68,5.5,1.28,8.8,1.83,2.78.47,5.75.88,8.82,1.23,5.52.64,11.3,1.09,17.69,1.38,5.11.25,10.43.36,15.87.36h1.85c6,0,11.95-.22,17.68-.54,6.36-.37,12.13-.89,17.65-1.58,3.21-.41,6.09-.85,8.79-1.34,3.25-.58,6.11-1.2,8.74-1.9a50,50,0,0,0,8.57-3.07,17.32,17.32,0,0,0,4-2.63,8.9,8.9,0,0,0,1.7-2.06,6,6,0,0,0,.75-2.85,1.48,1.48,0,0,0-1.47-1.49,1.87,1.87,0,0,0-1.07.42,1.44,1.44,0,0,0-.45,1.05,3,3,0,0,1-.4,1.36,5.4,5.4,0,0,1-1.11,1.29A14,14,0,0,1,374.48,35a46.19,46.19,0,0,1-8,2.75c-2.54.64-5.3,1.22-8.49,1.76-2.49.42-5.16.79-8.14,1.14-1.43.13-2.84.23-4.08.31l-56.66-5.12L274.15,22.23a1.5,1.5,0,0,0-.25-.15l-12.62-6a1.11,1.11,0,0,0-.84,0c-10.58,4.81-15.9,9.07-16.28,13-.17,1.89.76,3.61,2.8,5.1A10.61,10.61,0,0,0,248.43,35.78Z"/><path class="cls-1" d="M587.39,32.29a7.1,7.1,0,0,0,.56,1.24,9.47,9.47,0,0,0,1.87,2.25,19.35,19.35,0,0,0,4.24,2.7,48.13,48.13,0,0,0,8.72,3c2.65.69,5.53,1.28,8.8,1.83,2.85.48,5.74.88,8.83,1.23,5.5.64,11.28,1.09,17.68,1.38,5.12.25,10.44.36,15.87.36h1.84c6,0,12-.22,17.7-.54,6.34-.37,12.12-.89,17.65-1.58,3.25-.42,6.11-.85,8.78-1.34,3.22-.57,6.09-1.2,8.75-1.9a50.85,50.85,0,0,0,8.57-3.07,17.16,17.16,0,0,0,4-2.63,8.18,8.18,0,0,0,1.7-2.05,5.79,5.79,0,0,0,.77-2.86,1.49,1.49,0,0,0-1.48-1.49,1.55,1.55,0,0,0-1.52,1.47,2.85,2.85,0,0,1-.4,1.36,5.5,5.5,0,0,1-1.11,1.3A15.09,15.09,0,0,1,715.89,35a46,46,0,0,1-8,2.75c-2.53.64-5.31,1.22-8.49,1.76-2.78.46-5.68.87-8.63,1.2l-.78.09L605.84,16a1.06,1.06,0,0,0-.7.05c-11,5-17,9.54-17.88,13.29a2.35,2.35,0,0,0-.21,1s0,.38,0,.39A4.35,4.35,0,0,0,587.39,32.29Zm.66-2Z"/><path class="cls-1" d="M48.86,60.3l0,0C40,53,30.53,51.31,20.64,58.84,10.11,66.48,5.73,81.61,10.89,93.75c2.56,6.27,27.45,37.44,35.21,46.66,5.56,6.79,6.06,6.29.37-.73,0,0-29.41-42.61-31.22-47.67a26.2,26.2,0,0,1,7.87-30C30.27,55.93,40,56.27,48.86,60.3Z"/><path class="cls-1" d="M210.3,35.77a9,9,0,0,0,1.88-2.24,6.7,6.7,0,0,0,.9-3.24A2.3,2.3,0,0,0,210.8,28h0a2.3,2.3,0,0,0-2.3,2.3,2,2,0,0,1-.27,1,5.11,5.11,0,0,1-.95,1.14,14.22,14.22,0,0,1-3.15,2,43.59,43.59,0,0,1-7.87,2.8c-2.47.66-5.23,1.27-8.41,1.85-2.77.49-5.66.93-8.6,1.29l-3.77.45-44.78-6.9L107.74,18.19a1,1,0,0,0-.43-.16L92,16a1.1,1.1,0,0,0-.54.08C81,20.79,75.7,25,75.23,28.94c-.21,1.81.59,3.46,2.39,4.91a9,9,0,0,0,1.23,1.35,17.24,17.24,0,0,0,4,2.63,49.47,49.47,0,0,0,8.58,3.07c2.64.7,5.49,1.33,8.72,1.9,2.7.49,5.58.93,8.78,1.34,5.53.69,11.31,1.21,17.66,1.58,5.74.32,11.69.51,17.69.54h1.85c5.43,0,10.75-.11,15.86-.36,6.4-.29,12.18-.74,17.7-1.38,3.07-.35,6-.76,8.82-1.23,3.3-.55,6.17-1.15,8.8-1.83a48.58,48.58,0,0,0,8.73-3A18.76,18.76,0,0,0,210.3,35.77Z"/><path class="cls-1" d="M499.37,12c-31.91.24-56.93,3.22-74.36,8.87-6,1.94-9,4.36-9.17,7.37-.24,4.15,5.09,8.65,16.29,13.73a1,1,0,0,0,.3.09l37.71,4.36h.12a1,1,0,0,0,.82-.43,1,1,0,0,0,.07-1l-4.81-9.3a7.09,7.09,0,0,1,5.11-10.24L487,22.81,517.3,17A199.12,199.12,0,0,1,548,21.49a.93.93,0,0,0,1.19-.71,1,1,0,0,0-.66-1.22c-.19,0-18.27-5.83-47-7.58Z"/><path class="cls-1" d="M136,157.75c3.91,4.5,7.85,9,11.77,13.49,5.23,5.92,10.56,11.8,15.86,17.61,4.3,4.71,10.12,11.39,17.28,10.46,7-1.07,13.91-2.4,20.81-4-8.36-7-16.58-14.22-24.51-21.71-5-4.69-9.88-9.45-14.65-14.35-5.47-5.61-10.86-11.3-16.05-17.15-3.79-4.27-7.54-8.6-11.19-13l4.86-4.22c2.12-1.86,4.18-3.83,6.23-5.73s3.93-3.59,5.84-5.45c1.43-1.38,2.47-2.39,3.12-3,7.92-7.42,15.7-15,23.2-22.84q8.94-9.36,17.61-19a84.21,84.21,0,0,1-13.27,2.44q-16.47,17.64-34.16,34a424.52,424.52,0,0,1-34.38,28.42L115,71.67A147.37,147.37,0,0,1,93.65,67.6c.25,20.77.57,41.54.58,62.31l-.58,65.4c7.08,1.54,14.17,2.9,21.32,4.07l-.58-53q3.49-2.73,7-5.48Q128.67,149.32,136,157.75Z"/><path class="cls-1" d="M530.48,133.68v23.44c0,6,0,12-.17,18q-11.46-11.86-22.53-24.1-8.85-9.81-17.41-19.93-23.47-28.89-44.76-59.45A31.57,31.57,0,0,1,442,71.2c-1.27-.24-2.66-.51-4.16-.82l-4-.87a21.1,21.1,0,0,1-2.93-.86V75.3c0,6.89.09,13.79.17,20.69v71.55c-.08,6.86-.17,13.73-.17,20.6v6.65c3,.6,6,1.28,9,2q-.31-17.16-.52-34.31-.17-14.47-.18-29v-5.6c0-3.78.09-7.56.18-11.34V94.14c6.88,9.59,13.88,19.12,21,28.5,5.07,6.67,10.24,13.28,15.55,19.76,9.6,12.26,19.46,24.33,29.66,36.08q9.17,10.56,18.63,20.92c4.94-.89,9.84-1.9,14.74-3V168.2c-.1-7.8-.18-15.61-.18-23.4V118.73c0-7.65.08-15.31.18-23V68.65a89.13,89.13,0,0,1-9,2C530.55,91.63,530.48,112.67,530.48,133.68Z"/><path class="cls-1" d="M869.7,68.52c-4.39.88-8.87,1.6-13.32,2.15-3.54.44-7.13.76-10.7,1a257.4,257.4,0,0,1-33,0c-3.64-.26-7.29-.58-10.89-1-4.39-.54-8.81-1.26-13.13-2.12-3.51-.7-7.06-1.51-10.58-2.31-1.81-.41-2.81-.65-3-.7v7.8A308.74,308.74,0,0,0,818.45,79c.26,19.43.57,38.86.58,58.3q-.3,31.07-.58,62.15c1.79,0,3.58-.07,5.37-.08s3.64,0,5.56,0,3.94,0,5.66,0,3.29,0,4.7.1c-.25-20.72-.57-41.44-.58-62.15v-9.57c0-6.14.1-12.28.2-18.43s.19-12.52.19-18.78V79a304.14,304.14,0,0,0,43.55-5.62V65.54c-.2,0-1.2.29-3,.7C876.64,67,873.15,67.83,869.7,68.52Z"/><path class="cls-1" d="M1054,70.8a19.74,19.74,0,0,1,0-5.32c-.1,0-1.68.41-4.75,1.08-4.89,1.07-9.82,2.07-14.72,2.89-5.61.94-11.35,1.71-17.06,2.11-3.77.27-7.57.49-11.35.58q-6.06.17-12.12,0c-6.28-.16-12.59-.67-18.78-1.43-5.48-.67-11-1.56-16.46-2.55-3-.54-4.57-.87-4.78-.91.08,3.08.08,6.13,0,9.22a281.22,281.22,0,0,0,41.14,4c5.87.12,11.84,0,17.7-.31,5.55-.3,11.15-.79,16.72-1.36-12.5,18.68-25.46,37-39.08,54.92Q969,161.11,945.88,187q.18,1.82.27,2.64c.06.54.09.88.09,1a7.1,7.1,0,0,1-.09.77l-.27,1.8c-.12,0,1.58.4,5.12,1.17,5.41,1.17,10.89,2,16.39,2.75a261,261,0,0,0,30.48,2.29,260.12,260.12,0,0,0,32.17-2c5.81-.72,11.6-1.57,17.33-2.77,3.78-.79,5.61-1.25,5.49-1.22-.14-3.08-.08-6.15,0-9.22a235.17,235.17,0,0,1-30.52,5.57c-4.53.5-9.11.92-13.67,1.1-1,0-2.86.11-5.59.15-3.66,0-7.32-.11-11-.29-7.53-.31-15-.93-22.48-1.86,12.47-15.71,24.09-32,36.27-47.93Q1031.23,106.79,1054,70.8Z"/><path class="cls-1" d="M653.43,72.77h-.29a169.6,169.6,0,0,1-25.76-2.18v8.72c5.52-.94,11.32-.45,16.88-.19.23,18.44.53,36.89.53,55.33q-.25,29.06-.54,58.12c-5.67-.4-11.51-.93-16.87-3v8.72q14.49,1,29,1.09h.3q12.88-.27,25.75-1.09v-8.72c-5.36,2.15-11.17,2.65-16.88,3-.23-19.37-.53-38.75-.53-58.12l.54-55.33c5.6-.2,11.29-.53,16.87.19V70.59a181.8,181.8,0,0,1-29,2.19Z"/><path class="cls-1" d="M312.34,83.37c-38,0-54.11,33-54.11,58s16.12,58,54.11,58,54.11-33,54.11-58S350.32,83.37,312.34,83.37Zm25.55,96.41c-6.37,7.9-14.91,14.14-25.55,14.22-10.65-.08-19.19-6.32-25.56-14.22-9.3-11.52-12.43-30.17-12.43-38.39s3.13-26.88,12.43-38.4c6.37-7.9,14.91-14.14,25.56-14.22,10.64.08,19.18,6.32,25.55,14.22,9.3,11.52,12.43,30.17,12.43,38.4S347.19,168.26,337.89,179.78Z"/><path class="cls-1" d="M281,82.91a9.16,9.16,0,0,0,0-13,9.12,9.12,0,0,0-6.56-2.62,9.11,9.11,0,1,0,0,18.21A9.12,9.12,0,0,0,281,82.91Z"/><path class="cls-1" d="M356.62,82.91a9.14,9.14,0,0,0,0-13,9.1,9.1,0,0,0-6.56-2.62,9.11,9.11,0,1,0,0,18.21A9.1,9.1,0,0,0,356.62,82.91Z"/></svg>