<?xml version="1.0" encoding="UTF-8"?>
<svg id="Layer_1" xmlns="http://www.w3.org/2000/svg" version="1.1" viewBox="0 0 195.3 94">
  <!-- Generator: Adobe Illustrator 29.0.0, SVG Export Plug-In . SVG Version: 2.1.0 Build 186)  -->
  <defs>
    <style>
      .st0 {
        fill: none;
      }

      .st1 {
        fill: #06c;
      }
    </style>
  </defs>
  <g>
    <path class="st0" d="M31.1,74.3c-.2.3-.3.6-.3,1s.1.7.3,1c.2.3.5.5.9.5s.7-.2.9-.5c.2-.2.3-.6.3-1s0-.7-.3-1c0-.3-.5-.5-.9-.5s-.7.2-.9.5Z"/>
    <path class="st0" d="M62.7,74.3c-.2.3-.3.6-.3,1s0,.7.3,1,.5.5.9.5.7-.2.9-.5c.2-.2.3-.6.3-1s0-.7-.3-1-.5-.5-.9-.5-.7.2-.9.5Z"/>
    <path class="st0" d="M183.5,48.7c0-13.3-10.8-24-24-24s-24,10.8-24,24,10.8,24,24,24,24-10.8,24-24Z"/>
    <polygon class="st0" points="134.3 86.7 135.5 86.7 134.9 84.9 134.3 86.7"/>
    <path class="st0" d="M23.5,85.2h-1v1h1.1c.4,0,.6-.2.5-.5,0-.3-.2-.5-.6-.5Z"/>
    <path class="st0" d="M71.1,85.2h-.9v1.1h.9c.5,0,.7-.2.7-.5,0-.4-.2-.6-.7-.6Z"/>
    <path class="st0" d="M40.1,85.6c-.2-.3-.5-.4-.9-.4s-.7,0-.9.4c0,.2-.2.5-.2.9s0,.7.2.9c.2.3.5.4.9.4s.7,0,.9-.4.3-.6.2-.9c0-.4,0-.7-.2-.9Z"/>
    <path class="st0" d="M16.9,74.3c-.2.3-.3.6-.3,1s.1.7.3,1c.2.3.5.5.9.5s.7-.2.9-.5c.2-.2.3-.6.3-1s-.1-.7-.3-1-.5-.5-.9-.5-.7.2-.9.5Z"/>
    <path class="st0" d="M50.4,33.7c0-15.1-5.3-27.4-12-27.8-.4,0-.8,0-1.2,0-6.4,1-11.5,13-11.5,27.7s4.1,24.1,9.5,27c1.3.2,2.6.3,3.9.3h1.2c5.8-2.5,10.1-13.8,10.1-27.3ZM37.1,38.2v7.8h-4.9v-18.7c0,0,5.1,0,5.1,0v7.2h3.7v-7.2h4.5v18.7h-4.4v-7.8h-4Z"/>
    <path class="st0" d="M166.4,84.5h-1.2v1.4h1.2c.2,0,.4,0,.6-.2.2,0,.2-.3.2-.5s-.1-.4-.2-.5c-.1-.1-.3-.2-.6-.2Z"/>
    <path class="st0" d="M28.4,53.9c-2.4-5.4-3.8-12.6-3.8-20.2s0-1.9.1-2.8h-2.9v15.1h-4.4v-15h-3.4v-3.8h11c.5-5.2,1.7-9.9,3.5-13.8,1.5-3.2,3.3-5.6,5.2-7-12.6,2.6-22,13.7-22,27s9,24,21.1,26.9c-1.6-1.5-3.1-3.6-4.4-6.4Z"/>
    <polygon class="st0" points="176.7 86.7 177.9 86.7 177.3 84.9 176.7 86.7"/>
    <path class="st0" d="M11.4,39.9v21.3h20.9c-10.3-2.6-18.5-10.8-20.9-21.3Z"/>
    <path class="st0" d="M66.4,33.4c0-14.3-10.8-26-24.6-27.4,2.2,1.4,4.2,3.9,5.8,7.5,2.4,5.4,3.8,12.6,3.8,20.2s-1.3,14.8-3.8,20.2c-1.4,3.1-3.1,5.4-5.1,6.8,13.5-1.8,23.9-13.3,23.9-27.3ZM53.6,45.1v-3.6c.9.7,1.9,1.1,3.1,1.1s1.3-.2,1.9-.5c.6-.4.9-.8.9-1.4h0c0-.8-.6-1.5-1.7-2.2-.5-.3-1.3-.8-2.3-1.4-1.9-1.2-2.8-2.8-2.8-4.7s0-1.3.4-2.1c.4-1,1-1.7,2-2.3s2.1-.9,3.3-.9,2.7.3,3.8.9v3.5c-1-.7-2.1-1.1-3.2-1.1s-1.1.2-1.5.5c-.4.4-.6.8-.6,1.3s0,.6.4,1c.4.5,1.7,1.5,4,2.9,1.6,1.1,2.5,2.5,2.5,4.3s-.3,1.9-.9,2.9c-1.1,1.9-2.9,2.8-5.4,2.7-1.2,0-2.5-.3-3.9-.9Z"/>
    <path class="st0" d="M183.3,84.5h-1.2v1.4h1.2c.2,0,.4,0,.6-.2.1,0,.2-.3.2-.5s-.1-.4-.2-.5c-.1-.1-.3-.2-.6-.2Z"/>
    <path class="st0" d="M45.8,61.2h20.9v-20.9c-2.6,10.3-10.7,18.4-20.9,20.9Z"/>
    <polygon class="st1" points="8.2 77.8 8.2 73.9 9.8 73.9 9.8 72.8 5.3 72.8 5.3 73.9 6.9 73.9 6.9 77.8 8.2 77.8"/>
    <polygon class="st1" points="14.5 73.9 14.5 72.8 10.4 72.8 10.4 77.8 14.6 77.8 14.6 76.7 11.8 76.7 11.8 75.7 14.3 75.7 14.3 74.7 11.8 74.7 11.8 73.9 14.5 73.9"/>
    <path class="st1" d="M15.8,73.4c-.4.5-.7,1.1-.7,1.9s.2,1.4.7,1.9c.5.5,1.1.7,1.9.7s1.4-.2,1.9-.8c.4-.5.7-1.1.7-1.9s-.2-1.4-.7-1.9-1.1-.7-1.9-.7-1.4.3-1.9.8ZM18.7,74.3c.2.3.3.6.3,1s-.1.8-.3,1c-.2.3-.5.5-.9.5s-.7-.2-.9-.5c-.2-.3-.3-.6-.3-1s.1-.7.3-1c.2-.3.5-.5.9-.5s.7.2.9.5Z"/>
    <polygon class="st1" points="28.7 77.8 28.7 72.8 27.4 72.8 27.4 74.6 25.6 74.6 25.6 72.8 24.2 72.8 24.2 77.8 25.6 77.8 25.6 75.8 27.4 75.8 27.4 77.8 28.7 77.8"/>
    <path class="st1" d="M30.1,73.4c-.4.5-.7,1.1-.7,1.9s.2,1.4.7,1.9,1.1.7,1.9.7,1.4-.2,1.9-.8c.4-.5.7-1.1.7-1.9s-.2-1.4-.7-1.9-1.1-.7-1.9-.7c-.8,0-1.4.3-1.9.8ZM32.9,74.3c.2.3.3.6.3,1s0,.8-.3,1c-.2.3-.5.5-.9.5s-.7-.2-.9-.5c-.2-.3-.3-.6-.3-1s.1-.7.3-1c.2-.3.5-.5.9-.5s.8.2.9.5Z"/>
    <polygon class="st1" points="36.7 72.8 35.3 72.8 35.3 77.8 36.6 77.8 36.6 74.7 38.4 77.8 39.8 77.8 39.8 72.8 38.5 72.8 38.5 75.9 36.7 72.8"/>
    <path class="st1" d="M43.1,73.8c.2,0,.5,0,.7.2s.4.3.4.5h1.4c0-.6-.3-1-.8-1.4-.4-.3-1-.5-1.6-.5s-1.4.2-1.9.8c-.5.5-.7,1.1-.7,1.9s.2,1.4.7,1.9,1.1.8,1.9.8,1.1-.2,1.5-.6v.6h1v-2.8h-2.2v1h1c0,.2-.2.4-.4.6-.2,0-.5.2-.8.2s-.7-.2-.9-.5-.3-.6-.3-1,0-.7.3-1c0-.5.3-.7.7-.7Z"/>
    <path class="st1" d="M52.2,76.8c-.2,0-.4,0-.6,0-.7,0-1-.3-1-.8h-1.4c0,.6.2,1,.7,1.4.4.3.9.4,1.6.4s1.2,0,1.6-.4c.5-.3.7-.7.7-1.3s-.2-.7-.5-1c-.2-.2-.6-.3-1-.5l-1.2-.3c-.2,0-.3-.2-.3-.3,0-.3.2-.4.7-.4h.3c.3,0,.5.3.5.6h1.4c0-.5-.2-.9-.7-1.2-.4-.2-.9-.4-1.4-.4s-1,0-1.4.4c-.5.3-.7.7-.7,1.2s.2.7.5,1c.2.2.6.3,1,.4.3,0,.6,0,.8.2.4,0,.7.3.7.5,0,.2,0,.3-.3.4Z"/>
    <rect class="st1" x="54.5" y="72.8" width="1.4" height="5.1"/>
    <polygon class="st1" points="56.8 72.8 56.8 77.8 60.5 77.8 60.5 76.7 58.1 76.7 58.1 72.8 56.8 72.8"/>
    <path class="st1" d="M61.7,73.4c-.4.5-.7,1.1-.7,1.9s.2,1.4.7,1.9,1.1.7,1.9.7,1.4-.2,1.9-.8c.4-.5.7-1.1.7-1.9s-.2-1.4-.7-1.9-1.1-.7-1.9-.7c-.8,0-1.4.3-1.9.8ZM64.5,74.3c.2.3.3.6.3,1s0,.8-.3,1c-.2.3-.5.5-.9.5s-.7-.2-.9-.5-.3-.6-.3-1,0-.7.3-1,.5-.5.9-.5.7.2.9.5Z"/>
    <polygon class="st1" points="72.7 77.8 72.7 72.8 70.7 72.8 69.8 76.1 68.9 72.8 66.9 72.8 66.9 77.8 68.2 77.8 68.2 74 69.3 77.8 70.3 77.8 71.4 74 71.4 77.8 72.7 77.8"/>
    <path class="st1" d="M7.6,87.1h.9c-.1.2-.2.4-.4.5s-.5.2-.8.2-.7,0-.9-.4c-.2-.2-.2-.5-.2-.9s0-.7.2-.9c.2-.3.5-.4.9-.4s.4,0,.6,0c.2,0,.3.3.3.4h1.3c-.1-.5-.3-.9-.7-1.2-.4-.3-.9-.4-1.5-.4s-1.3.2-1.8.7c-.4.4-.7,1-.7,1.6s.2,1.2.7,1.6c.4.4,1,.7,1.8.7s1.1-.2,1.4-.6v.5h.9v-2.4h-1.9v.9Z"/>
    <path class="st1" d="M25.4,87.6c0,0-.1-.2-.1-.3s-.1-.2-.1-.2c-.1-.2-.3-.4-.5-.4.5-.2.8-.6.8-1.1s-.2-.7-.6-.9c-.3-.2-.7-.3-1.2-.3h-2.5v4.4h1.3v-1.6h1c.5,0,.7.3.7.9v.4c.1.2.1.3.1.3h1.3c-.1,0-.1-.2-.2-.4,0,0,0-.8,0-.8ZM23.6,86.2h-1.1v-1h1c.4,0,.6.2.6.5.1.3-.1.5-.5.5Z"/>
    <path class="st1" d="M39.2,84.2c-.7,0-1.4.2-1.8.7-.4.4-.6,1-.6,1.6s.2,1.2.6,1.6c.4.4,1,.7,1.8.7s1.4-.2,1.8-.7c.4-.4.6-1,.6-1.6s-.2-1.2-.6-1.6c-.4-.5-1-.7-1.8-.7ZM40.1,87.4c-.2.3-.5.4-.9.4s-.7,0-.9-.4c-.2-.2-.2-.5-.2-.9s0-.7.2-.9c.2-.3.5-.4.9-.4s.7,0,.9.4c.2.2.2.5.2.9.1.3,0,.6-.2.9Z"/>
    <path class="st1" d="M56,86.9h0c0,.6-.2.9-.8.9s-.9-.3-.9-.9v-2.7h-1.3v2.6c0,1.3.7,1.9,2.1,1.9s2.2-.6,2.2-1.9v-2.6h-1.3v2.7Z"/>
    <path class="st1" d="M72.6,84.6c-.3-.2-.7-.4-1.3-.4h-2.3v4.4h1.3v-1.5h1c.6,0,1,0,1.3-.4.3-.2.4-.6.4-1.2,0-.3-.1-.7-.4-.9ZM71.1,86.3h-.9v-1.1h.9c.5,0,.7.2.7.6,0,.3-.2.5-.7.5Z"/>
    <rect class="st1" x="5.1" y="81.1" width="67.8" height=".4"/>
    <path class="st1" d="M72.8,17.8h-6.1v8.8c-3-12.5-14.3-21.8-27.6-21.8h-1c-.3,0-.6,0-.9,0-12.7,1-23,10.1-25.8,22.1v-9.3h-6.3v49.8h67.7s0-49.7,0-49.7ZM11.4,61.2v-21.3c2.4,10.5,10.6,18.7,20.9,21.3H11.4ZM11.7,33.4c0-13.3,9.4-24.4,22-27-1.9,1.4-3.7,3.8-5.2,7-1.8,3.9-3,8.6-3.5,13.8h-11v3.8h3.4v15h4.4v-15.1h2.9c-.1.9-.1,1.9-.1,2.8,0,7.6,1.4,14.8,3.8,20.2,1.3,2.8,2.8,4.9,4.4,6.4-12.1-2.9-21.1-13.8-21.1-26.9ZM39.1,61c-1.3,0-2.6,0-3.9-.3-5.4-2.9-9.5-13.9-9.5-27,0-14.7,5.1-26.7,11.5-27.7.4,0,.8,0,1.2,0,6.7.4,12,12.7,12,27.8s-4.3,24.8-10.1,27.3h-1.2ZM47.6,53.9c2.5-5.4,3.8-12.6,3.8-20.2s-1.4-14.8-3.8-20.2c-1.6-3.6-3.6-6.1-5.8-7.5,13.8,1.4,24.6,13.1,24.6,27.4s-10.4,25.5-23.9,27.3c2-1.4,3.7-3.7,5.1-6.8ZM66.7,61.2h-20.9c10.2-2.5,18.3-10.6,20.9-20.9v20.9Z"/>
    <polygon class="st1" points="45.5 46 45.5 27.3 41 27.3 41 34.5 37.3 34.5 37.3 27.3 32.1 27.3 32.2 46 37.1 46 37.1 38.2 41.1 38.2 41.1 46 45.5 46"/>
    <path class="st1" d="M62.9,43.3c.6-1,.9-2,.9-2.9,0-1.8-.9-3.2-2.5-4.3-2.3-1.4-3.6-2.4-4-2.9-.3-.4-.4-.8-.4-1,0-.5.2-.9.6-1.3.4-.3.9-.5,1.5-.5,1.1,0,2.2.4,3.2,1.1v-3.5c-1.1-.6-2.4-.9-3.8-.9s-2.3.3-3.3.9-1.6,1.3-2,2.3c-.3.8-.4,1.5-.4,2.1,0,1.9.9,3.5,2.8,4.7,1,.6,1.8,1.1,2.3,1.4,1.1.7,1.7,1.4,1.7,2.1h0c0,.7-.3,1.1-.9,1.5-.6.3-1.2.5-1.9.5-1.2,0-2.2-.4-3.1-1.1v3.6c1.4.6,2.7.9,3.9.9,2.5,0,4.3-.8,5.4-2.7Z"/>
    <path class="st1" d="M114.7,46c-3.4-1.9-7.3-2.8-11.5-2.8s-5.1.4-7.2,1.3c-2.1.9-3.9,2-5.4,3.5l-.7.7,4.5-23.4h27.6v-7.4h-33.4l-7.8,39.4h7.3c1.6-2.3,3.6-4,6.1-5.3s5.2-1.9,8-1.9,5.5.6,7.8,1.9,4.2,3.1,5.5,5.3c1.4,2.3,2.1,4.9,2.1,7.9s-.7,5.8-2.1,8.2c-1.4,2.4-3.3,4.2-5.7,5.6-2.4,1.3-5.2,2-8.2,2s-7-.9-10-2.8c-3-1.8-5.4-4.2-7.2-7.1l-5,4.3c1.9,4.1,4.9,7.2,8.7,9.4,3.9,2.3,8.4,3.5,13.3,3.5s8.7-1,12.4-2.9c3.7-1.9,6.6-4.6,8.8-8.1,2.2-3.4,3.2-7.5,3.2-12s-1-8.2-3-11.5-4.7-5.9-8.1-7.8Z"/>
    <path class="st1" d="M134.3,83.7l-1.9,4.9h1.1l.4-1.1h1.8l.4,1.1h1.1l-1.8-4.9h-1.1ZM134.3,86.7l.6-1.8.6,1.8h-1.2Z"/>
    <polygon class="st1" points="141.8 87 139.7 83.7 138.6 83.7 138.6 88.6 139.6 88.6 139.6 85.3 141.7 88.6 142.8 88.6 142.8 83.7 141.8 83.7 141.8 87"/>
    <polygon class="st1" points="147.8 87 145.7 83.7 144.6 83.7 144.6 88.6 145.6 88.6 145.6 85.3 147.7 88.6 148.8 88.6 148.8 83.7 147.8 83.7 147.8 87"/>
    <rect class="st1" x="150.6" y="83.7" width="1.1" height="4.9"/>
    <polygon class="st1" points="155.2 87.2 154.1 83.7 153 83.7 154.6 88.6 155.8 88.6 157.4 83.7 156.3 83.7 155.2 87.2"/>
    <polygon class="st1" points="159.9 86.5 162.3 86.5 162.3 85.7 159.9 85.7 159.9 84.6 162.5 84.6 162.5 83.7 158.8 83.7 158.8 88.6 162.6 88.6 162.6 87.7 159.9 87.7 159.9 86.5"/>
    <path class="st1" d="M168.2,88.1v-.6c-.1-.2-.1-.3-.1-.4s0-.2-.1-.3c0,0-.1-.2-.2-.3-.1,0-.2-.2-.3-.2.3,0,.5-.3.6-.5.1-.3.2-.5.2-.8s0-.3-.1-.5c-.1,0-.2-.3-.3-.4-.2,0-.3-.2-.5-.3s-.4,0-.6,0h-2.7v4.9h1.1v-1.9h1.1c.3,0,.5,0,.6.2.1.2.2.3.2.6.1.2.1.3.1.6s0,.4.1.6h1.1c0,0-.1-.2-.1-.3-.1,0-.1-.2-.1-.3ZM167,85.7c-.2,0-.4.2-.6.2h-1.2v-1.4h1.2c.3,0,.5,0,.6.2s.2.3.2.5,0,.4-.2.5Z"/>
    <path class="st1" d="M173.2,86.2c-.2,0-.3-.2-.5-.2s-.3,0-.4,0c-.4,0-.6,0-.8-.2-.1,0-.3,0-.4-.2s-.2,0-.2-.2c-.1,0-.1,0-.1-.2s0-.2.1-.3c.1,0,.1-.2.2-.2,0,0,.1,0,.2,0h.7c.1,0,.2,0,.3,0,.1,0,.1,0,.2.2.1,0,.1.3.1.4h1.1c0-.3-.1-.5-.2-.7-.1-.2-.2-.4-.4-.5l-.6-.3c-.2,0-.4,0-.7,0s-.5,0-.7,0l-.6.3c-.2.2-.3.3-.4.5-.1.2-.2.4-.2.7s0,.4.1.6.2.3.3.4c.2,0,.3.2.5.3.1,0,.3.2.5.2s.3,0,.5,0,.4,0,.5,0c.1,0,.2,0,.3.2s.1.2.1.3,0,.2-.1.3c0,0-.1.2-.2.2-.1,0-.2,0-.3,0h-.3c-.1,0-.3,0-.4,0-.1,0-.2,0-.3-.2s-.1-.2-.2-.3c-.1,0-.1-.2-.2-.3h-1.1c0,.3.1.6.2.8.1.2.3.4.5.5s.4.2.7.3c.3,0,.5,0,.8,0s.6,0,.9,0c.2,0,.4-.2.6-.3s.3-.3.4-.5c.1-.2.1-.4.1-.6,0-.3-.1-.5-.2-.7-.1-.2-.2-.3-.4-.4Z"/>
    <path class="st1" d="M176.8,83.7l-1.9,4.9h1.1l.4-1.1h1.8l.4,1.1h1.1l-1.8-4.9h-1.1ZM176.7,86.7l.6-1.8.6,1.8h-1.2Z"/>
    <path class="st1" d="M185.1,88.1v-.6c-.1-.2-.1-.3-.1-.4s0-.2-.1-.3c0,0-.1-.2-.2-.3-.1,0-.2-.2-.3-.2.3,0,.5-.3.6-.5.1-.3.2-.5.2-.8s0-.3-.1-.5c-.1,0-.2-.3-.3-.4-.2,0-.3-.2-.5-.3s-.4,0-.6,0h-2.7v4.9h1.1v-1.9h1.1c.3,0,.5,0,.6.2.1.2.2.3.2.6.1.2.1.4.1.6,0,.3,0,.4.1.6h1.1c0,0-.1-.2-.1-.3-.1,0-.1-.2-.1-.3ZM183.9,85.7c-.2,0-.4.2-.6.2h-1.2v-1.4h1.2c.3,0,.5,0,.6.2s.2.3.2.5,0,.4-.2.5Z"/>
    <polygon class="st1" points="189.6 83.7 188.5 85.7 187.3 83.7 186.1 83.7 187.9 86.7 187.9 88.6 189 88.6 189 86.7 190.8 83.7 189.6 83.7"/>
    <polygon class="st1" points="182.5 23.2 183.7 23.2 183.7 18.8 185.4 18.8 185.4 17.8 180.8 17.8 180.8 18.8 182.5 18.8 182.5 23.2"/>
    <polygon class="st1" points="187.2 20.9 189.5 20.9 189.5 23.2 190.7 23.2 190.7 17.8 189.5 17.8 189.5 19.9 187.2 19.9 187.2 17.8 186 17.8 186 23.2 187.2 23.2 187.2 20.9"/>
    <path class="st1" d="M159.5,17.6c-17.1,0-31.1,14-31.1,31.1s13.9,31.1,31.1,31.1,31.1-14,31.1-31.1-14-31.1-31.1-31.1ZM159.5,72.7c-13.2,0-24-10.7-24-24s10.7-24,24-24,24,10.7,24,24-10.7,24-24,24Z"/>
  </g>
  <g>
    <path d="M134.6,102.1c-.1,0-.2,0-.3-.1,0,0-.1-.2-.1-.3s0-.1,0-.3c0,0,0,0,0,0,0,0,0,0,0,0l2.8-7.1c.1-.3.2-.4.3-.6.1-.1.3-.2.4-.2s.3,0,.4.2c.1.1.2.3.3.6l2.8,7.1s0,0,0,.1c0,0,0,0,0,.1,0,0,0,0,0,0,0,0,0,0,0,0,0,.1,0,.2-.1.3,0,0-.2.1-.3.1s-.2,0-.3-.1c0,0-.2-.2-.2-.3l-.9-2.3v-.3c0,0-1.8-4.4-1.8-4.4h0l-1.7,4.4v.3c0,0-1,2.3-1,2.3,0,.1-.1.2-.2.3,0,0-.2.1-.3.1ZM135.3,99.7l.4-.9h4.2l.4.9h-4.9Z"/>
    <path d="M143.1,102.1c-.1,0-.2,0-.3-.1,0,0-.1-.2-.1-.3v-7.6c0-.2,0-.3.2-.4.1,0,.2-.2.4-.2s.2,0,.4.1c.1,0,.2.2.3.3l4.2,6.3h0v-6.3c0-.1,0-.2.1-.3,0,0,.2-.1.3-.1s.2,0,.2,0c0,0,.1,0,.2.2,0,0,0,.2,0,.2v7.6c0,.2,0,.3-.2.4-.1.1-.2.2-.4.2s-.2,0-.4-.1c-.1,0-.2-.2-.3-.3l-4.2-6.3h0v6.3c0,.1,0,.2-.1.3s-.2.1-.3.1Z"/>
    <path d="M151.6,102.1c-.1,0-.2,0-.3-.1,0,0-.1-.2-.1-.3v-7.6c0-.2,0-.3.2-.4.1,0,.2-.2.4-.2s.2,0,.4.1c.1,0,.2.2.3.3l4.2,6.3h0v-6.3c0-.1,0-.2.1-.3,0,0,.2-.1.3-.1s.2,0,.2,0c0,0,.1,0,.2.2,0,0,0,.2,0,.2v7.6c0,.2,0,.3-.2.4-.1.1-.2.2-.4.2s-.2,0-.4-.1c-.1,0-.2-.2-.3-.3l-4.2-6.3h0v6.3c0,.1,0,.2-.1.3s-.2.1-.3.1Z"/>
    <path d="M160.1,102.1c0,0-.2,0-.2,0s-.1,0-.2-.2,0-.2,0-.2v-7.7c0-.1,0-.2.1-.3,0,0,.2-.1.3-.1s.2,0,.2,0c0,0,.1,0,.2.2,0,0,0,.2,0,.2v7.7c0,.1,0,.2-.1.3s-.2.1-.3.1Z"/>
    <path d="M165.5,102.2c-.1,0-.2,0-.3,0s-.2,0-.2-.2-.1-.2-.2-.3l-2.8-7.5c0-.1,0-.2,0-.4,0-.1,0-.2.1-.3,0,0,.2,0,.3,0s.2,0,.3.1.1.2.2.3l2.5,6.9h0l2.5-6.9c0-.1.1-.2.2-.3,0,0,.2-.1.3-.1s.2,0,.3,0c0,0,.1.1.2.2,0,.1,0,.2,0,.4l-2.8,7.5c0,.2-.2.3-.3.4-.1,0-.3.1-.4.1Z"/>
    <path d="M170.8,102c0,0-.2,0-.2,0s-.1,0-.2-.2,0-.1,0-.2v-7.5c0-.1,0-.2.1-.3,0,0,.2-.1.3-.1h4.9c.1,0,.3,0,.3.1s.1.2.1.3,0,.2-.1.3-.2.1-.3.1h-4.4v6.6h4.5c.1,0,.3,0,.3.1s.1.2.1.3,0,.2-.1.3-.2.1-.3.1h-5ZM170.8,98.2v-.9h3.7c.2,0,.3,0,.4.1s.1.2.1.3,0,.2-.1.3-.2.1-.4.1h-3.7Z"/>
    <path d="M178.1,102.1c0,0-.2,0-.2,0s-.1,0-.2-.2,0-.1,0-.2v-7.6c0-.1,0-.2.1-.3,0,0,.2-.1.3-.1h2.7c.6,0,1.1.1,1.5.3.4.2.8.5,1,.9.2.4.3.8.3,1.3s-.2,1.1-.5,1.5c-.4.4-.8.7-1.4.8l.3-.4v.4l2,2.9c0,.1.1.2.1.4s0,.2-.1.3-.2.1-.3.1-.2,0-.2,0c0,0-.1-.1-.2-.2l-2.5-3.7.6.4h-3.2v-.9h2.7c.4,0,.7,0,1-.2.3-.1.5-.3.7-.5.2-.2.2-.5.2-.8s0-.6-.2-.8c-.1-.2-.4-.4-.7-.6s-.6-.2-1.1-.2h-2.2v7.1c0,.1,0,.2-.1.3s-.2.1-.3.1Z"/>
    <path d="M188,102.2c-.6,0-1.1-.1-1.6-.3-.5-.2-.9-.5-1.2-.9-.1-.1-.2-.3-.3-.4,0-.1,0-.3,0-.4s0-.2.1-.3.2-.1.3-.1.2,0,.2,0c0,0,.1.1.2.2.2.4.5.7.9.9.4.2.8.3,1.3.3s.8,0,1.2-.2.6-.3.7-.6c.2-.2.2-.5.2-.7s0-.6-.3-.8c-.2-.2-.4-.4-.7-.5-.3-.1-.7-.3-1.2-.4-.6-.2-1.1-.4-1.5-.5-.4-.2-.7-.4-.9-.7-.3-.3-.4-.7-.4-1.2s.1-.8.3-1.2c.2-.4.6-.6,1-.9s.9-.3,1.5-.3,1,0,1.5.3c.5.2.8.5,1.1.8.1.1.2.3.3.4,0,.1,0,.2,0,.3s0,.2-.1.3-.2.1-.3.1-.2,0-.2,0c0,0-.1-.1-.2-.2-.2-.4-.5-.6-.8-.8-.3-.2-.7-.3-1.2-.3s-.7,0-1,.2c-.3.1-.5.3-.6.5-.1.2-.2.4-.2.7s0,.6.3.8c.2.2.4.4.7.5s.7.2,1.2.4c.6.2,1.1.4,1.5.5s.7.4,1,.7c.3.3.4.7.4,1.2s-.1.8-.4,1.2-.6.7-1.1.9c-.5.2-1,.3-1.7.3Z"/>
    <path d="M192.4,102.1c-.1,0-.2,0-.3-.1,0,0-.1-.2-.1-.3s0-.1,0-.3c0,0,0,0,0,0,0,0,0,0,0,0l2.8-7.1c.1-.3.2-.4.3-.6.1-.1.3-.2.4-.2s.3,0,.4.2c.1.1.2.3.3.6l2.8,7.1s0,0,0,.1c0,0,0,0,0,.1,0,0,0,0,0,0,0,0,0,0,0,0,0,.1,0,.2-.1.3,0,0-.2.1-.3.1s-.2,0-.3-.1c0,0-.2-.2-.2-.3l-.9-2.3v-.3c0,0-1.8-4.4-1.8-4.4h0l-1.7,4.4v.3c0,0-1,2.3-1,2.3,0,.1-.1.2-.2.3,0,0-.2.1-.3.1ZM193.2,99.7l.4-.9h4.2l.4.9h-4.9Z"/>
    <path d="M201,102.1c0,0-.2,0-.2,0s-.1,0-.2-.2,0-.1,0-.2v-7.6c0-.1,0-.2.1-.3,0,0,.2-.1.3-.1h2.7c.6,0,1.1.1,1.5.3.4.2.8.5,1,.9.2.4.3.8.3,1.3s-.2,1.1-.5,1.5c-.4.4-.8.7-1.4.8l.3-.4v.4l2,2.9c0,.1.1.2.1.4s0,.2-.1.3-.2.1-.3.1-.2,0-.2,0c0,0-.1-.1-.2-.2l-2.5-3.7.6.4h-3.2v-.9h2.7c.4,0,.7,0,1-.2.3-.1.5-.3.7-.5.2-.2.2-.5.2-.8s0-.6-.2-.8c-.1-.2-.4-.4-.7-.6s-.6-.2-1.1-.2h-2.2v7.1c0,.1,0,.2-.1.3s-.2.1-.3.1Z"/>
    <path d="M210.8,102.1c0,0-.2,0-.2,0s-.1,0-.2-.2,0-.2,0-.2v-3.3l.2.7-3.1-4.8c0-.1-.1-.2,0-.4,0-.1,0-.2.1-.3s.2-.1.3-.1.2,0,.2,0c0,0,.1.1.2.2l2.5,4h0l2.5-4c0,0,.1-.1.2-.2s.2,0,.2,0c.1,0,.2,0,.3.1,0,0,.1.2.1.3,0,.1,0,.2,0,.3l-3.1,4.8.2-.7v3.3c0,.1,0,.2-.1.3s-.2.1-.3.1Z"/>
  </g>
</svg>