<svg width="710" height="232" viewBox="0 0 710 232" fill="none" xmlns="http://www.w3.org/2000/svg">
<g clip-path="url(#clip0_4227_23480)">
<path d="M264.56 43.0004C268.07 40.2704 270.68 36.4104 270.68 29.8904C270.68 24.9004 268.95 20.6404 265.53 17.2204C261.25 12.9404 254.74 10.6904 246.68 10.6904H217.73C216.19 10.6904 214.94 11.9404 214.94 13.4904V78.0304C214.94 79.5704 216.19 80.8204 217.73 80.8204H247.6C264.05 80.8204 274.28 72.9704 274.28 60.1404C274.28 52.6504 270.87 46.7104 264.56 43.0004ZM257.35 59.8904C257.35 64.8904 252.1 65.9404 247.7 65.9404H231.26V53.8304H246.87C253.82 53.8404 257.35 55.8104 257.35 59.8904ZM253.75 31.9804C253.75 35.7604 250.6 37.6804 244.37 37.6804H231.25V25.7404H245.2C250.55 25.7404 253.74 28.0004 253.74 31.8004V31.9804H253.75Z" fill="#002D74"/>
<path d="M348.42 76.9002L320.02 11.9002C319.57 10.8802 318.57 10.2202 317.46 10.2202H306.95C305.84 10.2202 304.83 10.8802 304.39 11.9002L275.99 76.9002C275.61 77.7602 275.7 78.7602 276.21 79.5502C276.73 80.3402 277.61 80.8102 278.55 80.8102H290.17C291.29 80.8102 292.3 80.1402 292.74 79.1102L298.66 65.2302H325.47L331.3 79.1002C331.74 80.1402 332.75 80.8102 333.88 80.8102H345.87C346.81 80.8102 347.69 80.3302 348.21 79.5502C348.72 78.7602 348.8 77.7602 348.42 76.9002ZM318.93 49.5902H305.2L312.04 33.6402L318.93 49.5902Z" fill="#002D74"/>
<path d="M413.69 10.6802H402.54C401 10.6802 399.74 11.9302 399.74 13.4802V49.9302L370.17 11.7702C369.64 11.0902 368.82 10.6902 367.96 10.6902H357.45C355.91 10.6902 354.65 11.9402 354.65 13.4902V78.0302C354.65 79.5702 355.9 80.8202 357.45 80.8202H368.6C370.14 80.8202 371.39 79.5702 371.39 78.0302V40.2702L401.98 79.7302C402.51 80.4102 403.33 80.8102 404.19 80.8102H413.69C415.23 80.8102 416.48 79.5602 416.48 78.0202V13.4802C416.49 11.9402 415.24 10.6802 413.69 10.6802Z" fill="#002D74"/>
<path d="M489.92 39.1703H463.13C461.59 39.1703 460.34 40.4203 460.34 41.9703V51.9303C460.34 53.4703 461.59 54.7303 463.13 54.7303H476.15V62.4503C472.58 64.7203 468 66.0103 463.36 66.0103C451.91 66.0103 444.21 57.8703 444.21 45.5703C444.21 34.4203 452.18 25.6903 462.34 25.6903C469.73 25.6903 474.05 28.0503 478.62 31.8703C479.81 32.8603 481.56 32.7003 482.55 31.5203L489.74 22.9403C490.73 21.7603 490.58 20.0103 489.4 19.0103C481.5 12.3203 473.79 9.59033 462.79 9.59033C442.56 9.59033 426.71 25.4803 426.71 45.7603V45.9503C426.71 66.8003 441.96 81.9403 462.97 81.9403C476.36 81.9403 485.99 76.1103 491.71 71.2203C492.33 70.6903 492.69 69.9103 492.69 69.1003V41.9903C492.71 40.4203 491.46 39.1703 489.92 39.1703Z" fill="#002D74"/>
<path d="M566.95 76.3202L540.56 41.4502L565.54 15.4302C566.32 14.6202 566.55 13.4302 566.11 12.3902C565.67 11.3602 564.66 10.6802 563.54 10.6802H549.43C548.66 10.6802 547.92 11.0002 547.4 11.5602L521.89 38.8902V13.4802C521.89 11.9402 520.64 10.6802 519.1 10.6802H507.76C506.22 10.6802 504.97 11.9302 504.97 13.4802V78.0202C504.97 79.5602 506.22 80.8102 507.76 80.8102H519.1C520.64 80.8102 521.89 79.5602 521.89 78.0202V60.4402L528.88 53.2602L548.68 79.7102C549.21 80.4102 550.03 80.8202 550.91 80.8202H564.74C565.8 80.8202 566.78 80.2202 567.25 79.2602C567.71 78.3002 567.6 77.1702 566.95 76.3202Z" fill="#002D74"/>
<path d="M602.71 9.57031C582.17 9.57031 566.08 25.4603 566.08 45.7403V45.9303C566.08 66.4503 581.75 81.9203 602.53 81.9203C623.07 81.9203 639.16 66.0303 639.16 45.5603C639.16 25.0503 623.49 9.57031 602.71 9.57031ZM621.68 45.7503V45.9403C621.68 57.2803 613.53 65.8303 602.72 65.8303C591.8 65.8303 583.57 57.2003 583.57 45.5703C583.57 34.2303 591.72 25.6903 602.53 25.6903C613.44 25.6803 621.68 34.3103 621.68 45.7503Z" fill="#002D74"/>
<path d="M709.02 76.3202L682.63 41.4502L707.61 15.4302C708.39 14.6202 708.62 13.4302 708.18 12.3902C707.74 11.3602 706.73 10.6802 705.61 10.6802H691.5C690.73 10.6802 689.99 11.0002 689.47 11.5602L663.96 38.8902V13.4802C663.96 11.9402 662.71 10.6802 661.17 10.6802H649.83C648.29 10.6802 647.04 11.9302 647.04 13.4802V78.0202C647.04 79.5602 648.29 80.8102 649.83 80.8102H661.16C662.7 80.8102 663.95 79.5602 663.95 78.0202V60.4402L670.94 53.2602L690.74 79.7102C691.27 80.4102 692.09 80.8202 692.97 80.8202H706.8C707.86 80.8202 708.83 80.2202 709.31 79.2602C709.79 78.3002 709.67 77.1702 709.02 76.3202Z" fill="#002D74"/>
<path d="M271.38 91.3203H260.04C258.5 91.3203 257.24 92.5703 257.24 94.1203V118.33H231.86V94.1203C231.86 92.5803 230.61 91.3203 229.07 91.3203H217.73C216.19 91.3203 214.94 92.5703 214.94 94.1203V158.66C214.94 160.2 216.19 161.46 217.73 161.46H229.07C230.61 161.46 231.86 160.21 231.86 158.66V134.43H257.24V158.66C257.24 160.2 258.49 161.46 260.04 161.46H271.38C272.92 161.46 274.18 160.21 274.18 158.66V94.1203C274.17 92.5703 272.92 91.3203 271.38 91.3203Z" fill="#002D74"/>
<path d="M320.04 90.2104C299.5 90.2104 283.41 106.1 283.41 126.38V126.57C283.41 147.09 299.08 162.56 319.86 162.56C340.4 162.56 356.49 146.67 356.49 126.21C356.49 105.68 340.82 90.2104 320.04 90.2104ZM339.01 126.38V126.57C339.01 137.91 330.86 146.46 320.05 146.46C309.13 146.46 300.9 137.83 300.9 126.21C300.9 114.87 309.05 106.32 319.86 106.32C330.77 106.31 339.01 114.94 339.01 126.38Z" fill="#002D74"/>
<path d="M396.38 118.5C382.99 115.38 382.99 113.49 382.99 110.89C382.99 107.99 386.17 106.03 390.9 106.03C396.74 106.03 402.49 107.98 407.51 111.66C408.12 112.1 408.88 112.29 409.62 112.16C410.36 112.04 411.02 111.62 411.45 111L417.1 102.9C417.95 101.69 417.7 100.02 416.54 99.1104C409 93.1704 400.91 90.4004 391.09 90.4004C376.39 90.4004 365.73 99.4504 365.73 112.1C365.73 127.13 377.6 131.21 389.78 134.09C402.82 137.04 402.82 139.27 402.82 141.41C402.82 144.49 398.88 146.73 393.46 146.73C386.48 146.73 380.34 144.28 374.14 139C373.57 138.51 372.81 138.28 372.07 138.35C371.32 138.42 370.63 138.79 370.16 139.38L363.59 147.49C362.65 148.66 362.79 150.36 363.92 151.35C372.15 158.56 382.26 162.37 393.18 162.37C409.32 162.37 420.17 153.5 420.17 140.12C420.16 126.07 408.15 121.31 396.38 118.5Z" fill="#002D74"/>
<path d="M460.04 91.3203H433.3C431.76 91.3203 430.5 92.5703 430.5 94.1203V158.66C430.5 160.2 431.75 161.46 433.3 161.46H444.64C446.18 161.46 447.44 160.21 447.44 158.66V140.7H458.75C475.97 140.7 487.53 130.72 487.53 115.68C487.53 101.11 476.48 91.3203 460.04 91.3203ZM470.24 116.15C470.24 121.45 465.87 124.88 459.11 124.88H447.43V107.24H459.11C464.19 107.24 470.24 108.75 470.24 116.15Z" fill="#002D74"/>
<path d="M511.88 91.3203H500.54C499 91.3203 497.75 92.5703 497.75 94.1203V158.66C497.75 160.2 499 161.46 500.54 161.46H511.88C513.42 161.46 514.67 160.21 514.67 158.66V94.1203C514.68 92.5703 513.43 91.3203 511.88 91.3203Z" fill="#002D74"/>
<path d="M581.82 91.3203H528.78C527.24 91.3203 525.99 92.5703 525.99 94.1203V104.63C525.99 106.17 527.24 107.43 528.78 107.43H546.01V158.67C546.01 160.21 547.26 161.47 548.8 161.47H560.14C561.68 161.47 562.93 160.22 562.93 158.67V107.43H581.81C583.35 107.43 584.6 106.18 584.6 104.63V94.1203C584.62 92.5703 583.37 91.3203 581.82 91.3203Z" fill="#002D74"/>
<path d="M651.11 157.531L622.71 92.5306C622.26 91.5106 621.26 90.8506 620.15 90.8506H609.64C608.53 90.8506 607.52 91.5106 607.08 92.5306L578.68 157.531C578.3 158.391 578.39 159.391 578.9 160.181C579.42 160.971 580.3 161.441 581.24 161.441H592.86C593.98 161.441 594.99 160.771 595.43 159.741L601.35 145.861H628.16L633.99 159.731C634.43 160.771 635.44 161.441 636.57 161.441H648.56C649.5 161.441 650.38 160.961 650.9 160.181C651.41 159.391 651.49 158.401 651.11 157.531ZM621.62 130.221H607.89L614.72 114.271L621.62 130.221Z" fill="#002D74"/>
<path d="M706.8 145.231H676.27V94.1105C676.27 92.5705 675.02 91.3105 673.48 91.3105H662.14C660.6 91.3105 659.35 92.5605 659.35 94.1105V158.651C659.35 160.191 660.6 161.451 662.14 161.451H706.81C708.35 161.451 709.61 160.201 709.61 158.651V148.021C709.6 146.481 708.35 145.231 706.8 145.231Z" fill="#002D74"/>
<path d="M145.38 86.5H129.07V102.63C129.07 105.59 126.65 108.01 123.69 108.01H91.4401C88.4801 108.01 86.0601 110.43 86.0601 113.38V145.63C86.0601 148.59 83.6401 151.01 80.6801 151.01H48.4201C45.4601 151.01 43.0401 148.59 43.0401 145.63V113.38C43.0401 110.42 40.6201 108.01 37.6601 108.01H0.0600586V172.52H127.14H127.73V172.5C152.28 172.18 172.08 152.2 172.08 127.57C172.08 109.25 161.11 93.5 145.38 86.5Z" fill="#002D74"/>
<path d="M127.73 0.500233V0.490234H0.0600586V65.0002H37.6901C40.6501 65.0002 43.0701 62.5802 43.0701 59.6302V27.3702C43.0701 24.4102 45.4901 21.9902 48.4501 21.9902H80.7101C83.6701 21.9902 86.09 24.4102 86.09 27.3702V59.6202C86.09 62.5802 88.5101 64.9902 91.4701 64.9902H123.72C126.68 64.9902 129.1 67.4102 129.1 70.3702V86.5002H145.41C161.14 79.5002 172.11 63.7502 172.11 45.4302C172.08 20.8102 152.28 0.820233 127.73 0.500233Z" fill="#B12028"/>
<path d="M37.6902 65.0002C40.6502 65.0002 43.0702 62.5802 43.0702 59.6202V27.3702C43.0702 25.8402 43.7202 24.4702 44.7502 23.4902V23.4702L0.180176 65.0002H37.6902Z" fill="#691C32"/>
<path d="M123.7 65.0002H91.4501C88.4901 65.0002 86.0701 62.5802 86.0701 59.6202V27.3702C86.0701 24.4102 83.6501 21.9902 80.6901 21.9902H48.4301C45.4701 21.9902 43.0501 24.4102 43.0501 27.3702V59.6202C43.0501 62.5802 40.6301 65.0002 37.6701 65.0002H0.0600586V108.01H37.6901C40.6501 108.01 43.0701 110.43 43.0701 113.39V145.64C43.0701 148.6 45.4901 151.02 48.4501 151.02H80.7101C83.6701 151.02 86.09 148.6 86.09 145.64V113.39C86.09 110.43 88.5101 108.01 91.4701 108.01H123.72C126.68 108.01 129.1 105.59 129.1 102.63V70.3702C129.08 67.4202 126.66 65.0002 123.7 65.0002Z" fill="white"/>
<path d="M213.45 214.13V214.03C213.45 204.05 220.97 195.88 231.75 195.88C238.37 195.88 242.33 198.09 245.59 201.29L240.68 206.96C237.97 204.5 235.21 203 231.7 203C225.79 203 221.52 207.91 221.52 213.93V214.03C221.52 220.05 225.68 225.06 231.7 225.06C235.71 225.06 238.17 223.45 240.93 220.95L245.84 225.92C242.23 229.78 238.22 232.19 231.45 232.19C221.12 232.18 213.45 224.21 213.45 214.13Z" fill="#758592"/>
<path d="M252.02 196.48H259.74V210.37H273.98V196.48H281.7V231.58H273.98V217.49H259.74V231.58H252.02V196.48Z" fill="#758592"/>
<path d="M290.49 196.48H298.21V231.58H290.49V196.48Z" fill="#758592"/>
<path d="M319.03 196.23H326.15L341.2 231.58H333.12L329.91 223.71H315.07L311.86 231.58H303.99L319.03 196.23ZM327.15 216.89L322.49 205.51L317.82 216.89H327.15Z" fill="#758592"/>
<path d="M346.63 196.48H353.75L370.2 218.09V196.48H377.82V231.58H371.25L354.25 209.27V231.58H346.63V196.48Z" fill="#758592"/>
<path d="M384.7 214.13V214.03C384.7 204.05 392.47 195.88 403.1 195.88C409.42 195.88 413.23 197.59 416.89 200.7L412.03 206.57C409.32 204.31 406.91 203.01 402.86 203.01C397.24 203.01 392.78 207.98 392.78 213.94V214.04C392.78 220.46 397.19 225.17 403.41 225.17C406.22 225.17 408.73 224.47 410.68 223.06V218.05H402.91V211.38H418.16V226.62C414.55 229.68 409.58 232.19 403.17 232.19C392.22 232.18 384.7 224.51 384.7 214.13Z" fill="#758592"/>
<path d="M440.63 196.48H448.95L458.18 211.32L467.41 196.48H475.73V231.58H468.06V208.66L458.18 223.65H457.98L448.2 208.81V231.57H440.63V196.48Z" fill="#758592"/>
<path d="M496.2 196.23H503.32L518.37 231.58H510.29L507.08 223.71H492.24L489.03 231.58H481.16L496.2 196.23ZM504.32 216.89L499.66 205.51L494.99 216.89H504.32Z" fill="#758592"/>
<path d="M524.14 196.48H531.86V231.58H524.14V196.48Z" fill="#758592"/>
</g>
<defs>
<clipPath id="clip0_4227_23480">
<rect width="709" height="232" fill="white" transform="translate(0.0400391)"/>
</clipPath>
</defs>
</svg>
