<?xml version="1.0" encoding="UTF-8"?>
<svg xmlns="http://www.w3.org/2000/svg" xmlns:xlink="http://www.w3.org/1999/xlink" width="196px" height="49px" viewBox="0 0 196 49" version="1.1">
  <title>BGHlogo</title>
  <desc>Created with Sketch.</desc>
  <g id="BIH-Web" stroke="none" stroke-width="1" fill="none" fill-rule="evenodd">
    <g id="Desktop" transform="translate(-206.000000, -4184.000000)" fill-rule="nonzero">
      <g id="CONNECT" transform="translate(206.000000, 4175.000000)">
        <g id="LOGO">
          <g id="BGHlogo" transform="translate(0.000000, 9.000000)">
            <g id="XMLID_1006_" transform="translate(59.000000, 3.000000)" fill="#002D73">
              <path d="M13.7,9.7 C14.7,8.9 15.4,7.9 15.4,6.1 C15.4,4.7 14.9,3.6 14,2.6 C12.8,1.4 11,0.8 8.8,0.8 L0.8,0.8 C0.4,0.8 0,1.1 0,1.6 L0,19.3 C0,19.7 0.3,20.1 0.8,20.1 L9,20.1 C13.5,20.1 16.3,17.9 16.3,14.4 C16.4,12.3 15.5,10.7 13.7,9.7 Z M11.7,14.3 C11.7,15.7 10.3,16 9,16 L4.5,16 L4.5,12.7 L8.8,12.7 C10.8,12.6 11.7,13.2 11.7,14.3 Z M10.8,6.6 C10.8,7.6 9.9,8.2 8.2,8.2 L4.6,8.2 L4.6,4.9 L8.4,4.9 C9.9,4.9 10.8,5.5 10.8,6.6 L10.8,6.6 Z" id="XMLID_1029_"></path>
              <path d="M36.8,19 L29,1.1 C28.9,0.8 28.6,0.6 28.3,0.6 L25.4,0.6 C25.1,0.6 24.8,0.8 24.7,1.1 L16.9,19 C16.8,19.2 16.8,19.5 17,19.7 C17.1,19.9 17.4,20 17.6,20 L20.8,20 C21.1,20 21.4,19.8 21.5,19.5 L23.1,15.7 L30.5,15.7 L32.1,19.5 C32.2,19.8 32.5,20 32.8,20 L36.1,20 C36.4,20 36.6,19.9 36.7,19.7 C36.9,19.5 36.9,19.2 36.8,19 Z M28.7,11.5 L24.9,11.5 L26.8,7.1 L28.7,11.5 Z" id="XMLID_1022_"></path>
              <path d="M54.7,0.8 L51.6,0.8 C51.2,0.8 50.8,1.1 50.8,1.6 L50.8,11.6 L42.7,1.1 C42.6,0.9 42.3,0.8 42.1,0.8 L39.2,0.8 C38.8,0.8 38.4,1.1 38.4,1.6 L38.4,19.3 C38.4,19.7 38.7,20.1 39.2,20.1 L42.3,20.1 C42.7,20.1 43.1,19.8 43.1,19.3 L43.1,8.9 L51.5,19.7 C51.6,19.9 51.9,20 52.1,20 L54.7,20 C55.1,20 55.5,19.7 55.5,19.2 L55.5,1.6 C55.5,1.1 55.1,0.8 54.7,0.8 Z" id="XMLID_1021_"></path>
              <path d="M75.7,8.6 L68.3,8.6 C67.9,8.6 67.5,8.9 67.5,9.4 L67.5,12.1 C67.5,12.5 67.8,12.9 68.3,12.9 L71.9,12.9 L71.9,15 C70.9,15.6 69.7,16 68.4,16 C65.3,16 63.1,13.8 63.1,10.4 C63.1,7.3 65.3,4.9 68.1,4.9 C70.1,4.9 71.3,5.5 72.6,6.6 C72.9,6.9 73.4,6.8 73.7,6.5 L75.7,4.1 C76,3.8 75.9,3.3 75.6,3 C73.4,1.2 71.3,0.4 68.3,0.4 C62.7,0.4 58.4,4.8 58.4,10.3 L58.4,10.4 C58.4,16.1 62.6,20.3 68.4,20.3 C72.1,20.3 74.7,18.7 76.3,17.4 C76.5,17.3 76.6,17 76.6,16.8 L76.6,9.3 C76.4,9 76.1,8.6 75.7,8.6 Z" id="XMLID_1020_"></path>
              <path d="M96.9,18.8 L89.6,9.2 L96.5,2 C96.7,1.8 96.8,1.4 96.7,1.2 C96.6,0.9 96.3,0.7 96,0.7 L92,0.7 C91.8,0.7 91.6,0.8 91.4,0.9 L84.4,8.4 L84.4,1.4 C84.4,1 84.1,0.6 83.6,0.6 L80.5,0.6 C80.1,0.6 79.7,0.9 79.7,1.4 L79.7,19.1 C79.7,19.5 80,19.9 80.5,19.9 L83.6,19.9 C84,19.9 84.4,19.6 84.4,19.1 L84.4,14.3 L86.3,12.3 L91.7,19.6 C91.8,19.8 92.1,19.9 92.3,19.9 L96.1,19.9 C96.4,19.9 96.7,19.7 96.8,19.5 C97.1,19.4 97,19.1 96.9,18.8 Z" id="XMLID_1015_"></path>
              <path d="M106.7,0.5 C101.1,0.5 96.6,4.9 96.6,10.4 L96.6,10.5 C96.6,16.1 100.9,20.4 106.6,20.4 C112.2,20.4 116.7,16 116.7,10.4 C116.7,4.7 112.4,0.5 106.7,0.5 Z M111.9,10.4 L111.9,10.4 C111.9,13.6 109.7,15.9 106.7,15.9 C103.7,15.9 101.4,13.5 101.4,10.3 C101.4,7.2 103.6,4.8 106.6,4.8 C109.6,4.9 111.9,7.3 111.9,10.4 Z" id="XMLID_1010_"></path>
              <path d="M135.9,18.8 L128.6,9.2 L135.5,2 C135.7,1.8 135.8,1.4 135.7,1.2 C135.6,0.9 135.3,0.7 135,0.7 L131.1,0.7 C130.9,0.7 130.7,0.8 130.5,0.9 L123.5,8.4 L123.5,1.4 C123.5,1 123.2,0.6 122.7,0.6 L119.6,0.6 C119.2,0.6 118.8,0.9 118.8,1.4 L118.8,19.1 C118.8,19.5 119.1,19.9 119.6,19.9 L122.7,19.9 C123.1,19.9 123.5,19.6 123.5,19.1 L123.5,14.3 L125.4,12.3 L130.8,19.6 C130.9,19.8 131.2,19.9 131.4,19.9 L135.2,19.9 C135.5,19.9 135.8,19.7 135.9,19.5 C136.1,19.4 136.1,19.1 135.9,18.8 Z" id="XMLID_1009_"></path>
            </g>
            <g id="XMLID_983_" transform="translate(59.000000, 25.000000)" fill="#002D73">
              <path d="M15.6,1 L12.5,1 C12.1,1 11.7,1.3 11.7,1.8 L11.7,8.5 L4.7,8.5 L4.7,1.8 C4.7,1.4 4.4,1 3.9,1 L0.8,1 C0.4,1 7.10542736e-15,1.3 7.10542736e-15,1.8 L7.10542736e-15,19.5 C7.10542736e-15,19.9 0.3,20.3 0.8,20.3 L4,20.3 C4.4,20.3 4.8,20 4.8,19.5 L4.8,12.8 L11.8,12.8 L11.8,19.5 C11.8,19.9 12.1,20.3 12.6,20.3 L15.7,20.3 C16.1,20.3 16.5,20 16.5,19.5 L16.5,1.7 C16.4,1.3 16,1 15.6,1 Z" id="XMLID_1001_"></path>
              <path d="M29,0.6 C23.4,0.6 18.9,5 18.9,10.5 L18.9,10.6 C18.9,16.2 23.2,20.5 28.9,20.5 C34.5,20.5 39,16.1 39,10.5 C39,4.9 34.7,0.6 29,0.6 Z M34.2,10.6 L34.2,10.6 C34.2,13.8 32,16.1 29,16.1 C26,16.1 23.7,13.7 23.7,10.5 C23.7,7.4 25.9,5 28.9,5 C31.9,5.1 34.2,7.4 34.2,10.6 Z" id="XMLID_998_"></path>
              <path d="M50,8.4 C46.3,7.5 46.3,7 46.3,6.3 C46.3,5.5 47.2,5 48.5,5 C50.1,5 51.7,5.5 53.1,6.5 C53.3,6.6 53.5,6.7 53.7,6.6 C53.9,6.6 54.1,6.5 54.2,6.3 L55.8,4.1 C56,3.8 56,3.3 55.6,3.1 C53.5,1.5 51.3,0.7 48.6,0.7 C44.6,0.7 41.6,3.2 41.6,6.7 C41.6,10.8 44.9,12 48.2,12.7 C51.8,13.5 51.8,14.1 51.8,14.7 C51.8,15.5 50.7,16.2 49.2,16.2 C47.3,16.2 45.6,15.5 43.9,14.1 C43.7,14 43.5,13.9 43.3,13.9 C43.1,13.9 42.9,14 42.8,14.2 L41,16.4 C40.7,16.7 40.8,17.2 41.1,17.5 C43.4,19.5 46.1,20.5 49.1,20.5 C53.5,20.5 56.5,18.1 56.5,14.4 C56.5,10.5 53.2,9.2 50,8.4 Z" id="XMLID_997_"></path>
              <path d="M67.5,1 L60.2,1 C59.8,1 59.4,1.3 59.4,1.8 L59.4,19.5 C59.4,19.9 59.7,20.3 60.2,20.3 L63.3,20.3 C63.7,20.3 64.1,20 64.1,19.5 L64.1,14.6 L67.2,14.6 C71.9,14.6 75.1,11.9 75.1,7.7 C75,3.6 72,1 67.5,1 Z M70.3,7.8 C70.3,9.3 69.1,10.2 67.2,10.2 L64,10.2 L64,5.4 L67.2,5.4 C68.6,5.3 70.3,5.7 70.3,7.8 Z" id="XMLID_994_"></path>
              <path d="M81.7,1 L78.6,1 C78.2,1 77.8,1.3 77.8,1.8 L77.8,19.5 C77.8,19.9 78.1,20.3 78.6,20.3 L81.7,20.3 C82.1,20.3 82.5,20 82.5,19.5 L82.5,1.7 C82.5,1.3 82.1,1 81.7,1 Z" id="XMLID_992_"></path>
              <path d="M100.9,1 L86.3,1 C85.9,1 85.5,1.3 85.5,1.8 L85.5,4.7 C85.5,5.1 85.8,5.5 86.3,5.5 L91,5.5 L91,19.6 C91,20 91.3,20.4 91.8,20.4 L94.9,20.4 C95.3,20.4 95.7,20.1 95.7,19.6 L95.7,5.4 L100.9,5.4 C101.3,5.4 101.7,5.1 101.7,4.6 L101.7,1.7 C101.7,1.3 101.4,1 100.9,1 Z" id="XMLID_991_"></path>
              <path d="M120,19.2 L112.2,1.3 C112.1,1 111.8,0.8 111.5,0.8 L108.6,0.8 C108.3,0.8 108,1 107.9,1.3 L100.1,19.2 C100,19.4 100,19.7 100.2,19.9 C100.3,20.1 100.6,20.2 100.8,20.2 L104,20.2 C104.3,20.2 104.6,20 104.7,19.7 L106.3,15.9 L113.7,15.9 L115.3,19.7 C115.4,20 115.7,20.2 116,20.2 L119.3,20.2 C119.6,20.2 119.8,20.1 119.9,19.9 C120.1,19.7 120.1,19.4 120,19.2 Z M111.9,11.6 L108.1,11.6 L110,7.2 L111.9,11.6 Z" id="XMLID_985_"></path>
              <path d="M135.3,15.8 L126.9,15.8 L126.9,1.7 C126.9,1.3 126.6,0.9 126.1,0.9 L123,0.9 C122.6,0.9 122.2,1.2 122.2,1.7 L122.2,19.4 C122.2,19.8 122.5,20.2 123,20.2 L135.3,20.2 C135.7,20.2 136.1,19.9 136.1,19.4 L136.1,16.5 C136.1,16.1 135.7,15.8 135.3,15.8 Z" id="XMLID_984_"></path>
            </g>
            <g id="XMLID_973_">
              <g id="XMLID_975_">
                <path d="M39.9,24.5 L35.4,24.5 L35.4,28.9 C35.4,29.7 34.7,30.4 33.9,30.4 L25,30.4 C24.2,30.4 23.5,31.1 23.5,31.9 L23.5,40.8 C23.5,41.6 22.8,42.3 22,42.3 L13.1,42.3 C12.3,42.3 11.6,41.6 11.6,40.8 L11.6,31.9 C11.6,31.1 10.9,30.4 10.1,30.4 L0,30.4 L0,48.1 L34.9,48.1 C34.9,48.1 34.9,48.1 34.9,48.1 C34.9,48.1 34.9,48.1 34.9,48.1 L35.1,48.1 L35.1,48.1 C41.8,48 47.3,42.5 47.3,35.8 C47.3,30.8 44.3,26.4 39.9,24.5 Z" id="XMLID_977_" fill="#002D73"></path>
                <path d="M35.1,0.9 L35.1,0.9 L0,0.9 L0,18.6 L10.3,18.6 C11.1,18.6 11.8,17.9 11.8,17.1 L11.8,8.3 C11.8,7.5 12.5,6.8 13.3,6.8 L22.2,6.8 C23,6.8 23.7,7.5 23.7,8.3 L23.7,17.2 C23.7,18 24.4,18.7 25.2,18.7 L34,18.7 C34.8,18.7 35.5,19.4 35.5,20.2 L35.5,24.6 L40,24.6 C44.3,22.7 47.3,18.3 47.3,13.3 C47.3,6.5 41.8,1 35.1,0.9 Z" id="XMLID_976_" fill="#B21E28"></path>
              </g>
              <path d="M10.3,18.6 C11.1,18.6 11.8,17.9 11.8,17.1 L11.8,8.3 C11.8,7.9 12,7.5 12.3,7.2 L12.3,7.2 L0,18.6 L10.3,18.6 Z" id="XMLID_974_" fill="#002D73" opacity="0.5"></path>
            </g>
            <path d="M34,18.6 L25.1,18.6 C24.3,18.6 23.6,17.9 23.6,17.1 L23.6,8.3 C23.6,7.5 22.9,6.8 22.1,6.8 L13.2,6.8 C12.4,6.8 11.7,7.5 11.7,8.3 L11.7,17.2 C11.7,18 11,18.7 10.2,18.7 L0,18.7 L0,30.5 L10.3,30.5 C11.1,30.5 11.8,31.2 11.8,32 L11.8,40.9 C11.8,41.7 12.5,42.4 13.3,42.4 L22.2,42.4 C23,42.4 23.7,41.7 23.7,40.9 L23.7,32 C23.7,31.2 24.4,30.5 25.2,30.5 L34,30.5 C34.8,30.5 35.5,29.8 35.5,29 L35.5,20.1 C35.5,19.3 34.8,18.6 34,18.6 Z" id="XMLID_972_" fill="#FFFFFF"></path>
          </g>
        </g>
      </g>
    </g>
  </g>
</svg>
