<svg width="921" height="300" viewBox="0 0 921 300" fill="none" xmlns="http://www.w3.org/2000/svg">
<g clip-path="url(#clip0_4228_23555)">
<path d="M0 -0.000387907C28.7719 -0.0828879 57.5438 -0.165388 87.1875 -0.250388C96.2576 -0.286804 105.328 -0.32322 114.673 -0.360739C125.786 -0.378806 125.786 -0.378806 130.996 -0.382163C134.618 -0.385875 138.241 -0.400808 141.864 -0.42269C146.498 -0.450304 151.131 -0.45832 155.765 -0.452677C157.457 -0.453856 159.15 -0.461682 160.843 -0.477248C178.598 -0.632829 193.836 3.5111 206.875 16.3121C217.819 27.8387 223.89 41.9157 224.035 57.8629C223.575 74.5053 217.979 88.7072 206.625 100.937C202.265 104.978 197.089 107.972 192 111C194.365 112.909 196.73 114.8 199.176 116.605C213.312 127.071 220.675 140.069 223.59 157.211C225.295 172.964 221.486 188.225 211.789 200.886C209.614 203.369 207.367 205.701 205 208C204.46 208.56 203.92 209.121 203.363 209.699C194.167 218.524 180.924 223.258 168.356 223.24C167.271 223.243 167.271 223.243 166.163 223.245C163.754 223.249 161.345 223.238 158.936 223.227C157.172 223.226 155.409 223.226 153.646 223.227C148.939 223.228 144.233 223.216 139.526 223.202C135.103 223.191 130.681 223.19 126.259 223.189C113.339 223.178 100.42 223.15 87.5 223.125C58.625 223.083 29.75 223.042 0 223C0 149.41 0 75.8196 0 -0.000387907Z" fill="#B1202A"/>
<path d="M168 112C193.155 110.623 193.155 110.623 200.895 116.961C201.589 117.634 202.284 118.307 203 119C203.705 119.591 204.41 120.181 205.137 120.789C216.681 131.125 222.723 145.653 223.938 160.875C224.753 176.674 219.978 191.539 209.5 203.5C208.02 205.02 206.522 206.522 205 208C204.46 208.561 203.92 209.122 203.363 209.7C194.167 218.525 180.924 223.259 168.356 223.241C167.631 223.243 166.905 223.244 166.158 223.246C163.75 223.249 161.343 223.238 158.936 223.227C157.2 223.227 155.465 223.227 153.73 223.228C149.036 223.229 144.343 223.217 139.649 223.203C134.738 223.191 129.827 223.189 124.915 223.187C115.622 223.181 106.329 223.164 97.0365 223.144C84.4737 223.118 71.9109 223.107 59.3481 223.095C39.5654 223.077 19.7827 223.037 0 223C0 195.28 0 167.56 0 139C12.4678 138.846 12.4678 138.846 25.1875 138.688C27.8045 138.642 30.4216 138.597 33.1179 138.55C35.1971 138.535 37.2763 138.523 39.3555 138.512C40.4311 138.486 41.5067 138.461 42.6149 138.435C47.2354 138.432 50.1522 138.505 54.1902 140.864C56.8396 145.455 56.6717 149.449 56.6016 154.664C56.6096 155.693 56.6176 156.722 56.6258 157.783C56.6489 161.064 56.6394 164.344 56.625 167.625C56.6212 170.914 56.6245 174.201 56.6456 177.489C56.6577 179.534 56.655 181.578 56.6359 183.623C56.6396 184.547 56.6432 185.472 56.647 186.425C56.643 187.238 56.639 188.051 56.6349 188.889C56.8565 191.06 56.8565 191.06 58.2284 192.76C60.5138 194.36 61.9197 194.392 64.6992 194.42C65.6503 194.436 66.6014 194.452 67.5813 194.468C69.1189 194.469 69.1189 194.469 70.6875 194.469C72.2686 194.481 72.2686 194.481 73.8816 194.492C76.1108 194.503 78.3401 194.506 80.5693 194.501C83.9872 194.5 87.4028 194.542 90.8203 194.586C92.9844 194.592 95.1484 194.594 97.3125 194.594C98.8501 194.619 98.8501 194.619 100.419 194.644C105.751 194.717 105.751 194.717 110.147 192.114C111.39 187.575 111.381 183.276 111.336 178.59C111.348 176.528 111.361 174.467 111.375 172.405C111.379 169.163 111.375 165.922 111.36 162.681C111.352 159.546 111.373 156.412 111.398 153.278C111.385 152.308 111.372 151.338 111.358 150.339C111.403 146.214 111.432 143.793 113.871 140.387C118.479 138.345 122.676 138.475 127.664 138.532C128.693 138.525 129.722 138.518 130.782 138.51C134.063 138.488 137.344 138.491 140.625 138.5C144.951 138.512 149.276 138.499 153.602 138.469C155.097 138.486 155.097 138.486 156.622 138.503C157.547 138.497 158.472 138.49 159.424 138.483C160.238 138.486 161.051 138.489 161.889 138.492C164.17 138.167 164.17 138.167 165.759 136.125C167.271 133.536 167.425 131.784 167.512 128.797C167.547 127.818 167.583 126.838 167.619 125.828C167.653 124.305 167.653 124.305 167.688 122.75C167.722 121.719 167.756 120.688 167.791 119.625C167.873 117.084 167.943 114.543 168 112Z" fill="#1E376C"/>
<path d="M70.7852 27.5035C71.8378 27.502 72.8904 27.5006 73.975 27.4991C76.1983 27.5008 78.4216 27.5123 80.6448 27.533C84.0534 27.562 87.4605 27.5536 90.8691 27.5406C93.0287 27.5469 95.1882 27.5552 97.3477 27.566C98.3696 27.5631 99.3915 27.5601 100.444 27.5571C101.392 27.5698 102.34 27.5825 103.317 27.5955C104.151 27.6009 104.985 27.6064 105.844 27.6119C108.514 28.092 109.369 28.8649 111 30.9996C111.943 33.8287 112.129 35.5842 112.142 38.5152C112.152 39.8818 112.152 39.8818 112.163 41.276C112.167 42.2573 112.171 43.2386 112.176 44.2496C112.199 46.3225 112.223 48.3954 112.248 50.4683C112.283 53.7406 112.313 57.0124 112.326 60.2848C112.341 63.4402 112.382 66.5945 112.426 69.7496C112.424 70.7309 112.422 71.7122 112.42 72.7232C112.436 73.6343 112.453 74.5453 112.47 75.484C112.476 76.2854 112.482 77.0869 112.488 77.9127C112.846 80.1451 112.846 80.1451 114.738 81.7578C117.304 83.1664 118.811 83.377 121.721 83.3844C122.652 83.3945 123.583 83.4046 124.542 83.415C126.039 83.4105 126.039 83.4105 127.566 83.4058C129.112 83.4221 129.112 83.4221 130.689 83.4387C135.097 83.4846 139.505 83.4961 143.913 83.5108C147.131 83.5265 150.348 83.5595 153.566 83.5933C155.066 83.5888 155.066 83.5888 156.597 83.5842C157.989 83.5994 157.989 83.5994 159.408 83.6148C160.225 83.6169 161.041 83.6189 161.882 83.6211C164.574 84.1022 165.441 84.7632 167 86.9996C167.381 89.2004 167.381 89.2004 167.388 91.7906C167.398 92.7617 167.407 93.7328 167.417 94.7334C167.408 96.3037 167.408 96.3037 167.398 97.9058C167.403 99.5202 167.403 99.5202 167.407 101.167C167.409 103.444 167.404 105.72 167.391 107.996C167.375 111.486 167.391 114.975 167.41 118.464C167.408 120.674 167.404 122.884 167.398 125.093C167.405 126.14 167.411 127.187 167.417 128.266C167.403 129.722 167.403 129.722 167.388 131.209C167.386 132.063 167.383 132.918 167.381 133.799C167 136 167 136 165.763 137.775C163.504 139.344 162.148 139.377 159.408 139.384C158.481 139.394 157.553 139.405 156.597 139.415C155.597 139.412 154.597 139.409 153.566 139.406C152.537 139.417 151.507 139.428 150.447 139.439C147.152 139.473 143.857 139.489 140.562 139.5C136.23 139.514 131.899 139.548 127.566 139.593C126.568 139.59 125.57 139.587 124.542 139.584C123.146 139.599 123.146 139.599 121.721 139.615C120.495 139.618 120.495 139.618 119.245 139.621C116.385 140.103 115.035 140.941 113 143C112.407 145.108 112.407 145.108 112.502 147.483C112.492 148.388 112.482 149.293 112.471 150.225C112.479 151.2 112.488 152.175 112.496 153.179C112.487 154.184 112.477 155.189 112.468 156.224C112.439 159.441 112.436 162.658 112.438 165.875C112.434 169.084 112.424 172.294 112.397 175.503C112.38 177.501 112.377 179.499 112.39 181.497C112.348 186.983 112.084 190.915 108 195C106.518 195.113 105.03 195.159 103.544 195.177C102.122 195.196 102.122 195.196 100.671 195.215C99.1226 195.227 99.1226 195.227 97.543 195.238C96.4885 195.246 95.434 195.254 94.3475 195.262C92.1105 195.276 89.8735 195.287 87.6365 195.295C84.2123 195.312 80.7891 195.356 77.3652 195.4C75.1953 195.41 73.0254 195.419 70.8555 195.425C69.8293 195.443 68.8032 195.46 67.7459 195.478C63.8035 195.466 60.883 195.456 57.3508 193.631C55.1649 189.373 55.4776 185.183 55.5312 180.468C55.5242 179.44 55.5172 178.412 55.5099 177.353C55.4804 172.956 55.4971 168.559 55.5093 164.162C55.5117 160.951 55.4908 157.741 55.4688 154.531C55.4801 153.536 55.4914 152.541 55.5031 151.516C55.4962 150.588 55.4894 149.661 55.4824 148.705C55.4872 147.484 55.4872 147.484 55.4921 146.238C54.8022 143.1 53.5355 141.926 51 140C48.5518 139.39 48.5518 139.39 45.8643 139.454C44.8293 139.434 43.7943 139.414 42.728 139.394C41.6473 139.393 40.5666 139.391 39.4531 139.39C38.4546 139.375 37.456 139.359 36.4272 139.343C32.7017 139.29 28.9758 139.272 25.25 139.25C16.9175 139.167 8.585 139.085 0 139C0 120.85 0 102.7 0 83.9996C24.75 83.5621 24.75 83.5621 32.5498 83.4315C34.5905 83.3934 36.6312 83.3549 38.6719 83.316C40.2606 83.2913 40.2606 83.2913 41.8813 83.2661C42.896 83.2459 43.9107 83.2257 44.9561 83.2049C45.8354 83.1894 46.7148 83.1738 47.6208 83.1578C49.9223 83.0048 51.8454 82.8316 54 81.9996C54.95 79.1497 55.1292 77.3643 55.1418 74.408C55.1489 73.4802 55.1559 72.5524 55.1632 71.5964C55.1673 70.5964 55.1715 69.5963 55.1758 68.566C55.199 66.4521 55.2231 64.3381 55.248 62.2242C55.2832 58.8884 55.3125 55.5531 55.3259 52.2171C55.3414 48.9996 55.3816 45.7832 55.4258 42.566C55.4239 41.568 55.422 40.57 55.42 39.5417C55.4884 35.6822 55.5726 32.8248 57.3618 29.3702C61.6824 27.1256 65.991 27.4507 70.7852 27.5035Z" fill="#FEFEFE"/>
<path d="M285.189 12.6117C286.031 12.6022 286.873 12.5928 287.741 12.583C288.65 12.5891 289.559 12.5952 290.496 12.6014C291.44 12.5985 292.384 12.5957 293.356 12.5927C295.36 12.5907 297.363 12.5962 299.366 12.6087C302.395 12.6246 305.422 12.609 308.451 12.5897C322.087 12.5738 335.164 12.5902 346 21.9998C350.948 27.8363 352.292 33.9764 351.937 41.4373C351.305 47.0986 349.137 51.3115 346 55.9998C346.554 56.5799 347.109 57.16 347.68 57.7577C348.766 58.9294 348.766 58.9294 349.875 60.1248C350.954 61.2734 350.954 61.2734 352.055 62.4452C357.096 69.0653 356.833 77.0356 356 84.9998C354.207 91.2381 351.009 96.1806 345.458 99.6517C333.538 106.189 320.986 105.557 307.767 105.411C304.282 105.375 300.799 105.37 297.314 105.371C295.102 105.361 292.889 105.349 290.676 105.336C289.112 105.332 289.112 105.332 287.516 105.329C286.557 105.316 285.599 105.304 284.611 105.29C283.344 105.279 283.344 105.279 282.051 105.267C280 105 280 105 278 103C277.796 100.245 277.717 97.5904 277.725 94.8341C277.72 93.99 277.715 93.146 277.71 92.2764C277.696 89.4771 277.697 86.6781 277.699 83.8788C277.695 81.9382 277.691 79.9977 277.686 78.0572C277.679 73.9859 277.679 69.9147 277.684 65.8434C277.69 60.6197 277.673 55.3964 277.65 50.1728C277.635 46.164 277.634 42.1553 277.637 38.1464C277.637 36.2203 277.632 34.2941 277.622 32.368C277.609 29.6767 277.616 26.9862 277.628 24.295C277.62 23.4954 277.612 22.6958 277.604 21.872C277.655 16.5445 277.655 16.5445 279.261 14.0057C281.392 12.7728 282.73 12.6196 285.189 12.6117ZM300 33.9998C300 38.6198 300 43.2398 300 47.9998C303.73 48.0809 307.457 48.1404 311.187 48.1873C312.77 48.2251 312.77 48.2251 314.385 48.2635C315.406 48.2732 316.428 48.2829 317.48 48.2928C318.418 48.3085 319.355 48.3242 320.321 48.3404C323.541 47.931 325.397 46.9102 328 44.9998C329.252 42.6589 329.252 42.6589 329 39.9998C327.223 37.3043 325.907 35.4534 323 33.9998C321.26 33.9154 319.516 33.8926 317.773 33.9022C316.227 33.907 316.227 33.907 314.648 33.912C313.568 33.9203 312.488 33.9287 311.375 33.9373C310.287 33.9419 309.199 33.9464 308.078 33.951C305.385 33.9628 302.693 33.9808 300 33.9998ZM300 69.9998C300 74.9498 300 79.8998 300 84.9998C304.021 85.0811 308.041 85.1405 312.062 85.1873C313.196 85.2125 314.33 85.2376 315.498 85.2635C321.72 85.3179 326.621 85.3123 332 81.9998C333.413 78.6057 333.413 78.6057 333 74.9998C330.704 71.7686 328.811 70.6938 325 69.9998C323.048 69.9192 321.094 69.8922 319.141 69.9022C318.026 69.9054 316.911 69.9086 315.762 69.912C314.023 69.9245 314.023 69.9245 312.25 69.9373C311.076 69.9419 309.901 69.9464 308.691 69.951C305.794 69.9628 302.897 69.9807 300 69.9998Z" fill="#1D376C"/>
<path d="M479 13.0003C482.761 15.302 484.644 18.3314 487 22.0003C488.192 23.546 489.384 25.0913 490.594 26.6226C491.891 28.2713 493.164 29.9368 494.43 31.6097C496.503 34.348 498.59 37.0752 500.687 39.7958C502.793 42.5293 504.896 45.265 507 48.0003C507.892 49.1598 508.784 50.3193 509.676 51.4788C512.117 54.6527 514.559 57.8265 517 61.0003C517.008 60.4285 517.016 59.8566 517.024 59.2674C517.11 53.3303 517.21 47.3936 517.317 41.4569C517.356 39.2395 517.391 37.022 517.422 34.8045C517.467 31.6221 517.525 28.4402 517.586 25.2581C517.597 24.2622 517.609 23.2664 517.621 22.2403C517.641 21.3195 517.661 20.3987 517.681 19.45C517.694 18.6373 517.708 17.8245 517.721 16.9872C518 15.0003 518 15.0003 520 13.0003C522.958 12.5567 525.949 12.6762 528.937 12.6878C529.762 12.6717 530.586 12.6556 531.436 12.639C532.229 12.6383 533.022 12.6377 533.84 12.637C534.565 12.634 535.291 12.6311 536.039 12.628C538.748 13.1423 539.402 13.7235 541 16.0003C541.291 18.8387 541.399 21.4568 541.372 24.2955C541.376 25.1413 541.38 25.987 541.383 26.8585C541.391 29.6572 541.378 32.4555 541.363 35.2542C541.363 37.1957 541.363 39.1372 541.365 41.0787C541.365 45.1482 541.354 49.2176 541.336 53.2872C541.313 58.512 541.313 63.7365 541.32 68.9613C541.323 72.9701 541.316 76.9788 541.307 80.9875C541.303 82.9145 541.302 84.8415 541.303 86.7685C541.304 89.4573 541.291 92.1458 541.275 94.8345C541.277 95.6361 541.28 96.4378 541.282 97.2637C541.229 102.772 541.229 102.772 539 105C532.696 105.888 525.202 106.871 519.52 103.551C517.392 101.17 515.729 98.6874 514 96.0003C512.601 94.1017 511.171 92.229 509.74 90.3543C508.173 88.2941 506.63 86.2178 505.09 84.137C502.202 80.2523 499.246 76.4264 496.25 72.6253C495.839 72.1036 495.428 71.582 495.005 71.0445C491.026 66.0112 487.011 61.0078 483 56.0003C482.99 56.5994 482.979 57.1986 482.969 57.8158C482.861 64.0284 482.746 70.2408 482.628 76.4532C482.584 78.7744 482.543 81.0957 482.503 83.4171C482.445 86.7457 482.381 90.0742 482.316 93.4026C482.291 94.9698 482.291 94.9698 482.266 96.5686C482.246 97.5296 482.226 98.4905 482.205 99.4805C482.19 100.331 482.174 101.182 482.158 102.058C482 104 482 104 481 105C477.696 105.278 474.377 105.232 471.062 105.25C470.13 105.271 469.197 105.292 468.236 105.313C467.345 105.318 466.454 105.323 465.535 105.328C464.714 105.338 463.893 105.347 463.047 105.357C462.372 105.239 461.696 105.121 461 105C458.476 101.215 458.712 98.1981 458.725 93.8128C458.72 92.9784 458.715 92.144 458.71 91.2842C458.696 88.5229 458.697 85.7617 458.699 83.0003C458.695 81.0836 458.691 79.167 458.686 77.2503C458.679 73.232 458.679 69.2139 458.684 65.1956C458.69 60.0404 458.673 54.8855 458.65 49.7303C458.635 45.7721 458.634 41.814 458.637 37.8558C458.637 35.9547 458.632 34.0537 458.622 32.1527C458.609 29.4975 458.616 26.843 458.628 24.1878C458.62 23.3991 458.612 22.6105 458.604 21.7979C458.656 16.5271 458.656 16.5271 460.29 14.0267C465.203 11.0779 473.528 11.8317 479 13.0003Z" fill="#1D376C"/>
<path d="M632.856 21.1215C635.327 23.2867 636.211 24.8241 637 28.0004C635.782 30.3833 634.689 31.9793 633 34.0004C632.442 34.7017 631.884 35.4029 631.309 36.1254C626.782 41.6002 626.782 41.6002 624.16 42.9418C620.781 43.0335 618.761 41.3956 615.938 39.6254C608.425 34.9638 602.804 34.2807 594 35.0004C588.02 36.5147 584.729 39.9823 581.227 44.9028C576.994 52.141 576.804 60.3769 578.535 68.516C581.134 75.9586 585.196 79.5984 592 83.0004C600.521 85.6171 608.745 83.6371 617 81.0004C617 77.7004 617 74.4004 617 71.0004C615.64 71.012 614.28 71.0236 612.879 71.0356C611.107 71.045 609.335 71.0541 607.563 71.0629C606.665 71.0713 605.767 71.0797 604.842 71.0883C603.561 71.0931 603.561 71.0931 602.254 71.0981C601.463 71.1033 600.672 71.1085 599.858 71.1139C598 71.0004 598 71.0004 597 70.0004C596.914 68.5847 596.893 67.1648 596.902 65.7465C596.906 64.8925 596.909 64.0385 596.912 63.1586C596.925 61.8119 596.925 61.8119 596.938 60.4379C596.942 59.5362 596.947 58.6345 596.951 57.7055C596.963 55.4704 596.98 53.2354 597 51.0004C600.261 49.3699 603.855 49.8587 607.438 49.8676C608.273 49.8667 609.109 49.8657 609.971 49.8647C611.739 49.864 613.508 49.8659 615.276 49.87C617.989 49.8754 620.702 49.8701 623.414 49.8637C625.13 49.8644 626.846 49.8656 628.563 49.8676C629.784 49.8646 629.784 49.8646 631.031 49.8615C636.77 49.8855 636.77 49.8855 639 51.0004C640.915 56.7439 640.307 63.2528 640.35 69.278C640.367 70.9627 640.394 72.6474 640.432 74.3317C640.487 76.7698 640.509 79.2063 640.523 81.645C640.546 82.392 640.569 83.1391 640.592 83.9088C640.576 87.8506 640.077 90.3883 637.622 93.4128C627.063 103.834 611.329 107.092 597 107C585.844 106.471 573.687 101.591 565.516 93.77C555.342 81.8923 551.647 68.4044 552.773 53.0356C553.804 43.8082 557.412 36.2771 563 29.0004C563.866 27.701 563.866 27.701 564.75 26.3754C582.848 7.27154 611.766 7.81311 632.856 21.1215Z" fill="#1D376C"/>
<path d="M446.902 127.093C456.697 135.995 462.26 146.756 463.219 160.027C463.629 174.41 459.627 187.183 449.687 197.875C438.752 207.84 425.379 211.928 410.797 211.32C398.419 210.276 386.434 205.309 378 196C368.86 183.886 366.144 172.009 367 157C368.671 145.284 374.283 135.025 383 127C402.012 112.936 428.31 111.616 446.902 127.093ZM397.062 145.812C391.146 153.431 389.823 160.483 391 170C393.231 177.446 397.636 182.651 404 187C409.731 189.929 417.064 190.083 423.242 188.382C429.986 185.417 434.243 179.947 437.937 173.75C439.974 166.561 440.128 158.728 437.035 151.808C433.016 144.786 427.748 140.634 419.953 138.418C411.259 136.557 403.026 139.319 397.062 145.812Z" fill="#1D376C"/>
<path d="M812 21.0002C820.645 27.943 827.341 37.9256 829 49.0002C830.208 63.7508 829.154 76.519 819.976 88.6838C810.524 99.7612 799.446 105.285 785 107C770.228 107.375 758.371 103.398 747.312 93.6252C735.467 80.179 732.965 67.5096 734 50.0002C735.624 39.0001 742.637 27.9558 751.367 21.1564C770.229 8.2536 793.108 8.5094 812 21.0002ZM761.445 43.7385C756.779 51.0406 756.193 58.6424 758 67.0002C760.055 73.6571 764.279 78.149 770 82.0002C776.177 85.2393 782.273 85.8309 789 84.0002C796.124 80.9886 800.839 77.0947 804 70.0002C807.075 61.6523 806.552 54.0787 803 46.0002C799.083 39.8127 794.128 35.8163 787 34.0002C776.486 32.5417 768.099 35.3672 761.445 43.7385Z" fill="#1D376C"/>
<path d="M282.047 117.757C283.279 117.763 283.279 117.763 284.535 117.769C285.427 117.771 286.318 117.773 287.236 117.775C288.169 117.787 289.102 117.8 290.063 117.812C291.467 117.813 291.467 117.813 292.9 117.814C299.86 117.86 299.86 117.86 301 119C301.089 121.521 301.115 124.014 301.098 126.535C301.096 127.288 301.095 128.041 301.093 128.817C301.088 131.232 301.075 133.647 301.063 136.062C301.058 137.696 301.053 139.329 301.049 140.963C301.039 144.975 301.019 148.987 301 153C311.56 153 322.12 153 333 153C332.977 150.641 332.954 148.282 332.93 145.851C332.914 143.571 332.902 141.291 332.89 139.01C332.88 137.424 332.866 135.837 332.849 134.25C332.825 131.971 332.814 129.693 332.805 127.414C332.794 126.702 332.784 125.991 332.773 125.258C332.773 123.503 332.878 121.75 333 120C335 118 335 118 337.047 117.757C338.279 117.763 338.279 117.763 339.535 117.769C340.427 117.771 341.318 117.773 342.236 117.775C343.169 117.787 344.102 117.8 345.063 117.812C345.999 117.813 346.936 117.814 347.9 117.814C354.86 117.86 354.86 117.86 356 119C356.111 121.758 356.157 124.492 356.161 127.251C356.169 128.549 356.169 128.549 356.176 129.873C356.191 132.747 356.198 135.621 356.203 138.496C356.209 140.485 356.215 142.474 356.22 144.463C356.231 148.639 356.237 152.815 356.24 156.99C356.246 162.352 356.27 167.713 356.298 173.075C356.317 177.185 356.322 181.295 356.324 185.405C356.327 187.382 356.335 189.359 356.348 191.336C356.365 194.097 356.363 196.858 356.357 199.619C356.366 200.442 356.375 201.266 356.384 202.114C356.368 204.387 356.368 204.387 356 208C352.151 210.566 348.957 210.294 344.5 210.25C343.728 210.257 342.956 210.265 342.16 210.273C338.264 210.26 336.31 210.207 333 208C332.733 205.446 332.652 203.137 332.707 200.586C332.711 199.856 332.716 199.126 332.72 198.375C332.737 196.041 332.774 193.708 332.813 191.375C332.828 189.794 332.841 188.213 332.854 186.633C332.884 182.754 332.943 178.878 333 175C322.44 175 311.88 175 301 175C301.023 177.359 301.046 179.718 301.07 182.148C301.086 184.428 301.098 186.709 301.11 188.989C301.12 190.576 301.134 192.163 301.151 193.75C301.175 196.028 301.187 198.307 301.195 200.586C301.206 201.297 301.216 202.009 301.227 202.742C301.227 204.496 301.122 206.25 301 208C298.237 210.763 296.345 210.288 292.572 210.322C291.33 210.317 291.33 210.317 290.063 210.312C289.238 210.328 288.414 210.344 287.565 210.361C286.771 210.362 285.978 210.362 285.16 210.363C284.435 210.366 283.709 210.369 282.961 210.372C280.252 209.858 279.598 209.277 278 207C277.709 204.161 277.601 201.543 277.628 198.705C277.624 197.859 277.62 197.013 277.617 196.142C277.609 193.343 277.622 190.545 277.637 187.746C277.637 185.804 277.637 183.863 277.635 181.921C277.635 177.852 277.646 173.782 277.664 169.713C277.687 164.488 277.687 159.264 277.68 154.039C277.677 150.03 277.684 146.021 277.693 142.013C277.697 140.086 277.698 138.159 277.697 136.232C277.697 133.543 277.709 130.854 277.725 128.166C277.723 127.364 277.72 126.562 277.718 125.736C277.79 118.262 277.79 118.262 282.047 117.757Z" fill="#1D376C"/>
<path d="M661.16 12.6364C662.35 12.6373 662.35 12.6373 663.564 12.6383C664.389 12.6544 665.213 12.6705 666.062 12.6871C666.891 12.6839 667.719 12.6807 668.572 12.6774C674.733 12.7325 674.733 12.7325 677 14.9996C677.245 17.4314 677.373 19.7583 677.414 22.195C677.433 22.9024 677.453 23.6098 677.473 24.3387C677.533 26.6006 677.579 28.8625 677.625 31.1246C677.663 32.6572 677.702 34.1898 677.742 35.7223C677.838 39.4812 677.922 43.2403 678 46.9996C688.046 37.1572 688.046 37.1572 697.48 26.7379C699.693 24.2073 702.098 21.8873 704.5 19.5387C706.131 17.9359 706.131 17.9359 707.75 15.6246C709 13.9996 709 13.9996 712 12.9996C715.517 12.7712 719.039 12.8145 722.562 12.8121C723.534 12.7999 724.505 12.7877 725.506 12.775C726.433 12.7731 727.361 12.7712 728.316 12.7692C729.592 12.763 729.592 12.763 730.893 12.7567C733 12.9996 733 12.9996 735 14.9996C735.408 17.9739 735.402 19.4343 733.642 21.9091C733.017 22.5023 732.391 23.0955 731.746 23.7067C730.711 24.7112 730.711 24.7112 729.654 25.736C728.923 26.4211 728.191 27.1062 727.437 27.8121C726.017 29.1702 724.599 30.5309 723.184 31.8942C722.482 32.5692 721.781 33.2441 721.058 33.9396C718.424 36.5763 715.999 39.3616 713.574 42.1898C711.506 44.5675 709.307 46.7895 707.062 48.9996C706.29 49.7628 705.518 50.5259 704.723 51.3121C704.154 51.869 703.586 52.4259 703 52.9996C705.964 58.5161 709.414 63.2973 713.312 68.1871C714.553 69.7655 715.793 71.345 717.031 72.9254C717.998 74.1583 717.998 74.1583 718.984 75.4161C722.463 79.8751 725.897 84.3671 729.312 88.8746C730.291 90.1492 730.291 90.1492 731.288 91.4496C731.891 92.2473 732.493 93.045 733.113 93.8668C733.647 94.5692 734.181 95.2716 734.732 95.9952C736.051 98.0807 736.752 99.5441 737 102C735 105 735 105 732.804 105.515C714.724 106.611 714.724 106.611 708.969 103.207C707.102 100.892 705.587 98.5661 704.158 95.9616C701.682 91.7667 698.602 87.958 695.687 84.0621C695.087 83.2335 694.487 82.4049 693.869 81.5512C691.126 77.7644 688.483 74.1555 685 70.9996C681.302 74.1912 678.414 77.1136 677.345 81.9874C677.126 85.3195 677.079 88.5984 677.125 91.9371C677.11 94.1963 677.092 96.4554 677.07 98.7145C677.082 100.201 677.082 100.201 677.094 101.718C677 104 677 104 676 105C672.696 105.277 669.377 105.231 666.062 105.25C665.13 105.27 664.197 105.291 663.236 105.312C662.345 105.317 661.454 105.322 660.535 105.328C659.714 105.337 658.893 105.346 658.047 105.356C657.372 105.238 656.696 105.121 656 105C653.476 101.214 653.712 98.1974 653.725 93.8121C653.72 92.9777 653.715 92.1433 653.71 91.2836C653.696 88.5222 653.697 85.7611 653.699 82.9996C653.695 81.083 653.691 79.1663 653.686 77.2496C653.679 73.2314 653.679 69.2132 653.684 65.195C653.69 60.0397 653.673 54.8848 653.65 49.7296C653.635 45.7714 653.634 41.8133 653.637 37.8551C653.637 35.9541 653.632 34.053 653.622 32.152C653.609 29.4968 653.616 26.8423 653.628 24.1871C653.62 23.3985 653.612 22.6098 653.604 21.7973C653.656 16.488 653.656 16.488 655.401 14.0112C657.442 12.7202 658.752 12.6265 661.16 12.6364Z" fill="#1D376C"/>
<path d="M847.428 12.6777C848.67 12.6826 848.67 12.6826 849.938 12.6875C850.762 12.6714 851.586 12.6553 852.436 12.6387C853.229 12.638 854.023 12.6374 854.84 12.6367C855.566 12.6337 856.291 12.6308 857.039 12.6277C859 13 859 13 860.728 14.0806C862.671 17.0115 862.441 19.5895 862.512 23.0742C862.539 24.1 862.539 24.1 862.566 25.1464C862.62 27.3267 862.654 29.5068 862.688 31.6875C862.721 33.1673 862.755 34.6472 862.791 36.127C862.876 39.7511 862.943 43.3753 863 47C863.691 46.2428 864.381 45.4857 865.093 44.7056C868.053 41.4625 871.024 38.2293 874 35C874.621 34.3261 875.241 33.6523 875.881 32.958C877.833 30.8427 879.791 28.7332 881.75 26.625C882.363 25.9598 882.976 25.2947 883.608 24.6094C885.378 22.7112 887.183 20.8534 889 19C889.538 18.4086 890.076 17.8173 890.63 17.208C893.994 13.8324 896.409 12.6236 901.207 12.3438C903.076 12.3648 904.945 12.4175 906.813 12.5C907.766 12.5103 908.719 12.5206 909.701 12.5312C916.69 12.6897 916.69 12.6897 919 15C919.379 17.3555 919.379 17.3555 919 20C917.278 22.1758 917.278 22.1758 914.938 24.3125C912.022 27.0093 909.307 29.7532 906.719 32.7617C902.869 37.218 898.75 41.3623 894.563 45.5C893.831 46.227 893.1 46.9541 892.346 47.7031C890.566 49.4711 888.784 51.2367 887 53C890.309 58.0445 893.655 62.9958 897.375 67.75C898.227 68.8459 899.079 69.9423 899.93 71.0391C900.404 71.6491 900.878 72.2592 901.366 72.8877C904.766 77.2833 908.131 81.7057 911.5 86.125C912.561 87.5128 912.561 87.5128 913.642 88.9287C914.307 89.8004 914.972 90.6722 915.656 91.5703C916.253 92.3516 916.849 93.133 917.463 93.938C921.033 98.7266 921.033 98.7266 920.688 101.625C920 104 920 104 919 105C911.544 106.486 903.366 107.07 896 105C890.344 101.209 886.964 95.2153 883.525 89.4771C881.135 85.5939 878.371 82.0097 875.625 78.375C874.075 76.2559 872.538 74.1279 871 72C867.606 73.4547 865.371 75.1601 863 78C862.396 80.6447 862.396 80.6447 862.461 83.5352C862.438 84.5915 862.415 85.6479 862.391 86.7363C862.386 87.834 862.38 88.9316 862.375 90.0625C862.35 92.241 862.316 94.4194 862.274 96.5977C862.268 97.562 862.262 98.5263 862.256 99.5198C862 102 862 102 860 105C857.953 105.356 857.953 105.356 855.465 105.328C854.128 105.32 854.128 105.32 852.764 105.312C851.831 105.292 850.899 105.271 849.938 105.25C848.533 105.242 848.533 105.242 847.1 105.234C840.154 105.154 840.154 105.154 839 104C838.894 101.241 838.853 98.5076 838.855 95.7483C838.852 94.8833 838.848 94.0183 838.845 93.1271C838.835 90.2527 838.833 87.3783 838.832 84.5039C838.829 82.5147 838.826 80.5255 838.822 78.5364C838.816 74.3607 838.814 70.1851 838.815 66.0095C838.815 60.6479 838.801 55.2865 838.784 49.9249C838.773 45.8149 838.771 41.705 838.771 37.595C838.77 35.6178 838.766 33.6405 838.758 31.6633C838.748 28.9025 838.751 26.1419 838.757 23.3811C838.752 22.5576 838.746 21.7342 838.74 20.8858C838.782 13.4422 840.602 12.7388 847.428 12.6777Z" fill="#1D376C"/>
<path d="M536.188 124.125C538.327 125.658 540.136 127.136 542 129C542.536 132.382 542.084 133.85 540.391 136.86C539.331 138.291 539.331 138.291 538.25 139.75C537.206 141.197 537.206 141.197 536.141 142.672C534 145 534 145 532.141 146.008C528.816 145.996 526.452 144.594 523.5 143.125C517.845 140.336 513.795 138.854 507.5 138.75C506.562 138.725 505.623 138.699 504.656 138.672C501.598 139.05 500.266 139.97 498 142C498.188 144.445 498.188 144.445 499 147C500.697 148.309 500.697 148.309 503 149C503.897 149.321 504.794 149.642 505.719 149.973C508.892 150.967 512.077 151.895 515.276 152.804C526.429 155.981 536.24 158.86 543 169C546.387 175.683 546.063 184.546 544.348 191.735C541.124 199.76 535.774 204.477 527.938 207.875C514.653 213.147 500.215 211.866 487 207C480.816 204.094 474.036 200.681 470 195C470.456 188.707 474.677 184.269 479 180C482.375 178.438 482.375 178.438 486 179C488.692 180.606 491.158 182.385 493.656 184.278C499.115 188.29 506.594 189.61 513.285 188.684C516.506 187.942 518.632 187.368 521 185C520.986 182.454 520.986 182.454 520 180C518.339 178.69 518.339 178.69 516.062 178C515.168 177.679 514.273 177.358 513.352 177.028C510.023 176.007 506.68 175.091 503.315 174.196C492.11 171.211 482.668 168.215 476 158C473.035 150.788 472.657 142.616 474.84 135.114C478.386 127.317 483.967 122.064 491.75 118.563C506.124 113.938 523.584 115.989 536.188 124.125Z" fill="#1D376C"/>
<path d="M797.438 116.75C798.603 116.719 798.603 116.719 799.791 116.688C805.49 116.649 805.49 116.649 807.535 118.059C809.694 120.92 810.992 124.104 812.379 127.383C812.866 128.509 812.866 128.509 813.363 129.658C814.436 132.144 815.5 134.635 816.563 137.125C818.082 140.662 819.606 144.196 821.129 147.731C821.523 148.646 821.916 149.562 822.322 150.505C825.192 157.169 828.127 163.803 831.09 170.426C831.92 172.287 832.749 174.148 833.578 176.01C834.78 178.708 835.985 181.405 837.201 184.097C838.332 186.601 839.448 189.111 840.563 191.621C840.897 192.353 841.232 193.085 841.577 193.839C843.671 198.6 844.768 202.781 845 208C842.18 210.82 840.071 210.29 836.217 210.323C835.341 210.319 834.465 210.316 833.563 210.313C832.691 210.329 831.819 210.345 830.92 210.362C829.662 210.363 829.662 210.363 828.379 210.364C827.612 210.367 826.844 210.37 826.053 210.373C823.423 209.896 822.626 209.096 821 207C820.017 205.099 820.017 205.099 819.176 202.989C818.761 201.964 818.761 201.964 818.337 200.92C817.999 200.059 817.661 199.199 817.313 198.313C816.22 195.57 815.127 192.827 814 190C802.78 189.67 791.56 189.34 780 189C779.67 190.65 779.34 192.3 779 194C778.089 196.432 777.146 198.805 776.125 201.188C775.74 202.131 775.74 202.131 775.348 203.092C773.901 206.491 773.153 207.899 770 210C768.039 210.259 768.039 210.259 765.84 210.266C765.047 210.269 764.253 210.271 763.436 210.274C762.611 210.266 761.787 210.258 760.938 210.25C760.11 210.258 759.281 210.266 758.428 210.274C757.636 210.271 756.844 210.269 756.028 210.266C755.303 210.264 754.579 210.262 753.832 210.259C752 210 752 210 750 208C749.593 203.609 750.286 200.648 752.141 196.688C752.625 195.634 753.109 194.581 753.608 193.496C754.15 192.342 754.692 191.189 755.25 190C756.438 187.425 757.616 184.846 758.793 182.266C759.116 181.562 759.439 180.857 759.771 180.131C764.516 169.737 769.022 159.235 773.563 148.75C774.864 145.748 776.166 142.745 777.469 139.743C778.256 137.926 779.043 136.11 779.83 134.293C780.539 132.657 781.25 131.021 781.963 129.387C782.681 127.736 783.388 126.079 784.087 124.419C784.436 123.602 784.785 122.785 785.145 121.943C785.454 121.209 785.763 120.474 786.081 119.718C788.285 115.599 793.352 116.777 797.438 116.75ZM797 150C795.827 152.435 794.661 154.872 793.5 157.313C793.166 158.003 792.833 158.693 792.489 159.405C790.527 163.52 790.527 163.52 790 168C794.95 168 799.9 168 805 168C803.585 163.754 802.11 159.733 800.375 155.625C799.706 154.036 799.706 154.036 799.024 152.414C798.686 151.618 798.348 150.821 798 150C797.67 150 797.34 150 797 150Z" fill="#1D376C"/>
<path d="M395 13C401.6 13 408.2 13 415 13C422.569 29.6362 430.075 46.2934 437.282 63.0901C439.895 69.1746 442.546 75.2366 445.293 81.2617C445.812 82.4091 446.331 83.5566 446.866 84.7388C447.846 86.8972 448.836 89.0508 449.839 91.1987C450.271 92.1554 450.703 93.112 451.148 94.0977C451.723 95.343 451.723 95.343 452.31 96.6135C453.134 99.4624 452.847 101.184 452 104C451 105 451 105 448.959 105.114C448.084 105.108 447.21 105.103 446.309 105.098C445.364 105.094 444.42 105.091 443.447 105.088C442.454 105.08 441.461 105.071 440.438 105.062C439.44 105.058 438.443 105.053 437.416 105.049C434.944 105.037 432.472 105.021 430 105C429.035 102.982 428.078 100.961 427.125 98.9375C426.591 97.8121 426.058 96.6868 425.508 95.5273C424 92 424 92 422 85C410.78 85.33 399.56 85.66 388 86C385.41 91.8777 385.41 91.8777 382.824 97.7576C382.502 98.486 382.18 99.2144 381.848 99.9648C381.518 100.714 381.188 101.463 380.848 102.234C380 104 380 104 379 105C375.695 105.25 372.376 105.185 369.062 105.188C368.13 105.2 367.197 105.212 366.236 105.225C364.899 105.228 364.899 105.228 363.535 105.23C362.714 105.235 361.893 105.239 361.047 105.243C359 105 359 105 357 103C357.356 98.7285 358.591 95.1933 360.309 91.293C361.045 89.6068 361.045 89.6068 361.797 87.8865C362.343 86.6534 362.89 85.4204 363.438 84.1875C364.008 82.889 364.578 81.5903 365.147 80.2913C366.399 77.4367 367.655 74.584 368.914 71.7324C371.173 66.6131 373.415 61.4863 375.656 56.3594C377.249 52.7185 378.843 49.0779 380.438 45.4375C380.819 44.565 381.201 43.6925 381.595 42.7935C385.966 32.8148 390.395 22.8736 395 13ZM404 46C402.829 48.6231 401.663 51.2483 400.5 53.875C400.166 54.6214 399.832 55.3677 399.488 56.1367C399.172 56.8521 398.857 57.5676 398.531 58.3047C398.091 59.2944 398.091 59.2944 397.643 60.3042C396.882 62.0095 396.882 62.0095 397 64C402.28 64 407.56 64 413 64C411.883 61.184 410.757 58.3724 409.625 55.5625C409.308 54.7601 408.991 53.9576 408.664 53.1309C408.355 52.3671 408.045 51.6033 407.727 50.8164C407.444 50.1094 407.161 49.4025 406.87 48.6741C406.109 46.8099 406.109 46.8099 404 46Z" fill="#1D376C"/>
<path d="M563.254 117.823C564.159 117.81 565.065 117.798 565.997 117.784C566.986 117.777 567.974 117.77 568.993 117.762C570.008 117.754 571.024 117.746 572.07 117.738C574.231 117.724 576.392 117.713 578.552 117.705C581.827 117.688 585.101 117.644 588.375 117.6C590.477 117.59 592.579 117.581 594.68 117.575C596.132 117.548 596.132 117.548 597.614 117.521C607.887 117.554 617.58 120.677 625 128C631.248 135.501 633.499 142.744 633.246 152.422C632.477 160.479 629.72 167.218 624 173C613.872 181.272 603.396 183.181 590.625 183.063C589.699 183.058 588.772 183.054 587.817 183.049C585.545 183.037 583.273 183.021 581 183C581.016 183.712 581.032 184.423 581.048 185.156C581.11 188.375 581.149 191.594 581.188 194.813C581.213 195.932 581.238 197.052 581.264 198.205C581.274 199.279 581.283 200.352 581.293 201.457C581.309 202.447 581.325 203.437 581.341 204.457C581 207 581 207 579.742 208.824C577.608 210.265 576.401 210.374 573.84 210.364C573.047 210.363 572.253 210.362 571.436 210.362C570.612 210.346 569.787 210.329 568.938 210.313C568.11 210.316 567.281 210.319 566.428 210.323C560.268 210.267 560.268 210.267 558 208C557.807 205.174 557.738 202.446 557.757 199.619C557.756 198.752 557.754 197.886 557.752 196.993C557.748 194.119 557.759 191.245 557.77 188.371C557.771 186.381 557.772 184.391 557.771 182.401C557.773 178.227 557.781 174.053 557.795 169.879C557.812 164.517 557.815 159.154 557.815 153.791C557.815 149.681 557.82 145.571 557.828 141.462C557.831 139.483 557.833 137.505 557.834 135.527C557.836 132.769 557.844 130.01 557.855 127.252C557.855 126.427 557.854 125.601 557.854 124.751C557.893 117.889 557.893 117.889 563.254 117.823ZM581 139C581 146.26 581 153.52 581 161C584.177 161.083 587.353 161.165 590.625 161.25C592.11 161.305 592.11 161.305 593.624 161.361C599.258 161.431 602.591 160.867 607 157C609.47 153.296 609.663 150.297 609 146C607.05 142.411 605.748 141.272 601.907 139.875C597.622 138.74 593.467 138.778 589.063 138.875C586.402 138.917 583.742 138.958 581 139Z" fill="#1D376C"/>
<path d="M689.875 117.855C690.953 117.85 690.953 117.85 692.053 117.845C694.44 117.835 696.828 117.833 699.215 117.832C700.868 117.829 702.521 117.826 704.174 117.822C707.643 117.816 711.113 117.814 714.582 117.815C719.036 117.815 723.489 117.802 727.943 117.784C731.358 117.773 734.773 117.771 738.188 117.772C739.83 117.77 741.473 117.766 743.115 117.758C745.409 117.749 747.702 117.751 749.996 117.757C751.303 117.756 752.61 117.755 753.957 117.753C757 118 757 118 759 120C759.226 122.856 759.325 125.583 759.313 128.438C759.329 129.215 759.345 129.991 759.362 130.791C759.366 136.456 759.366 136.456 757.838 138.728C755.245 140.523 753.371 140.341 750.239 140.293C749.12 140.284 748.002 140.274 746.85 140.264C745.683 140.239 744.515 140.214 743.313 140.188C742.134 140.174 740.955 140.161 739.741 140.147C736.827 140.111 733.914 140.062 731 140C731.007 140.833 731.014 141.666 731.02 142.524C731.081 150.367 731.126 158.209 731.156 166.052C731.171 170.084 731.193 174.116 731.227 178.149C731.259 182.039 731.277 185.929 731.285 189.82C731.29 191.305 731.301 192.79 731.317 194.275C731.339 196.353 731.342 198.431 731.341 200.509C731.348 201.693 731.354 202.877 731.361 204.096C731 207 731 207 729.602 208.883C727.559 210.308 726.319 210.374 723.84 210.364C723.047 210.363 722.253 210.362 721.436 210.362C720.611 210.346 719.787 210.329 718.938 210.313C718.11 210.316 717.281 210.319 716.428 210.323C710.267 210.267 710.267 210.267 708 208C707.76 205.178 707.76 205.178 707.773 201.531C707.773 200.868 707.773 200.204 707.772 199.52C707.774 197.324 707.789 195.127 707.805 192.93C707.809 191.408 707.812 189.887 707.814 188.365C707.821 184.357 707.841 180.349 707.863 176.341C707.883 172.252 707.893 168.163 707.903 164.075C707.924 156.05 707.958 148.025 708 140C707.284 140.011 706.567 140.021 705.829 140.032C702.594 140.074 699.36 140.1 696.125 140.125C694.997 140.142 693.869 140.159 692.707 140.176C691.093 140.186 691.093 140.186 689.446 140.196C687.953 140.211 687.953 140.211 686.43 140.227C684 140 684 140 682 138C681.757 136.045 681.757 136.045 681.77 133.684C681.772 132.838 681.774 131.991 681.776 131.12C681.788 130.235 681.8 129.35 681.813 128.438C681.813 127.549 681.814 126.66 681.815 125.745C681.866 118.225 681.966 117.878 689.875 117.855Z" fill="#1D376C"/>
<path d="M865.938 117.75C867.337 117.719 867.337 117.719 868.764 117.688C869.655 117.683 870.547 117.677 871.465 117.672C872.697 117.658 872.697 117.658 873.953 117.644C874.629 117.761 875.304 117.879 876 118C878.404 121.605 878.244 123.207 878.227 127.491C878.228 128.145 878.228 128.799 878.228 129.473C878.227 131.632 878.211 133.79 878.196 135.949C878.192 137.447 878.189 138.945 878.187 140.443C878.18 144.384 878.16 148.324 878.138 152.265C878.114 156.994 878.104 161.723 878.093 166.452C878.073 173.635 878.035 180.817 878 188C891.86 188 905.72 188 920 188C921.636 191.27 921.227 194.848 921.25 198.438C921.271 199.214 921.292 199.991 921.313 200.791C921.352 206.474 921.352 206.474 919.849 208.723C917.218 210.54 915.274 210.374 912.092 210.372C910.27 210.382 910.27 210.382 908.411 210.391C906.443 210.378 906.443 210.378 904.434 210.363C903.075 210.363 901.717 210.363 900.358 210.365C897.513 210.365 894.667 210.354 891.822 210.336C888.171 210.314 884.52 210.313 880.869 210.32C878.065 210.323 875.261 210.317 872.456 210.307C870.454 210.301 868.452 210.302 866.45 210.304C865.239 210.294 864.028 210.285 862.779 210.275C861.709 210.27 860.639 210.266 859.537 210.261C857 210 857 210 855 208C854.807 205.174 854.738 202.446 854.757 199.619C854.756 198.752 854.754 197.886 854.752 196.993C854.748 194.119 854.759 191.245 854.77 188.371C854.771 186.381 854.772 184.391 854.771 182.401C854.773 178.227 854.781 174.053 854.795 169.879C854.812 164.517 854.815 159.154 854.815 153.791C854.815 149.681 854.82 145.571 854.828 141.461C854.831 139.483 854.833 137.505 854.834 135.527C854.836 132.769 854.844 130.01 854.855 127.252C854.855 126.426 854.854 125.601 854.854 124.75C854.903 116.088 858.299 117.792 865.938 117.75Z" fill="#1D376C"/>
<path d="M646 118C652.93 118 659.86 118 667 118C668.61 121.22 668.156 124.736 668.161 128.273C668.166 129.129 668.171 129.984 668.176 130.866C668.19 133.702 668.197 136.538 668.203 139.375C668.209 141.34 668.214 143.306 668.22 145.271C668.231 149.394 668.236 153.516 668.24 157.639C668.245 162.932 668.269 168.225 668.298 173.518C668.316 177.577 668.322 181.637 668.323 185.696C668.326 187.648 668.334 189.6 668.347 191.552C668.364 194.277 668.363 197.002 668.356 199.727C668.365 200.539 668.375 201.352 668.384 202.189C668.367 204.432 668.367 204.432 668 208C664.15 210.566 660.957 210.295 656.5 210.25C655.728 210.258 654.955 210.265 654.16 210.273C650.263 210.26 648.31 210.207 645 208C644.708 205.17 644.611 202.559 644.643 199.727C644.641 198.871 644.639 198.016 644.637 197.134C644.634 194.298 644.653 191.462 644.672 188.625C644.675 186.66 644.676 184.694 644.677 182.729C644.682 178.606 644.696 174.484 644.718 170.361C644.747 165.068 644.758 159.775 644.762 154.482C644.766 150.423 644.776 146.363 644.788 142.304C644.794 140.352 644.798 138.4 644.802 136.448C644.809 133.723 644.823 130.998 644.839 128.273C644.84 127.461 644.841 126.648 644.842 125.811C644.885 120.229 644.885 120.229 646 118Z" fill="#1D376C"/>
<path d="M56 33C56.1014 39.4777 56.1715 45.9553 56.2197 52.4336C56.2398 54.6374 56.2671 56.8412 56.3018 59.0449C56.3503 62.2124 56.373 65.3791 56.3906 68.5469C56.4113 69.5324 56.4319 70.518 56.4532 71.5334C56.4535 72.454 56.4538 73.3747 56.4541 74.3232C56.463 75.1315 56.4719 75.9398 56.481 76.7726C55.8035 79.91 54.5346 81.0807 52 83C49.5828 83.481 49.5828 83.481 46.8643 83.4541C45.3331 83.4536 45.3331 83.4536 43.7711 83.4532C42.6761 83.4325 41.5812 83.4119 40.4531 83.3906C39.3268 83.385 38.2004 83.3793 37.04 83.3735C33.4429 83.3511 29.8468 83.3009 26.25 83.25C23.8112 83.2299 21.3724 83.2117 18.9336 83.1953C12.9554 83.1512 6.97777 83.0843 1 83C3.82028 79.5771 6.45591 76.407 9.875 73.5625C12.5309 71.2995 15.0579 68.9922 17.5 66.5C19.8109 64.1444 22.1844 61.9308 24.6875 59.7812C29.0713 55.9701 33.2909 52.0021 37.5 48C41.7581 43.9513 46.0324 39.9239 50.4062 36C51.0488 35.4225 51.6914 34.845 52.3535 34.25C54 33 54 33 56 33Z" fill="#6A1B33"/>
<path d="M320 254C326.466 253.907 326.466 253.907 333.062 253.812C334.408 253.785 335.754 253.758 337.141 253.73C345.317 253.673 350.455 254.134 356.938 259.375C359.993 263.402 359.62 268.069 359.426 272.922C358.843 277.136 357.998 279.002 355 282C352.859 282.641 352.859 282.641 351 283C354.15 288.791 357.445 294.448 361 300C356.146 300.736 351.822 301.043 347 300C343.343 296.491 341.057 292.613 339 288C339 287.34 339 286.68 339 286C336.69 286 334.38 286 332 286C332 290.62 332 295.24 332 300C328.04 300 324.08 300 320 300C320 284.82 320 269.64 320 254ZM332 264C332 267.96 332 271.92 332 276C334.846 276.093 334.846 276.093 337.75 276.187C338.817 276.222 339.885 276.257 340.984 276.293C344.338 275.967 345.662 275.389 348 273C348.667 270 348.667 270 348 267C345.662 264.611 344.338 264.033 340.984 263.707C339.383 263.759 339.383 263.759 337.75 263.812C335.852 263.874 333.955 263.936 332 264Z" fill="#768794"/>
<path d="M385.504 253.902C387.018 253.92 387.018 253.92 388.562 253.938C389.574 253.947 390.586 253.956 391.629 253.965C392.803 253.982 392.803 253.982 394 254C396.708 260.389 399.414 266.78 402.118 273.171C403.039 275.347 403.96 277.523 404.882 279.698C406.204 282.818 407.524 285.938 408.844 289.059C409.467 290.527 409.467 290.527 410.103 292.026C410.484 292.927 410.864 293.827 411.256 294.756C411.593 295.553 411.931 296.35 412.279 297.171C413 299 413 299 413 300C409.04 300 405.08 300 401 300C399.68 297.03 398.36 294.06 397 291C391.06 290.67 385.12 290.34 379 290C378.526 291.464 378.051 292.929 377.562 294.438C376.125 298.875 376.125 298.875 375 300C373.147 300.072 371.292 300.084 369.438 300.062C368.426 300.053 367.414 300.044 366.371 300.035C365.589 300.024 364.806 300.012 364 300C364.696 294.918 366.773 290.469 368.781 285.797C369.155 284.918 369.528 284.04 369.913 283.135C370.701 281.285 371.491 279.436 372.284 277.588C373.501 274.748 374.71 271.906 375.918 269.062C376.684 267.265 377.451 265.469 378.219 263.672C378.582 262.818 378.946 261.964 379.32 261.084C379.826 259.907 379.826 259.907 380.342 258.706C380.639 258.013 380.935 257.319 381.241 256.605C382.44 254.07 382.562 254.017 385.504 253.902ZM387 269C385.68 272.63 384.36 276.26 383 280C386.3 280 389.6 280 393 280C391.68 276.37 390.36 272.74 389 269C388.34 269 387.68 269 387 269Z" fill="#768794"/>
<path d="M410 254C422.87 254 435.74 254 449 254C449 257.3 449 260.6 449 264C444.38 264 439.76 264 435 264C435 275.88 435 287.76 435 300C431.37 300 427.74 300 424 300C424 288.12 424 276.24 424 264C419.38 264 414.76 264 410 264C410 260.7 410 257.4 410 254Z" fill="#768794"/>
<path d="M275 254C287.87 254 300.74 254 314 254C314 257.3 314 260.6 314 264C309.38 264 304.76 264 300 264C300 275.88 300 287.76 300 300C296.37 300 292.74 300 289 300C289 288.12 289 276.24 289 264C284.38 264 279.76 264 275 264C275 260.7 275 257.4 275 254Z" fill="#768794"/>
</g>
<defs>
<clipPath id="clip0_4228_23555">
<rect width="921" height="300" fill="white"/>
</clipPath>
</defs>
</svg>
