<?xml version="1.0" encoding="UTF-8"?><svg id="b" xmlns="http://www.w3.org/2000/svg" width="240" height="293.77" viewBox="0 0 240 293.77"><defs><style>.d{fill:#5ab024;}.e{fill:#fff;}.f{fill:#e75806;}.g{fill:#123c26;}</style></defs><g id="c"><path class="f" d="M7.93,239.62v-11.11c0-.54.31-1.09.93-1.63.6-.54,1.3-.83,2.1-.83.54,0,1.11.18,1.71.54.6.39,1.11.93,1.55,1.66v9.14h12.38v-8.89c0-.73.26-1.3.83-1.71.57-.39,1.19-.6,1.94-.6.93,0,1.74.26,2.44.78.7.52,1.06,1.24,1.06,2.2v23c0,.96-.36,1.71-1.06,2.28-.6.52-1.35.75-2.23.75-.83,0-1.53-.21-2.07-.65-.6-.52-.91-1.22-.91-2.07v-9.2h-12.38v9.2c0,.8-.31,1.48-.98,2.05-.65.54-1.37.8-2.15.8s-1.45-.26-2.05-.75c-.62-.49-.99-1.22-1.11-2.1v-12.87ZM42.64,241.54c0,3.81.99,6.92,2.95,9.3,1.5,1.81,3.55,3.16,6.09,4.02,1.66.57,3.26.85,4.79.85,3.32,0,6.11-.88,8.37-2.59,1.89-1.48,3.32-3.42,4.27-5.85.78-2.02,1.17-4.14,1.17-6.4v-.62c0-4.97-1.48-8.81-4.46-11.42-2.51-2.25-5.62-3.37-9.35-3.37-3.96,0-7.2,1.27-9.77,3.78-2.8,2.75-4.17,6.61-4.17,11.58l.1.73M49.56,240.87c0-.13-.05-.36-.13-.7,0-2.41.65-4.4,1.97-6.04,1.29-1.63,3.03-2.44,5.16-2.44h.49c2,0,3.55.75,4.69,2.28,1.11,1.53,1.68,3.81,1.68,6.89,0,2.51-.6,4.56-1.79,6.11-1.29,1.63-2.98,2.46-5.15,2.46s-3.89-.75-5.1-2.25c-1.22-1.5-1.81-3.63-1.81-6.32M79.29,235.03c0,2.02.7,3.68,2.05,4.97.98.93,2.36,1.71,4.17,2.33,1.04.34,2.18.67,3.34,1.01,1.19.34,2.05.73,2.62,1.19.57.47.86,1.04.86,1.68l-.05.67c-.18.7-.54,1.24-1.14,1.58-.6.36-1.32.52-2.18.52-.52,0-1.14-.08-1.89-.23-.73-.16-1.53-.34-2.38-.6-.52-.21-1.06-.44-1.58-.67-.52-.21-1.01-.28-1.45-.28-.41,0-.83.13-1.22.36-.41.23-.78.65-1.14,1.19-.16.54-.26,1.14-.26,1.81,0,.62.13,1.19.39,1.71.23.52.62.91,1.17,1.14.85.62,2.1,1.09,3.76,1.42,1.66.34,3.11.52,4.35.52h.67c3.08,0,5.54-.98,7.38-2.98,1.68-1.81,2.51-4.04,2.51-6.74,0-2.9-1.14-5.13-3.42-6.66-1.19-.78-3.34-1.61-6.37-2.44-2.25-.6-3.37-1.27-3.37-1.99l.1-.31c.08-.57.44-1.04,1.11-1.45.65-.41,1.42-.65,2.28-.65.44,0,.83.05,1.19.13.36.08.75.18,1.11.34.93.44,1.74.65,2.41.65.93,0,1.68-.26,2.25-.8.6-.54.88-1.24.88-2.18-.08-.44-.16-.93-.21-1.42-.26-.96-1.22-1.76-2.88-2.36-1.35-.52-2.69-.75-3.99-.75h-.91c-2.49,0-4.69.65-6.63,1.97-2.38,1.63-3.55,3.89-3.55,6.79v.52ZM109.22,252.23c0,1.04.36,1.87,1.06,2.44.65.54,1.4.8,2.31.8.83,0,1.61-.26,2.25-.8.67-.52,1.01-1.22,1.01-2.1v-6.63h6.01c2.54,0,4.59-1.01,6.14-3.06,1.45-1.89,2.15-4.17,2.15-6.84s-.75-4.84-2.28-6.61c-1.71-1.99-4.12-2.98-7.23-2.98h-8.89c-.47,0-.96.21-1.5.62-.7.54-1.04,1.14-1.04,1.84v23.31ZM120,232.33c1.04,0,1.87.41,2.51,1.27.57.75.85,1.66.85,2.69,0,.96-.31,1.81-.88,2.56-.62.75-1.42,1.14-2.49,1.14h-4.14v-7.67h4.14ZM139.97,252.21c.08.96.47,1.71,1.14,2.28.6.52,1.3.75,2.12.75s1.48-.23,2.05-.75c.67-.57.98-1.32.98-2.28v-23.68c0-.78-.34-1.42-.98-1.89-.67-.47-1.42-.7-2.28-.7-.8,0-1.53.26-2.12.75-.62.52-.91,1.24-.91,2.2v23.31M161.74,252.54c0,.78.31,1.37.93,1.81.62.44,1.35.67,2.2.67s1.63-.23,2.2-.73c.67-.57,1.01-1.35,1.01-2.38v-19.58h4.4l.29.13c.57,0,1.09-.34,1.53-.98.44-.65.65-1.37.65-2.12s-.23-1.42-.72-1.97c-.62-.62-1.53-.93-2.69-.93h-14.2c-.91,0-1.58.26-2.05.83-.44.54-.67,1.27-.67,2.07s.23,1.53.65,2.1c.44.57,1.01.88,1.76.88h4.71v20.21ZM182.87,248.78c-.52,1.27-.78,2.38-.78,3.32,0,1.04.26,1.84.8,2.41.49.52,1.11.78,1.84.78.83,0,1.58-.31,2.31-.91.7-.62,1.17-1.42,1.4-2.46l.65-2.46h10.67l.98,2.77c.39.96.88,1.71,1.55,2.23.6.44,1.19.7,1.81.7.8,0,1.5-.34,2.1-1.01.6-.65.91-1.48.91-2.46,0-.31-.03-.65-.1-1.01-.05-.34-.13-.65-.23-.91l-7.9-20.54c-.36-.96-1.01-1.81-1.89-2.51-.88-.7-1.81-1.06-2.77-1.06-.86,0-1.66.31-2.44.88-.78.57-1.45,1.48-2.05,2.69l-6.87,19.56M194.53,233.01l3.37,10.34h-6.92l3.55-10.34ZM216.18,252.56c0,.41.18.85.57,1.37.54.73,1.32,1.09,2.28,1.09h11.32c.83,0,1.48-.31,1.94-.98.39-.54.6-1.27.6-2.1,0-.88-.23-1.61-.67-2.23s-1.06-.91-1.86-.91h-7.62v-20.23c0-.8-.34-1.45-1.04-1.97-.7-.49-1.48-.75-2.36-.75s-1.61.28-2.23.88c-.62.57-.93,1.4-.93,2.51v23.31Z"/><path class="d" d="M61.3,167.72v-.13c8.24-.7,15.96-9.92,15.96-21.22s-7.72-20.59-15.96-21.29H7.39v85.2h53.91c8.24-.73,15.96-10.03,15.96-21.32s-7.72-20.52-15.96-21.24"/><polygon class="e" points="61.5 159.12 43.24 159.12 43.24 140.85 25.67 140.85 25.67 159.12 7.41 159.12 7.41 176.68 25.67 176.68 25.67 194.97 43.24 194.97 43.24 176.68 61.5 176.68 61.5 159.12"/><path class="g" d="M221.54,125.2c6.09,0,11.04,5.31,11.04,11.84v61.76c0,6.55-4.95,11.86-11.04,11.86s-11.04-5.31-11.04-11.86v-21.4h-24.32v21.4c0,6.55-4.95,11.86-11.06,11.86s-11.04-5.31-11.04-11.86v-61.76c0-6.53,4.95-11.84,11.04-11.84s11.06,5.31,11.06,11.84v21.42h24.32v-21.42c0-6.53,4.95-11.84,11.04-11.84M225.49,73.11c-.54-19.45-13.96-32.23-29.95-34.79-7.2-27.87-35.59-23.7-35.59-23.7C138.32-9.48,93.99-3.54,77.93,30.65c-43.93-1.35-46.21,32.38-49.3,33.44C5.32,72.02.84,82.23.09,90.98c-1.29,19.01,11.76,23.03,20.34,18.99,18.52-12.38,34.48-3.24,34.48-3.24,21.09-10.39,34.09,3.99,36.4,7.75,12.85-5.93,22.64-5.03,30.44,1.01,9.87,7.64,10.49,21.55,10.49,21.55l-.03,5.85h.03v25.08l-25.36-36.14c-.57-.78-1.22-1.48-1.86-2.1-2.02-2.77-5.16-4.53-8.65-4.53-6.11,0-11.04,5.28-11.04,11.84v61.76c0,6.53,4.92,11.84,11.04,11.84s11.01-5.31,11.01-11.84v-30.93l25.67,36.55c.6.78,1.22,1.48,1.89,2.12,2.02,2.51,5,4.09,8.34,4.09,6.09,0,11.04-5.31,11.04-11.84v-61.76s1.11-14.69,8.55-21.53c7.28-6.66,16.86-9.25,29.92-3.96,5.1-5.83,20.36-13.7,30.31-2.72,19.27,8.44,24.69-22.15,2.41-35.72M7.64,276.36c0,1.74.65,3.16,1.94,4.25.91.8,2.2,1.45,3.89,1.97.98.28,2.05.57,3.16.85s1.94.62,2.46,1.04c.54.39.83.85.83,1.42l-.08.54c-.15.6-.49,1.06-1.06,1.35-.57.31-1.24.44-2.05.44-.49,0-1.09-.05-1.76-.18-.7-.13-1.45-.31-2.28-.49-.49-.21-.98-.41-1.48-.6-.47-.16-.93-.26-1.37-.26-.39,0-.75.1-1.14.31-.36.21-.73.54-1.06,1.01-.16.47-.23.98-.23,1.55,0,.52.1,1.01.34,1.45.23.44.6.75,1.11.96.8.54,1.97.93,3.55,1.22,1.55.28,2.9.44,4.09.44h.6c2.93,0,5.26-.85,6.99-2.54,1.55-1.53,2.33-3.42,2.33-5.7,0-2.49-1.06-4.35-3.21-5.65-1.14-.67-3.13-1.37-5.98-2.07-2.12-.49-3.19-1.06-3.19-1.68l.13-.26c.05-.49.39-.91,1.01-1.27.65-.34,1.35-.49,2.18-.49.39,0,.78.03,1.11.08.34.08.7.16,1.06.28.85.36,1.63.57,2.25.57.88,0,1.58-.23,2.12-.7.54-.44.83-1.06.83-1.84-.08-.39-.15-.78-.21-1.19-.26-.83-1.14-1.5-2.69-2.02-1.27-.44-2.54-.65-3.78-.65h-.83c-2.33,0-4.43.57-6.24,1.68-2.23,1.4-3.34,3.29-3.34,5.75v.41ZM33.33,290.98c.08.8.44,1.45,1.06,1.94.57.41,1.22.65,1.99.65s1.4-.23,1.94-.65c.62-.49.93-1.14.93-1.94v-20.08c0-.67-.31-1.22-.93-1.61-.65-.39-1.35-.6-2.15-.6s-1.45.21-1.99.65c-.57.44-.85,1.06-.85,1.87v19.77M46.39,291.26c.13.75.47,1.32,1.06,1.76.52.36,1.11.54,1.79.54.8,0,1.5-.23,2.15-.65.62-.44.93-.98.93-1.66v-12.54l11.63,13.32c.31.52.7.88,1.22,1.14.52.26,1.06.39,1.66.39.78,0,1.48-.21,2.1-.6.62-.41.93-.88.93-1.45v-20.83c0-.62-.28-1.11-.85-1.45-.6-.36-1.24-.52-1.99-.52-.83,0-1.53.21-2.15.57-.6.41-.91.93-.91,1.63v12.3l-11.63-13.06c-.34-.49-.7-.85-1.17-1.06-.49-.18-1.01-.28-1.61-.28-.8,0-1.55.18-2.2.57-.65.41-.96.91-.96,1.53v20.34ZM75.48,281.1c0,4.02,1.35,7.18,3.99,9.51,2.36,2.05,5.23,3.08,8.63,3.08h.7l1.94.05c.57,0,1.19-.08,1.89-.23.67-.16,1.5-.47,2.43-.93.75-.26,1.3-.65,1.68-1.19.39-.57.57-1.14.57-1.76s-.26-1.19-.73-1.66c-.54-.49-1.24-.75-2.12-.75-.34,0-.65.03-.98.08-.34.05-.75.16-1.17.31-.78.26-1.43.41-1.92.52-.49.1-1.06.18-1.66.18-.91,0-1.81-.18-2.69-.54-.85-.34-1.66-.85-2.33-1.53-.47-.7-.83-1.63-1.09-2.75-.23-1.14-.36-2.23-.36-3.26,0-.31.03-.67.1-1.09.08-.41.13-.73.21-.93.67-1.48,1.58-2.56,2.8-3.24.96-.54,2.07-.83,3.37-.83.67,0,1.32.05,1.92.16.6.1,1.17.23,1.66.39,0,0,.49.13,1.45.34.31.08.6.1.85.1.49,0,.91-.13,1.27-.36.44-.31.75-.78.93-1.4.05-.23.08-.39.08-.52v-.28c0-1.79-1.74-3.03-5.18-3.7-1.06-.23-2.18-.34-3.37-.34-3.63,0-6.66,1.22-9.14,3.63-2.49,2.41-3.73,5.39-3.73,8.96M103.12,291.52c0,.39.23.78.72,1.19.47.41.91.62,1.35.62h11.29c.67,0,1.19-.26,1.61-.75.42-.52.62-1.11.62-1.76s-.23-1.24-.7-1.68c-.54-.52-1.37-.8-2.46-.8h-6.5v-4.59h6.89c.62,0,1.11-.26,1.48-.75.34-.47.54-1.01.54-1.66s-.23-1.3-.67-1.84c-.44-.52-1.01-.78-1.74-.78h-6.5v-4.35h7.12c.67,0,1.24-.26,1.66-.8.36-.44.54-.96.54-1.61,0-.75-.23-1.4-.73-1.94-.54-.6-1.24-.91-2.1-.91h-9.74c-.65,0-1.22.16-1.71.47-.67.44-.98,1.06-.98,1.89v20.05ZM149.19,289.92l-.16.39c0,1.06.31,1.89.91,2.46.6.6,1.29.88,2.1.88s1.53-.28,2.15-.88c.6-.57.91-1.35.91-2.31v-19.56c0-.36-.31-.8-.91-1.3-.39-.34-.83-.52-1.24-.52h-6.48c-.67,0-1.22.23-1.55.73-.39.47-.54,1.06-.54,1.76s.15,1.32.49,1.79c.31.49.75.73,1.32.73h3.01v15.83ZM165.84,280.04c-1.11.62-1.99,1.48-2.59,2.54-.65,1.09-.96,2.25-.96,3.47,0,.44.1.93.26,1.48.18.54.36,1.09.62,1.63.75,1.5,2.05,2.67,3.83,3.5,1.66.73,3.47,1.11,5.47,1.11s3.65-.34,5.18-1.01c1.71-.75,2.93-1.76,3.68-3.08.36-.65.6-1.27.75-1.92.16-.62.23-1.24.23-1.84,0-1.27-.36-2.46-1.06-3.63-.62-.98-1.4-1.84-2.33-2.54.7-.49,1.19-1.09,1.48-1.84.31-.73.44-1.5.44-2.28,0-.67-.1-1.37-.28-2.12-.21-.7-.49-1.3-.8-1.76-.73-.98-1.74-1.74-3.08-2.25s-2.77-.8-4.3-.8c-1.63,0-3.19.31-4.66.88-1.48.6-2.62,1.4-3.39,2.44-.26.41-.47.88-.62,1.4-.16.52-.23,1.09-.23,1.68,0,.85.21,1.74.62,2.64.41.93,1.01,1.68,1.76,2.31M168.79,285.43c0-1.04.34-1.87,1.06-2.44.62-.52,1.4-.75,2.33-.75.98,0,1.84.26,2.56.8.8.6,1.22,1.4,1.22,2.38,0,.88-.36,1.61-1.09,2.12-.72.54-1.55.8-2.51.8-.88,0-1.63-.23-2.25-.67-.75-.52-1.19-1.27-1.32-2.25M169.62,275.76c.08-.73.39-1.27.91-1.63.49-.39,1.06-.57,1.71-.57s1.19.18,1.71.52c.54.36.8.83.8,1.4,0,.75-.23,1.35-.73,1.79-.47.44-1.04.67-1.66.67-.67,0-1.27-.21-1.86-.62-.6-.41-.88-.93-.88-1.55M187.13,277.09c0,1.87.62,3.52,1.86,4.95,1.45,1.68,3.34,2.51,5.7,2.51.23,0,.6-.03,1.09-.08.49-.05.91-.1,1.17-.13,0,.41-.6,1.19-1.81,2.33-1.66,1.53-2.54,2.36-2.64,2.49-.65.73-.96,1.45-.96,2.2,0,.6.26,1.09.78,1.5.54.39,1.17.6,1.89.6.39,0,.8-.08,1.27-.18.44-.1.83-.26,1.17-.44,1.24-.7,2.62-1.94,4.12-3.7,1.66-1.94,3-3.94,4.04-6.06,1.24-2.44,1.84-4.66,1.84-6.66s-.6-3.55-1.76-4.84c-1.32-1.5-3.39-2.49-6.17-3l-1.58-.05c-2.56,0-4.74.57-6.55,1.76-2.31,1.5-3.45,3.78-3.45,6.81M193.21,276.94c0-.85.39-1.53,1.17-2.07.75-.54,1.63-.8,2.56-.8.86,0,1.61.23,2.25.75.65.47.96,1.19.96,2.07,0,1.01-.28,1.81-.91,2.33-.6.57-1.37.83-2.31.83-.83,0-1.58-.26-2.25-.75-.75-.57-1.22-1.3-1.35-2.2l-.13-.16ZM215.61,280.04c-1.11.62-1.99,1.48-2.59,2.54-.65,1.09-.96,2.25-.96,3.47,0,.44.1.93.26,1.48.15.54.36,1.09.62,1.63.75,1.5,2.05,2.67,3.83,3.5,1.66.73,3.47,1.11,5.47,1.11s3.63-.34,5.18-1.01c1.71-.75,2.93-1.76,3.68-3.08.36-.65.6-1.27.75-1.92.16-.62.23-1.24.23-1.84,0-1.27-.36-2.46-1.06-3.63-.6-.98-1.4-1.84-2.33-2.54.7-.49,1.19-1.09,1.48-1.84.31-.73.44-1.5.44-2.28,0-.67-.1-1.37-.28-2.12-.23-.7-.49-1.3-.8-1.76-.73-.98-1.74-1.74-3.08-2.25s-2.77-.8-4.3-.8c-1.63,0-3.19.31-4.66.88-1.48.6-2.62,1.4-3.39,2.44-.26.41-.47.88-.62,1.4-.16.52-.23,1.09-.23,1.68,0,.85.21,1.74.62,2.64.41.93,1.01,1.68,1.76,2.31M218.56,285.43c0-1.04.34-1.87,1.06-2.44.62-.52,1.4-.75,2.33-.75.98,0,1.84.26,2.56.8.8.6,1.22,1.4,1.22,2.38,0,.88-.36,1.61-1.09,2.12-.72.54-1.55.8-2.51.8-.88,0-1.63-.23-2.25-.67-.75-.52-1.19-1.27-1.32-2.25M219.39,275.76c.08-.73.39-1.27.91-1.63.49-.39,1.06-.57,1.71-.57s1.19.18,1.71.52c.54.36.8.83.8,1.4,0,.75-.23,1.35-.73,1.79-.47.44-1.04.67-1.66.67-.67,0-1.27-.21-1.86-.62-.6-.41-.88-.93-.88-1.55"/></g></svg>