<?xml version="1.0" encoding="UTF-8"?><svg id="b" xmlns="http://www.w3.org/2000/svg" width="240" height="175.26" viewBox="0 0 240 175.26"><defs><style>.d{fill:#231f20;}.e{fill:#ed1c24;}</style></defs><g id="c"><polygon class="e" points="136.55 38.07 136.55 0 103.45 0 103.45 38.07 65.38 38.07 65.38 71.17 103.45 71.17 103.45 109.24 136.55 109.24 136.55 71.17 174.62 71.17 174.62 38.07 136.55 38.07"/><path class="d" d="M6.01,138.47c0,1.47.15,1.73.65,1.73.39,0,.73-.03,1.19-.1l-.31,1.7c-.86.24-1.4.34-1.94.34-2.04,0-2.99-1.17-2.99-3.41v-12.4c0-3.29-1.04-4.61-2.61-5.63.66-1.99,2.78-3.34,5.32-3.34,1.88,0,3.34.52,4.39,1.47-.65.88-1.21,1.6-1.5,2.35h-.37c-.53-.87-1.31-1.43-2.47-1.43-.81,0-1.57.29-1.95.69,1.61.93,2.58,2.5,2.58,5.38v12.67ZM16.4,137.51c0-1.54-1.29-1.95-2.64-2.39-2.18-.7-4.27-2.01-4.27-4.77,0-2.58,2.4-4.54,5.66-4.54,1.78,0,3.58.7,4.45,1.39-.69,1.36-.94,1.61-1.21,2.39h-.43c-.34-.86-1.43-1.39-2.71-1.39-1.57,0-2.39.83-2.39,1.99,0,1.74,1.39,2.19,2.81,2.64,1.97.63,4.13,1.36,4.13,4.42,0,3.34-2.36,5.01-5.87,5.01-1.81,0-3.58-.76-4.7-1.64.67-1.17,1.1-1.77,1.29-2.46h.39c.63.97,1.57,1.71,3.17,1.71s2.32-1,2.32-2.37ZM33.17,126c-.11,2.43-.14,3.15-.14,5.56v6.43c0,2.2-1.4,4.07-3.76,4.07h-3.75c-.14-.72-.35-1.38-.52-1.83-1.38-3.83-2.16-6.29-4-10.63.39.03,1.6.06,1.99.06s1.31-.01,1.76-.04c1.04,3.13,1.59,5.17,3.48,10.19.79-.01,1.29-.48,1.29-1.73v-6.53c0-2.29-.07-3.09-.07-3.09-.58.03-1.46.1-2.18.24.01-.24.06-1.18.06-1.45,0-.22,0-.55-.07-1.26h5.91ZM40.25,142.1c-.29-.01-1.05-.06-1.61-.06s-1.26.04-1.57.06c0,0-1.57-13.19-1.94-16.06.48.01,1.46.04,1.81.04s1.24-.03,1.71-.04c.14,2.3.58,7.01.87,9.86l2.3-7.2c.31.03.7.04,1.07.04s.76-.01,1.07-.04l2.27,7.16c.27-2.85.73-7.53.88-9.82.48.01,1.35.04,1.7.04s1.33-.03,1.81-.04c-.35,2.88-1.92,16.06-1.92,16.06-.32-.01-1.01-.06-1.57-.06-.59,0-1.31.04-1.61.06l-2.64-8.16-2.63,8.16ZM61.15,130.79c0-2.88-.01-3.54-.18-4.79.45.01,1.46.03,1.88.03s1.45-.01,1.9-.03c-.17,1.25-.17,1.91-.17,4.79v6.45c0,2.98-1.98,5.03-5.98,5.03s-6.08-2.19-6.08-5.06v-.52c0-1.88,1.21-3.15,2.53-3.62v-.03c-1.18-.39-2.4-1.52-2.4-3.43,0-2.41,1.73-3.85,4.59-3.85.88,0,1.74.21,2.43.59-.48,1.03-.83,1.9-.88,2.12h-.37c-.25-.29-.55-.46-1.07-.46-.77,0-1.25.63-1.25,1.78,0,1.56.74,2.19,2.02,2.19.34,0,1.26-.04,1.26-.04-.01.24-.04.91-.04,1.14,0,.21.03.94.04,1.15,0,0-.72-.06-1.25-.06-1.35,0-2.16.69-2.16,2.5v.53c0,1.91.87,2.67,2.63,2.67s2.56-.76,2.56-2.64v-6.45ZM75.7,137.31c0,2.86,0,3.37.27,4.77-.48-.01-1.56-.03-1.95-.03-.42,0-1.52.01-2.02.03.28-1.4.28-2.06.28-4.77v-6.73c0-1.74-.96-2.4-2.06-2.4-1.4,0-2.25.58-2.77,1.17h-.44c-.06-.51-.29-1.22-1.01-2.43.97-.58,2.67-1.12,4.18-1.12,3.62,0,5.52,1.52,5.52,4.83v6.68ZM90.86,130.79v6.45c0,2.87-2.02,5.03-6.07,5.03s-6.08-2.16-6.08-5.03v-6.45c0-2.88,0-3.54-.17-4.79.45.01,1.47.03,1.9.03s1.45-.01,1.9-.03c-.17,1.25-.17,1.91-.17,4.79v6.45c0,1.61.87,2.64,2.63,2.64s2.63-1.03,2.63-2.64v-6.45c0-2.88-.01-3.54-.18-4.79.45.01,1.47.03,1.9.03s1.45-.01,1.9-.03c-.17,1.25-.17,1.91-.17,4.79ZM101.99,137.31c0,2.86,0,3.37.27,4.77-.48-.01-1.56-.03-1.95-.03-.42,0-1.52.01-2.02.03.28-1.4.28-2.06.28-4.77v-6.73c0-1.74-.96-2.4-2.06-2.4-1.4,0-2.25.58-2.77,1.17h-.44c-.06-.51-.29-1.22-1.01-2.43.97-.58,2.67-1.12,4.18-1.12,3.62,0,5.52,1.52,5.52,4.83v6.68ZM112.93,134.94h-1.87c-2.12,0-3.06.9-3.06,2.54s.37,2.4,1.29,2.4c.6,0,.93-.24,1.17-.55h.39c.07.49.28.87.81,2.25-.81.43-1.39.72-2.74.72-2.92,0-4.44-1.92-4.44-4.63,0-3.17,2.29-5.13,6.7-5.13h1.74v-1.71c0-1.77-.8-2.6-2.63-2.6-2.22,0-3.17.66-3.86,1.33h-.48c-.11-.52-.34-1.03-.87-2.43,1.14-.6,3.16-1.33,5.17-1.33,4.17,0,6.09,1.66,6.09,5.41v6.11c0,2.86,0,3.51.17,4.77-.49-.01-1.46-.03-1.87-.03s-1.42.01-1.9.03c.17-1.26.17-2.06.17-4.77v-2.37ZM125.21,139.71c1.42-.11,1.9-1.31,1.9-3.34v-4.61c0-2.51-1-3.48-3.15-3.48-1.52,0-3.05.79-3.68,1.57h-.42c-.11-.67-.29-.98-1.1-2.63,1.05-.73,3.34-1.43,5.22-1.43,4.25,0,6.54,1.71,6.54,5.97v4.68c0,3.05-1.73,5.63-5.74,5.63h-2.41c0-.84-.1-1.52-.24-2.41-.24-1.47-.38-2.32-.65-3.79-.7.01-1.04.06-1.83.18.01-.18.03-1.17.03-1.47v-1.18h4.69l.83,6.32ZM125.05,145.79c-.27,0-1.29.04-1.84.14.03-.22.03-.95.03-1.18v-1.07h4.76v5.29c-.41-.04-2.57-.06-2.98,0,0-1.38.03-1.74.03-3.19ZM145,127.18c1.33.39,2.25,1.46,2.25,3.33,0,3.31-1.07,7.89-1.21,11.6-.48-.06-1.33-.08-1.83-.08-.45,0-1.07.03-1.56.08-.53-2.19-1.64-4.91-2.44-7.16-.9,2.25-1.94,4.94-2.63,7.16-.48-.04-1.15-.08-1.63-.08-.43,0-1.31.04-1.73.08-.21-3.82-.88-9.98-1.54-16.08.41.01,1.4.03,1.81.03s1.36-.01,1.81-.03c.22,4.28.43,6.87.73,10.48.9-2.22,1.56-3.76,2.11-5.44.39.04.8.04,1.15.04.38,0,.79,0,1.21-.04.58,1.98,1.32,3.65,1.98,5.38.14-1.85.44-4.51.44-5.83,0-1.59-.73-2.16-1.8-2.16-.35,0-.67.01-1.29.06.04-.51.04-1,.04-1.22v-1.22c3.03-.03,3.5-.41,3.5-2.39,0-.22-.03-.46-.03-.46.39.01,1.32.04,1.88.04.63,0,1.45-.01,1.78-.03,0,1.78-1.21,3.37-3,3.9v.04ZM158.54,137.31c0,2.86,0,3.37.27,4.77-.48-.01-1.56-.03-1.95-.03-.42,0-1.52.01-2.02.03.28-1.4.28-2.06.28-4.77v-6.73c0-1.74-.96-2.4-2.06-2.4-1.4,0-2.25.58-2.77,1.17h-.44c-.06-.51-.29-1.22-1.01-2.43.97-.58,2.67-1.12,4.18-1.12,3.62,0,5.52,1.52,5.52,4.83v6.68ZM169.49,134.94h-1.87c-2.12,0-3.06.9-3.06,2.54s.37,2.4,1.29,2.4c.6,0,.93-.24,1.17-.55h.39c.07.49.28.87.81,2.25-.81.43-1.39.72-2.74.72-2.92,0-4.44-1.92-4.44-4.63,0-3.17,2.29-5.13,6.7-5.13h1.74v-1.71c0-1.77-.8-2.6-2.63-2.6-2.22,0-3.17.66-3.86,1.33h-.48c-.11-.52-.34-1.03-.87-2.43,1.14-.6,3.16-1.33,5.17-1.33,4.17,0,6.09,1.66,6.09,5.41v6.11c0,2.86,0,3.51.17,4.77-.49-.01-1.46-.03-1.87-.03s-1.42.01-1.9.03c.17-1.26.17-2.06.17-4.77v-2.37ZM186.67,126c-.11,2.43-.14,3.15-.14,5.56v6.43c0,2.2-1.4,4.07-3.76,4.07h-3.75c-.14-.72-.35-1.38-.52-1.83-1.38-3.83-2.16-6.29-4-10.63.39.03,1.6.06,1.99.06s1.31-.01,1.76-.04c1.04,3.13,1.59,5.17,3.48,10.19.79-.01,1.29-.48,1.29-1.73v-6.53c0-2.29-.07-3.09-.07-3.09-.58.03-1.46.1-2.18.24.01-.24.06-1.18.06-1.45,0-.22,0-.55-.07-1.26h5.91ZM198.23,131.07c0-1.74-.81-2.88-2.79-2.88-1.42,0-2.46.53-3.15,1.07v.06c.31.32.72.98.72,1.9v6.09c0,2.86,0,3.51.17,4.77-.49-.01-1.49-.03-1.9-.03s-1.39.01-1.87.03c.17-1.26.17-2.06.17-4.77v-6.42c0-1.19-.45-1.76-.88-2.04v-.22c1.46-1.56,3.96-2.88,6.74-2.88,3.79,0,6.22,2.04,6.22,5.32v6.24c0,2.86,0,3.51.17,4.77-.49-.01-1.45-.03-1.85-.03s-1.43.01-1.91.03c.17-1.26.17-2.06.17-4.77v-6.24ZM211.17,137.51c0-1.54-1.29-1.95-2.64-2.39-2.18-.7-4.27-2.01-4.27-4.77,0-2.58,2.4-4.54,5.66-4.54,1.78,0,3.58.7,4.45,1.39-.69,1.36-.94,1.61-1.21,2.39h-.43c-.34-.86-1.43-1.39-2.71-1.39-1.57,0-2.39.83-2.39,1.99,0,1.74,1.39,2.19,2.81,2.64,1.97.63,4.13,1.36,4.13,4.42,0,3.34-2.36,5.01-5.87,5.01-1.81,0-3.58-.76-4.7-1.64.67-1.17,1.1-1.77,1.29-2.46h.39c.63.97,1.57,1.71,3.17,1.71s2.32-1,2.32-2.37ZM229.03,131.02v6.28c0,1.76.41,2.53,1.75,2.53s3.03-1.31,3.03-4.07v-4.96c0-2.88,0-3.54-.17-4.79.45.01,1.45.04,1.87.04s1.45-.03,1.9-.04c-.17,1.25-.17,1.91-.17,4.79v6.52c0,2.71,0,3.51.18,4.77-.49-.01-1.5-.03-1.91-.03s-1.28.01-1.76.03c0,0,.06-1.22.06-1.87-.63,1.21-2.05,2.05-3.66,2.05-3.43,0-4.52-1.91-4.52-5.24v-6.01c0-1.7-.55-2.85-2.53-2.85-1.39,0-2.33.39-3.06.87.32.35.74.96.74,1.95v7.48c0,1.47.16,1.73.65,1.73.39,0,.73-.03,1.19-.1l-.31,1.7c-.86.24-1.4.34-1.94.34-2.04,0-2.96-1.17-2.96-3.41v-8.02c0-1.25-1.05-1.91-1.05-1.91v-.41c1.29-1.1,3.97-2.64,6.74-2.64,4.07,0,5.93,1.98,5.93,5.27ZM238.1,122.65c-.7,0-.9.2-.9.77,0,.35.04.45.08.74-.24-.03-1.47-.03-1.71-.03-.27,0-1.26,0-1.5.03,0,0-.14-.59-.14-1.21,0-1.74,1.04-2.64,3.45-2.64h1.36c.94,0,1.07-.07,1.17-.11l.08.11c-.14.83-.49,1.69-.59,2.33h-1.31ZM56.52,167.9h-1.87c-2.12,0-3.06.9-3.06,2.54s.38,2.4,1.31,2.4c.6,0,.93-.24,1.17-.55h.39c.07.49.28.87.81,2.25-.81.43-1.4.72-2.75.72-2.92,0-4.44-1.92-4.44-4.63,0-3.17,2.29-5.13,6.7-5.13h1.74v-1.71c0-1.77-.8-2.6-2.63-2.6-2.22,0-3.17.66-3.86,1.33h-.48c-.11-.52-.34-1.03-.87-2.43,1.14-.6,3.16-1.33,5.17-1.33.84,0,1.6.07,2.26.21,1.56-.13,3.31-.73,4.62-1.35l.21.11c-.1.46-.1,1.77-.1,2.84-.52.11-1.12.2-1.73.24.55.84.83,1.95.83,3.36v6.11c0,2.86,0,3.51.17,4.77-.49-.01-1.46-.03-1.87-.03s-1.42.01-1.9.03c.17-1.26.17-2.06.17-4.77v-2.37ZM72.44,163.87c0-1.71-.95-2.74-3.02-2.74-1.38,0-2.3.38-2.96.84.35.35.87.96.87,1.98v7.88c0,2.25-.9,3.27-2.94,3.27-.55,0-1.1-.06-1.94-.29l-.2-1.76c.32.06.74.11.94.11.41,0,.7-.14.7-1.17v-8.17c0-1.24-1.18-1.92-1.18-1.92v-.38c.95-1.11,3.92-2.81,6.7-2.81,4.02,0,6.45,1.87,6.45,5.15v6.42c0,2.87,0,3.51.17,4.77-.49-.01-1.45-.03-1.85-.03s-1.43.01-1.91.03c.17-1.26.17-2.06.17-4.77v-6.42ZM86.99,170.27c0,2.86,0,3.37.27,4.77-.48-.01-1.56-.03-1.95-.03-.42,0-1.52.01-2.02.03.28-1.4.28-2.06.28-4.77v-6.73c0-1.74-.96-2.4-2.06-2.4-1.4,0-2.25.58-2.77,1.17h-.44c-.06-.51-.29-1.22-1.01-2.43.97-.58,2.67-1.12,4.18-1.12,3.62,0,5.52,1.52,5.52,4.83v6.68ZM98.82,164.04c0-1.74-.81-2.88-2.79-2.88-1.42,0-2.46.53-3.15,1.07v.06c.31.32.72.98.72,1.9v6.09c0,2.86,0,3.51.17,4.77-.49-.01-1.49-.03-1.9-.03s-1.39.01-1.87.03c.17-1.26.17-2.06.17-4.77v-6.42c0-1.19-.45-1.76-.88-2.04v-.22c1.46-1.56,3.96-2.88,6.74-2.88,3.79,0,6.22,2.04,6.22,5.32v6.24c0,2.86,0,3.51.17,4.77-.49-.01-1.45-.03-1.85-.03s-1.43.01-1.91.03c.17-1.26.17-2.06.17-4.77v-6.24ZM113.37,170.27c0,2.86,0,3.37.27,4.77-.48-.01-1.56-.03-1.95-.03-.42,0-1.52.01-2.02.03.28-1.4.28-2.06.28-4.77v-6.73c0-1.74-.96-2.4-2.06-2.4-1.4,0-2.25.58-2.77,1.17h-.44c-.06-.51-.29-1.22-1.01-2.43.97-.58,2.67-1.12,4.18-1.12,3.62,0,5.52,1.52,5.52,4.83v6.68ZM127.63,170.2c0,3.52-2.13,5.03-5.7,5.03s-5.73-1.6-5.73-5.03v-2.12c0-3.22,2.56-4.69,2.56-6.36,0-.43-.21-.74-.83-.74-.48,0-.88.29-1.11.55h-.29c-.06-.22-.27-1.07-.87-2.09.6-.31,1.69-.67,2.85-.67,2.29,0,3.34,1.12,3.34,2.79,0,2.63-2.25,3.81-2.25,6.54v2.11c0,1.98.73,2.64,2.33,2.64s2.3-.66,2.3-2.64v-4.02c0-1.45-.42-1.94-1.31-1.94-.21,0-.39.01-.56.03.07-.67.07-1.05.07-1.28v-.84c1.69-.03,2.12-.79,2.12-3.69.65.04,1.31.04,1.59.04.52,0,1.31,0,1.92-.1,0,2.63-.79,4.02-2.49,4.65,1.21.45,2.05,1.28,2.05,3.41v3.74ZM139.02,170.27c0,2.86,0,3.37.27,4.77-.48-.01-1.56-.03-1.95-.03-.42,0-1.52.01-2.02.03.28-1.4.28-2.06.28-4.77v-6.73c0-1.74-.96-2.4-2.06-2.4-1.4,0-2.25.58-2.77,1.17h-.44c-.06-.51-.29-1.22-1.01-2.43.97-.58,2.67-1.12,4.18-1.12,3.62,0,5.52,1.52,5.52,4.83v6.68ZM151.28,164.16c0-2.04-1.07-2.98-2.89-2.98s-2.92.94-2.92,2.98v7.96c.98-.6,1.8-1.78,1.8-3.61,0-.88-.24-1.28-.6-1.59l.08-.25c1,0,1.63-.41,2.81-.91.48.48.72,1.14.72,1.91,0,2.91-1.83,5.53-6.01,7.37-.27-.01-.67-.03-.94-.03-.29,0-1.15.04-1.42.06.17-1.25.17-2.06.17-4.79v-5.98c0-3.62,2.37-5.56,6.32-5.56s6.29,1.94,6.29,5.59v5.95c0,2.77.04,3.72.17,4.76-.48-.01-1.45-.03-1.87-.03s-1.4.01-1.9.03c.13-1.04.2-1.99.2-4.76v-6.12ZM157.72,159.14c0-1.97.94-3.95,2.3-5.08-.41.1-.96.17-1.6.17-1.66,0-2.99-.2-4.04-.88.66-.63,1.03-1.29,1.59-2.3h.41c.35.45,2.28.73,2.99.73,1.15,0,2.28-.14,3.33-.86l1.81,1.74c-2.12,1.6-3.38,3.16-3.38,6.61v12.17c0,1.47.15,1.73.65,1.73.39,0,.73-.03,1.19-.1l-.31,1.7c-.86.24-1.4.34-1.94.34-2.04,0-2.99-1.17-2.99-3.41v-12.55ZM177.07,170.27c0,2.88,0,3.54.17,4.79-.45-.01-1.46-.04-1.88-.04s-1.45.03-1.9.04c.17-1.25.18-1.91.18-4.79v-6.5c0-1.76-.6-2.53-1.95-2.53-1.73,0-3.06,1.31-3.22,3.37v5.66c0,2.88,0,3.54.17,4.79-.45-.01-1.45-.04-1.87-.04s-1.45.03-1.9.04c.17-1.25.17-1.91.17-4.79v-6.52c0-2.71,0-3.51-.17-4.77.49.01,1.49.03,1.91.03s1.35-.01,1.84-.03c-.07.6-.11,1.04-.13,1.59.93-1.1,2.23-1.77,3.89-1.77,3.41,0,4.68,1.91,4.68,5.24v6.24ZM188.32,163.76c0-2.88-.01-3.54-.18-4.79.45.01,1.46.03,1.88.03s1.45-.01,1.9-.03c-.17,1.25-.17,1.91-.17,4.79v6.45c0,2.98-1.98,5.03-5.98,5.03s-6.08-2.19-6.08-5.06v-.52c0-1.88,1.21-3.15,2.53-3.62v-.03c-1.18-.39-2.4-1.52-2.4-3.43,0-2.41,1.73-3.85,4.59-3.85.88,0,1.74.21,2.43.59-.48,1.03-.83,1.9-.88,2.12h-.37c-.25-.29-.55-.46-1.07-.46-.77,0-1.25.63-1.25,1.78,0,1.56.74,2.19,2.02,2.19.34,0,1.26-.04,1.26-.04-.01.24-.04.91-.04,1.14,0,.21.03.94.04,1.15,0,0-.72-.06-1.25-.06-1.35,0-2.16.69-2.16,2.5v.53c0,1.91.87,2.67,2.63,2.67s2.56-.76,2.56-2.64v-6.45Z"/></g></svg>