<?xml version="1.0" encoding="UTF-8"?>
<svg xmlns="http://www.w3.org/2000/svg" xmlns:xlink="http://www.w3.org/1999/xlink" id="Layer_2" data-name="Layer 2" viewBox="0 0 1526.74 706.1">
  <defs>
    <style>
      .cls-1 {
        fill: url(#linear-gradient-13);
      }

      .cls-2 {
        fill: url(#linear-gradient-2);
      }

      .cls-3 {
        fill: url(#linear-gradient-10);
      }

      .cls-4 {
        fill: url(#linear-gradient-12);
      }

      .cls-5 {
        fill: url(#linear-gradient-4);
      }

      .cls-6 {
        fill: #2575b6;
      }

      .cls-7 {
        fill: #13a2db;
      }

      .cls-8 {
        fill: url(#linear-gradient-3);
      }

      .cls-9 {
        fill: url(#linear-gradient-5);
      }

      .cls-10 {
        fill: #2575ba;
      }

      .cls-11 {
        fill: url(#linear-gradient-8);
      }

      .cls-12 {
        fill: url(#linear-gradient-14);
      }

      .cls-13 {
        fill: url(#linear-gradient-7);
      }

      .cls-14 {
        fill: url(#linear-gradient-9);
      }

      .cls-15 {
        fill: #58bee5;
      }

      .cls-16 {
        fill: #10a84b;
      }

      .cls-17 {
        fill: url(#linear-gradient-11);
      }

      .cls-18 {
        fill: url(#linear-gradient-6);
      }

      .cls-19 {
        fill: url(#linear-gradient);
      }
    </style>
    <linearGradient id="linear-gradient" x1="561.1" y1="164.84" x2="1968.68" y2="451.29" gradientUnits="userSpaceOnUse">
      <stop offset="0" stop-color="#71c8b4"></stop>
      <stop offset=".53" stop-color="#005c95"></stop>
      <stop offset="1" stop-color="#3a73b9"></stop>
    </linearGradient>
    <linearGradient id="linear-gradient-2" x1="565.25" y1="144.47" x2="1972.82" y2="430.93" xlink:href="#linear-gradient"></linearGradient>
    <linearGradient id="linear-gradient-3" x1="571.02" y1="116.1" x2="1978.6" y2="402.56" xlink:href="#linear-gradient"></linearGradient>
    <linearGradient id="linear-gradient-4" x1="585.14" y1="46.71" x2="1992.72" y2="333.16" xlink:href="#linear-gradient"></linearGradient>
    <linearGradient id="linear-gradient-5" x1="580.06" y1="71.69" x2="1987.63" y2="358.14" xlink:href="#linear-gradient"></linearGradient>
    <linearGradient id="linear-gradient-6" x1="584.38" y1="50.46" x2="1991.95" y2="336.91" xlink:href="#linear-gradient"></linearGradient>
    <linearGradient id="linear-gradient-7" x1="607.92" y1="-65.2" x2="2015.49" y2="221.25" xlink:href="#linear-gradient"></linearGradient>
    <linearGradient id="linear-gradient-8" x1="588.83" y1="28.61" x2="1996.4" y2="315.06" xlink:href="#linear-gradient"></linearGradient>
    <linearGradient id="linear-gradient-9" x1="596.04" y1="-6.82" x2="2003.61" y2="279.63" xlink:href="#linear-gradient"></linearGradient>
    <linearGradient id="linear-gradient-10" x1="619.83" y1="-123.71" x2="2027.4" y2="162.74" xlink:href="#linear-gradient"></linearGradient>
    <linearGradient id="linear-gradient-11" x1="432.8" y1="426.64" x2="1586.33" y2="568.09" xlink:href="#linear-gradient"></linearGradient>
    <linearGradient id="linear-gradient-12" x1="430.52" y1="445.26" x2="1584.04" y2="586.7" xlink:href="#linear-gradient"></linearGradient>
    <linearGradient id="linear-gradient-13" x1="439.07" y1="375.52" x2="1592.59" y2="516.97" xlink:href="#linear-gradient"></linearGradient>
    <linearGradient id="linear-gradient-14" x1="444.54" y1="330.9" x2="1598.07" y2="472.34" xlink:href="#linear-gradient"></linearGradient>
  </defs>
  <g id="Layer_1-2" data-name="Layer 1">
    <g>
      <g>
        <path class="cls-19" d="M640.14,196.51c0,6.55-1,12.69-2.98,18.42-1.99,5.74-5.32,10.7-10,14.91-4.68,4.21-10.76,7.49-18.25,9.83-7.49,2.34-16.61,3.51-27.37,3.51-8.89,0-17.43-1-25.62-2.98-8.19-1.98-15.33-4.39-21.41-7.19l-5.26-35.79c8.89,7.49,17.13,12.52,24.74,15.09,7.6,2.58,15.73,3.86,24.39,3.86,10.29,0,17.31-1.69,21.05-5.09,3.74-3.39,5.61-7.42,5.61-12.11,0-3.74-1.58-6.84-4.74-9.3-3.16-2.46-7.9-4.74-14.21-6.84l-25.27-8.42c-9.83-3.27-17.67-7.6-23.51-12.98-5.85-5.38-8.77-12.63-8.77-21.76,0-7.25,1.4-13.56,4.21-18.95,2.81-5.38,6.72-9.94,11.76-13.69,5.03-3.74,10.93-6.55,17.72-8.42,6.78-1.87,14.15-2.81,22.11-2.81,10.29,0,18.65.82,25.09,2.46,6.43,1.64,12.46,3.51,18.07,5.61l5.26,34.39c-8.19-6.78-16.38-11.17-24.56-13.16-8.19-1.98-16.03-2.98-23.51-2.98-6.09,0-11.05,1.4-14.91,4.21-3.86,2.81-5.79,6.32-5.79,10.53,0,3.28,1.28,5.91,3.86,7.9,2.57,1.99,6.9,3.92,12.98,5.79l21.76,7.02c13.1,4.21,22.63,9.47,28.6,15.79,5.97,6.32,8.95,14.04,8.95,23.16Z"></path>
        <path class="cls-2" d="M761.91,168.09c0,11.47-1.7,21.82-5.09,31.06-3.39,9.24-8.19,17.14-14.39,23.69-6.2,6.55-13.75,11.58-22.63,15.09-8.89,3.51-18.83,5.26-29.83,5.26-8.89,0-15.97-.59-21.23-1.75-5.26-1.17-10.47-2.69-15.62-4.56l-5.26-30.88c2.81,1.4,5.49,2.81,8.07,4.21,2.57,1.4,5.38,2.58,8.42,3.51,3.04.94,6.43,1.7,10.18,2.28,3.74.59,8.3.88,13.69.88,7.02,0,12.98-1.28,17.9-3.86,4.91-2.57,8.89-6.08,11.93-10.53,3.04-4.44,5.2-9.65,6.49-15.62,1.28-5.97,1.93-12.34,1.93-19.12,0-13.56-3.51-24.56-10.53-32.99-7.02-8.42-16.61-12.63-28.77-12.63-9.83,0-17.9,1.23-24.21,3.68-6.32,2.46-12.28,5.56-17.9,9.3l6.32-31.93c3.27-1.17,8.54-2.57,15.79-4.21,7.25-1.63,16.37-2.46,27.37-2.46,10.06,0,19.18,1.75,27.37,5.26,8.19,3.51,15.26,8.42,21.23,14.74,5.97,6.32,10.58,13.86,13.86,22.63,3.27,8.77,4.91,18.42,4.91,28.95Z"></path>
        <path class="cls-8" d="M896.31,118.26v80.36c0,8.42-1.46,15.44-4.39,21.05-2.93,5.61-6.61,10.18-11.05,13.69-4.45,3.51-9.3,6.03-14.56,7.54-5.26,1.52-10.12,2.28-14.56,2.28-5.61,0-10.59-.65-14.91-1.93-4.33-1.28-8.13-2.86-11.4-4.74-3.28-1.87-6.03-3.91-8.25-6.14-2.23-2.22-4.04-4.39-5.44-6.49-.24,1.88-.47,3.74-.7,5.61-.24,1.88-.59,3.63-1.05,5.26-.47,1.88-1.05,3.63-1.75,5.26h-38.95c1.4-2.11,2.69-4.68,3.86-7.72.93-2.57,1.81-5.73,2.63-9.47.82-3.74,1.23-8.19,1.23-13.33v-87.03c0-6.08-.76-10.76-2.28-14.04-1.52-3.27-3.22-6.2-5.09-8.77h40.71c.47,1.64.93,3.81,1.4,6.49.47,2.69.7,6.14.7,10.35v60.36c0,4.21.47,8.6,1.4,13.16.93,4.56,2.51,8.66,4.74,12.28,2.22,3.63,5.09,6.67,8.6,9.12,3.51,2.46,7.84,3.68,12.98,3.68,6.78,0,11.93-1.75,15.44-5.26s5.26-9.83,5.26-18.95v-72.64c0-7.25-1.64-13.45-4.91-18.6h44.92c-3.04,4.68-4.56,10.88-4.56,18.6Z"></path>
        <path class="cls-5" d="M990.35,34.04c0,3.28-.7,6.09-2.11,8.42-1.4,2.34-2.98,4.62-4.74,6.84-1.75,2.23-3.33,4.51-4.74,6.84-1.4,2.34-2.11,4.91-2.11,7.72v154.05c0,6.09.7,10.7,2.11,13.86,1.4,3.16,3.27,5.91,5.61,8.25h-40.71c-1.17-2.57-1.88-5.49-2.11-8.77-.24-3.27-.35-6.55-.35-9.83V64.92c0-6.55,1.52-11.7,4.56-15.44,2.57-3.04,4.56-5.49,5.97-7.37,1.4-1.87,2.11-4.09,2.11-6.67,0-7.72-5.15-11.58-15.44-11.58-3.51,0-6.96.76-10.35,2.28-3.39,1.52-5.09,4.27-5.09,8.25,0,2.58.47,4.51,1.4,5.79.93,1.29,2.22,2.52,3.86,3.68h-33.34c-1.17-1.17-2.28-2.57-3.33-4.21-1.05-1.63-1.58-4.09-1.58-7.37,0-4.91,1.35-9.35,4.04-13.33,2.69-3.98,6.26-7.37,10.7-10.18,4.44-2.81,9.59-4.97,15.44-6.49,5.85-1.52,11.81-2.28,17.9-2.28s12.22.65,18.42,1.93c6.2,1.29,11.81,3.28,16.84,5.97,5.03,2.69,9.12,6.2,12.28,10.53,3.16,4.33,4.74,9.53,4.74,15.62Z"></path>
        <path class="cls-9" d="M1056.68,240.02c1.4-1.63,2.57-3.39,3.51-5.26.93-1.87,1.4-4.44,1.4-7.72v-2.81c0-2.34-.53-5.09-1.58-8.25-1.05-3.16-2.4-6.32-4.04-9.47-1.64-3.16-3.51-6.2-5.61-9.12-2.11-2.92-4.21-5.44-6.32-7.54-6.79-6.55-12.11-10.58-15.97-12.11-3.86-1.52-7.43-2.28-10.7-2.28-2.81,0-5.03.41-6.67,1.23-1.64.82-3.39,2.28-5.26,4.39l-3.86-3.16,14.39-28.77c2.81-1.17,6.43-1.75,10.88-1.75,3.98,0,7.42.59,10.35,1.75,2.92,1.17,6.49,3.39,10.7,6.67,2.34,1.88,4.33,3.81,5.97,5.79,1.63,1.99,3.04,3.81,4.21,5.44,1.17,1.88,2.34,3.74,3.51,5.61v-26.32c0-7.48-2.11-13.45-6.32-17.9-4.21-4.44-12.52-6.67-24.91-6.67-5.38,0-10.41.59-15.09,1.75-4.68,1.17-8.89,2.52-12.63,4.04-3.74,1.52-6.96,3.16-9.65,4.91-2.69,1.75-4.74,3.22-6.14,4.39l10.53-33.69c3.74-1.4,9.18-2.86,16.32-4.39,7.13-1.52,16.67-2.28,28.6-2.28,4.21,0,9.41.41,15.62,1.23,6.2.82,12.16,2.63,17.9,5.44,5.73,2.81,10.7,6.84,14.91,12.11,4.21,5.26,6.32,12.46,6.32,21.58v84.57c0,7.49,1.75,13.69,5.26,18.6h-45.62Z"></path>
        <path class="cls-18" d="M1225.46,196.51c0,6.55-1,12.69-2.98,18.42-1.99,5.74-5.32,10.7-10,14.91-4.68,4.21-10.76,7.49-18.25,9.83-7.49,2.34-16.61,3.51-27.37,3.51-8.89,0-17.43-1-25.62-2.98-8.19-1.98-15.33-4.39-21.41-7.19l-5.26-35.79c8.89,7.49,17.13,12.52,24.74,15.09,7.6,2.58,15.73,3.86,24.39,3.86,10.29,0,17.31-1.69,21.05-5.09,3.74-3.39,5.61-7.42,5.61-12.11,0-3.74-1.58-6.84-4.74-9.3-3.16-2.46-7.9-4.74-14.21-6.84l-25.27-8.42c-9.83-3.27-17.67-7.6-23.51-12.98-5.85-5.38-8.77-12.63-8.77-21.76,0-7.25,1.4-13.56,4.21-18.95,2.81-5.38,6.72-9.94,11.76-13.69,5.03-3.74,10.93-6.55,17.72-8.42,6.78-1.87,14.15-2.81,22.11-2.81,10.29,0,18.65.82,25.09,2.46,6.43,1.64,12.46,3.51,18.07,5.61l5.26,34.39c-8.19-6.78-16.38-11.17-24.56-13.16-8.19-1.98-16.03-2.98-23.51-2.98-6.09,0-11.05,1.4-14.91,4.21-3.86,2.81-5.79,6.32-5.79,10.53,0,3.28,1.28,5.91,3.86,7.9,2.57,1.99,6.9,3.92,12.98,5.79l21.76,7.02c13.1,4.21,22.63,9.47,28.6,15.79,5.97,6.32,8.95,14.04,8.95,23.16Z"></path>
        <path class="cls-13" d="M1245.82,68.43h-97.2v-22.46c0-5.61,1.52-10.29,4.56-14.04h36.49c-1.87,1.17-3.1,2.58-3.68,4.21-.58,1.64-1.11,3.28-1.58,4.91-.47,1.87-.58,3.86-.35,5.97h58.25c4.91,0,9-1.4,12.28-4.21l-8.77,25.62Z"></path>
        <path class="cls-11" d="M1320.91,240.02c3.27-5.14,4.91-11.34,4.91-18.6v-72.99c0-8.42-1.7-14.91-5.09-19.48-3.39-4.56-10.7-6.84-21.93-6.84-6.79,0-12.23.7-16.32,2.11-4.1,1.4-7.54,3.04-10.35,4.91,3.04.7,6.08,2.46,9.12,5.26,3.04,2.81,4.56,6.09,4.56,9.83,0,5.85-2.81,11.82-8.42,17.9v59.3c0,7.25,1.63,13.46,4.91,18.6h-44.92c3.04-4.68,4.56-10.88,4.56-18.6v-59.3c2.11-1.87,4.21-4.04,6.32-6.49,2.11-2.46,3.16-5.32,3.16-8.6s-1.64-5.91-4.91-7.9c-3.28-1.98-7.25-3.21-11.93-3.68l11.23-24.91c2.34-1.17,5.14-2.57,8.42-4.21,3.27-1.63,7.19-3.16,11.76-4.56,4.56-1.4,9.77-2.63,15.62-3.68,5.84-1.05,12.4-1.58,19.65-1.58,18.25,0,32.81,3.68,43.69,11.05,10.88,7.37,16.32,18.77,16.32,34.21v79.66c0,7.49,1.75,13.69,5.26,18.6h-45.62Z"></path>
        <path class="cls-14" d="M1514.97,181.77h-10.53v18.6c0,8.42-2.05,15.44-6.14,21.05-4.1,5.61-9.18,10-15.26,13.16-6.09,3.16-12.58,5.38-19.48,6.67-6.9,1.28-13.16,1.93-18.77,1.93-6.09,0-12.58-.65-19.48-1.93-6.9-1.28-13.33-3.56-19.3-6.84-5.97-3.27-10.94-7.66-14.91-13.16-3.98-5.49-5.97-12.46-5.97-20.88v-77.9c0-6.08-.76-10.76-2.28-14.04-1.52-3.27-3.22-6.2-5.09-8.77h40.35c.47,1.64.99,3.68,1.58,6.14.58,2.46.88,6.03.88,10.7v78.6c0,9.12,2.34,15.15,7.02,18.07,4.68,2.93,10.41,4.39,17.19,4.39,3.04,0,6.02-.29,8.95-.88,2.92-.58,5.55-1.69,7.9-3.33,2.34-1.63,4.15-3.91,5.44-6.84,1.28-2.92,1.93-6.72,1.93-11.4v-13.33h-35.44l-3.86-32.28c3.51,2.81,6.32,4.68,8.42,5.61,2.11.94,5.14,1.4,9.12,1.4h21.76v-38.25c0-7.25-1.64-13.45-4.91-18.6h44.92c-3.04,4.68-4.56,10.88-4.56,18.6v38.25h6.67c.7,0,1.52-.23,2.46-.7.93-.47,1.87-.93,2.81-1.4.93-.7,1.98-1.52,3.16-2.46l-4.56,29.83Z"></path>
        <path class="cls-3" d="M1513.04,42.99c-3.16,2.46-6.02,4.97-8.6,7.54-1.87,1.88-2.86,4.16-2.98,6.84-.11,2.69-.18,4.97-.18,6.84,0,3.04.65,5.09,1.93,6.14,1.29,1.05,2.63,2.17,4.04,3.33h-40v-15.09c0-5.14,1.88-9.77,5.61-13.86,3.75-4.09,7.37-7.19,10.88-9.3h40.71c-4.45,2.58-8.25,5.09-11.4,7.54Z"></path>
      </g>
      <g>
        <path class="cls-17" d="M711.79,605.79c0-1.76-.22-3.75-.67-5.95-.88-3.97-3.53-9.26-7.93-15.88l-108.06-145.59c7.51,0,17.56-.55,30.15-1.66,12.59-1.1,24.86-3.53,36.79-7.27,11.93-3.75,22.21-9.48,30.82-17.21,8.62-7.73,12.93-18.2,12.93-31.44,0-18.09-6.3-30.88-18.89-38.38-12.59-7.5-28.61-11.25-48.05-11.25h-43.75v238.24c0,13.68,4.84,25.81,14.54,36.4h-92.6c8.81-10.14,13.23-22.26,13.23-36.37v-246.69c0-14.1-4.63-26.22-13.89-36.37h134.93c35.71,0,64.7,7.5,86.98,22.49,22.27,14.99,33.41,38.14,33.41,69.44,0,11.46-2.43,21.83-7.28,31.09-4.85,9.26-11.57,17.2-20.17,23.81-8.6,6.61-18.52,11.79-29.77,15.54-11.25,3.75-23.48,5.62-36.71,5.62l82.92,104.49c6.16,8.82,12.77,16.21,19.82,22.16,7.05,5.95,13.66,10.69,19.83,14.22,7.05,4.41,13.88,7.94,20.49,10.58h-109.07Z"></path>
        <path class="cls-4" d="M899.92,322.7v308.04c0,15.86-3.42,28.74-10.24,38.67-6.82,9.91-15.52,17.62-26.08,23.14-10.57,5.5-22.24,9.14-35,10.9-12.77,1.76-24.89,2.64-36.35,2.64-9.69,0-17.85-.44-24.46-1.32-6.6-.89-13.43-2.43-20.48-4.63l-19.17-64.12c7.5,6.16,16.42,11.23,26.77,15.2,10.36,3.96,23.03,5.95,38.01,5.95,11.46,0,20.05-2.21,25.78-6.61,5.72-4.41,9.8-9.6,12.22-15.53,2.42-5.95,3.64-11.91,3.64-17.85v-294.49c0-14.1-4.41-26.22-13.22-36.36h92.46c-9.26,10.14-13.88,22.25-13.88,36.36Z"></path>
        <path class="cls-1" d="M1134.96,605.79c0-1.76-.22-3.75-.67-5.95-.88-3.97-3.53-9.26-7.93-15.88l-108.06-145.59c7.51,0,17.56-.55,30.15-1.66s24.86-3.53,36.79-7.27c11.93-3.75,22.21-9.48,30.82-17.21s12.93-18.2,12.93-31.44c0-18.09-6.3-30.88-18.89-38.38-12.59-7.5-28.61-11.25-48.05-11.25h-43.75v238.24c0,13.68,4.84,25.81,14.54,36.4h-92.6c8.81-10.14,13.23-22.26,13.23-36.37v-246.69c0-14.1-4.63-26.22-13.89-36.37h134.93c35.71,0,64.7,7.5,86.98,22.49,22.27,14.99,33.41,38.14,33.41,69.44,0,11.46-2.43,21.83-7.28,31.09-4.85,9.26-11.57,17.2-20.17,23.81-8.6,6.61-18.52,11.79-29.77,15.54-11.25,3.75-23.48,5.62-36.71,5.62l82.92,104.49c6.16,8.82,12.77,16.21,19.82,22.16,7.05,5.95,13.66,10.69,19.83,14.22,7.05,4.41,13.88,7.94,20.49,10.58h-109.07Z"></path>
        <path class="cls-12" d="M1434.29,605.79c9.15-9.69,13.73-21.82,13.73-36.37v-111.75h-129.15v111.75c0,14.55,4.57,26.68,13.73,36.37h-91.79c8.81-10.14,13.22-22.26,13.22-36.37v-246.69c0-14.1-4.41-26.22-13.22-36.37h91.79c-9.16,10.15-13.73,22.28-13.73,36.39v90.65h129.15v-90.65c0-14.11-4.58-26.24-13.73-36.39h92.45c-9.26,10.15-13.89,22.27-13.89,36.37v246.69c0,14.55,4.63,26.67,13.89,36.37h-92.45Z"></path>
      </g>
      <g>
        <polygon class="cls-15" points="344.65 570.42 344.65 556.41 344.65 465.83 302.62 465.83 302.62 550.2 168.34 550.2 168.34 379.71 126.4 379.71 126.4 592.22 133.48 592.22 162.29 592.22 344.65 592.22 344.65 570.42"></polygon>
        <polygon class="cls-7" points="449.32 247.57 435.23 247.57 344.65 247.57 344.65 289.53 429.02 289.53 429.02 423.8 259.32 423.8 259.32 465.83 471.04 465.83 471.04 458.74 471.04 429.93 471.04 247.57 449.32 247.57"></polygon>
        <polygon class="cls-6" points="126.4 142.83 126.4 157 126.4 247.57 168.34 247.57 168.34 163.13 302.62 163.13 302.62 333.62 344.65 333.62 344.65 121.18 337.64 121.18 308.83 121.18 126.4 121.18 126.4 142.83"></polygon>
        <polygon class="cls-16" points="21.73 465.83 35.82 465.83 126.39 465.83 126.39 423.8 42.02 423.8 42.02 289.53 212.63 289.53 212.63 247.57 0 247.57 0 254.58 0 283.4 0 465.83 21.73 465.83"></polygon>
      </g>
    </g>
    <g>
      <path class="cls-10" d="M1035.54,678.93c-.98-2.29-2.42-4.29-4.3-5.94-1.88-1.61-3.73-2.69-5.68-3.3-1.24-.37-2.54-.77-3.9-1.19l-2.01-.61c-1.43-.4-2.89-.82-4.26-1.26-1.28-.39-2.47-.96-3.52-1.67-1-.74-1.77-1.58-2.43-2.66-.59-.98-.89-2.32-.89-3.98,0-2.62.87-4.79,2.66-6.61,1.8-1.83,3.97-2.72,6.64-2.72s5.01.87,6.87,2.63c1.81,1.75,2.8,3.96,3.04,6.78l.07.8h7.75v-.88c0-2.39-.44-4.56-1.33-6.68-.96-2.17-2.17-3.91-3.67-5.3-1.51-1.51-3.33-2.7-5.42-3.53-4.04-1.68-9.03-1.72-13.49-.08-2.13.83-3.99,1.98-5.52,3.4-1.57,1.41-2.85,3.18-3.8,5.25-.95,2.08-1.41,4.3-1.41,6.79,0,2.31.41,4.42,1.26,6.47.86,1.99,2.16,3.73,3.84,5.18,1.55,1.44,3.32,2.48,5.26,3.1,1.84.58,3.69,1.09,5.58,1.6,1.98.51,3.42.95,4.69,1.44,1.39.53,2.76,1.34,4.1,2.44,1.1.82,1.99,1.92,2.74,3.41.69,1.3,1.05,2.74,1.05,4.27s-.3,2.98-.9,4.31c-.64,1.39-1.44,2.51-2.45,3.42-1.07.97-2.28,1.72-3.57,2.24-2.88,1.1-6.16,1.11-8.77-.1-1.23-.53-2.37-1.31-3.44-2.38-1.01-1.07-1.76-2.22-2.33-3.54-.58-1.25-.86-2.61-.86-4.17v-.88h-8.14v.88c0,2.7.5,5.21,1.48,7.44.98,2.22,2.38,4.19,4.15,5.85,1.74,1.66,3.81,2.95,6.15,3.82,2.26.87,4.79,1.32,7.55,1.32,2.45,0,4.83-.45,7.1-1.36,2.24-.95,4.23-2.24,5.94-3.84,1.67-1.56,3.02-3.43,4.11-5.7,1.04-2.21,1.56-4.63,1.56-7.16s-.49-4.86-1.51-7.32Z"></path>
      <polygon class="cls-10" points="1132.98 657.42 1122.94 657.42 1104.76 680.96 1104.76 642.44 1096.87 642.44 1096.87 702.34 1104.76 702.34 1104.76 693.54 1110.64 686.07 1124.09 702.38 1134.12 702.38 1115.53 679.9 1132.98 657.42"></polygon>
      <path class="cls-10" d="M1177.98,663.47c-1.93-2.23-4.26-3.98-6.92-5.18-2.71-1.21-5.54-1.82-8.4-1.82s-5.4.65-8,1.99c-1.57.82-2.93,1.84-4.07,3.05v-19.07h-7.93v59.94h7.93v-23.66c0-1.67.09-3.4.27-5.25.23-1.64.83-3.14,1.77-4.44,1.12-1.48,2.53-2.62,4.3-3.51,1.73-.9,3.47-1.33,5.33-1.33,2.13,0,4.03.4,5.78,1.23,1.85.91,3.3,2.14,4.44,3.79,1.04,1.42,1.67,2.91,1.9,4.44.27,1.55.4,3.25.4,5.04v23.66l1.05-.04h6.91v-23.65c0-3.02-.29-5.65-.88-8.04-.62-2.64-1.94-5.04-3.9-7.15"></path>
      <path class="cls-10" d="M1225.79,681.08c0,1.89-.14,3.6-.44,5.22-.35,1.74-1,3.26-1.97,4.63-2.4,3.24-5.55,4.83-9.63,4.83-2.24,0-4.26-.48-5.99-1.42-1.75-.95-3.2-2.37-4.3-4.29-.75-1.2-1.23-2.6-1.43-4.14-.18-1.62-.28-3.29-.28-4.83v-23.65h-7.92v23.65c0,2.89.18,5.62.54,8.1.38,2.59,1.53,5.23,2.77,6.91,2.61,3.55,7.93,7.35,15.83,7.35,3.12,0,6.04-.62,8.72-1.87,1.72-.85,3.2-2.03,4.41-3.51v4.33h7.5v-44.95h-7.82v23.65Z"></path>
      <path class="cls-10" d="M1077.93,681.08c0,1.89-.14,3.6-.43,5.22-.35,1.74-1,3.26-1.97,4.63-2.4,3.24-5.55,4.83-9.63,4.83-2.24,0-4.25-.48-5.99-1.42-1.75-.95-3.19-2.37-4.3-4.29-.75-1.2-1.23-2.6-1.43-4.14-.18-1.62-.28-3.29-.28-4.83v-23.65h-7.92v23.65c0,2.89.18,5.62.54,8.1.38,2.59,1.53,5.23,2.77,6.91,2.61,3.55,7.92,7.35,15.83,7.35,3.11,0,6.04-.62,8.71-1.87,1.73-.85,3.2-2.03,4.41-3.51v4.33h7.5v-44.95h-7.82v23.65Z"></path>
      <path class="cls-10" d="M1305.1,662.72c-4.42-4.57-9.26-6.25-14.19-6.25-2.66,0-5.34.61-7.98,1.83-2.61,1.17-4.74,2.91-6.35,5.2l-.12.21c-.07-.11-.15-.22-.24-.37-1.89-2.19-4.07-3.89-6.48-5.06-2.58-1.23-5.25-1.83-8.14-1.83-2.6,0-5.04.56-7.25,1.67-1.28.65-2.35,1.48-3.23,2.52v-3.23h-7.61v44.91h7.96v-25.52c0-1.83.09-3.29.27-4.64.15-1.29.66-2.59,1.52-3.89,1.08-1.42,2.32-2.42,3.81-3.06,1.48-.69,3.04-1.03,4.77-1.03,1.87,0,3.49.39,4.97,1.21,1.54.84,2.8,1.96,3.81,3.38.85,1.34,1.35,2.58,1.54,3.8.2,1.3.3,2.69.3,4.25v25.52h7.92v-24.96c0-1.9.05-3.38.17-4.8.09-1.44.57-2.77,1.39-3.97.98-1.35,2.26-2.45,3.77-3.26,1.58-.77,3.18-1.16,4.76-1.16,3.85,0,6.74,1.52,8.87,4.65.88,1.27,1.4,2.56,1.59,3.98.25,1.55.38,3.1.38,4.6v25h8.02v-25.42c0-2.64-.24-5.08-.76-7.24-1.06-4.37-3.49-7-3.49-7Z"></path>
      <polygon class="cls-10" points="1342.57 691.19 1328.39 657.39 1319.79 657.39 1338.77 702.34 1346.17 702.34 1365.07 657.39 1356.58 657.39 1342.57 691.19"></polygon>
      <rect class="cls-10" x="1375.66" y="642.44" width="7.92" height="11.98"></rect>
      <rect class="cls-10" x="1375.66" y="657.38" width="7.92" height="44.95"></rect>
      <polygon class="cls-10" points="1410.84 642.4 1403.06 642.4 1403.06 657.39 1394.14 657.39 1394.14 664.75 1403.06 664.75 1403.06 702.34 1410.84 702.34 1410.84 664.75 1420.82 664.75 1420.82 657.39 1410.84 657.39 1410.84 642.4"></polygon>
      <path class="cls-10" d="M1463.08,670.92c-1.44-1.73-3.32-3.21-5.58-4.37-2.18-1.09-4.58-1.64-7.15-1.64-1.22,0-2.34.11-3.34.34-.08.02-.16.03-.24.06l11.61-17.26h-8.48l-12.85,19.25c-.87,1.29-1.69,2.5-2.48,3.71-.97,1.49-1.68,2.75-2.24,3.96-.65,1.41-1.14,2.81-1.5,4.27-.38,1.54-.58,3.22-.58,4.99,0,2.59.49,5.05,1.46,7.36,1.03,2.33,2.37,4.38,4,6.1,1.72,1.8,3.71,3.2,5.9,4.18,2.29,1.01,4.78,1.52,7.43,1.52,5.29,0,9.87-1.99,13.65-5.94,1.53-1.76,2.82-3.83,3.84-6.19.98-2.42,1.48-4.83,1.48-7.17s-.42-4.65-1.31-7.08c-.89-2.37-2.08-4.38-3.62-6.11M1460.88,684.23c0,1.66-.32,3.18-.98,4.68-.63,1.47-1.48,2.77-2.57,3.88-1.03,1.09-2.28,1.99-3.7,2.67-3.06,1.38-6.65,1.24-9.23-.04-1.51-.76-2.73-1.66-3.71-2.75-1.1-1.27-1.88-2.58-2.39-4.04-.58-1.52-.87-3.1-.87-4.85,0-1.6.3-3.16.89-4.62.66-1.55,1.47-2.77,2.47-3.79.99-1.06,2.23-1.91,3.66-2.53,1.43-.63,2.99-.95,4.64-.95s3.21.32,4.61.96c1.49.72,2.77,1.64,3.79,2.75.99,1.02,1.81,2.3,2.49,3.89.6,1.49.89,3.04.89,4.72"></path>
      <path class="cls-10" d="M1500.08,681.95c1.28-1.22,2.53-2.43,3.79-3.66,1.26-1.26,2.39-2.62,3.34-4.04.98-1.41,1.78-2.95,2.38-4.57.61-1.66.93-3.53.93-5.54,0-2.38-.47-4.55-1.44-6.66-1.01-2.1-2.29-3.96-3.81-5.55-1.75-1.68-3.59-2.91-5.49-3.65-1.93-.78-4.06-1.16-6.53-1.16-2.65,0-5.14.49-7.42,1.46-2.29.99-4.16,2.3-5.74,4.02-1.53,1.69-2.74,3.7-3.58,5.97-.86,2.35-1.19,4.77-1.02,7.43l.06.89h7.21l-.08-1.03c-.09-1.09-.05-2.22.12-3.5.23-1.26.6-2.35,1.12-3.29.93-1.51,2.19-2.72,3.76-3.62,1.55-.88,3.26-1.33,5.06-1.33,2.89,0,5.34.92,7.5,2.79,2.07,1.84,3.07,4.18,3.07,7.16,0,1.27-.24,2.4-.72,3.49-.48,1.1-1.11,2.2-1.89,3.35-.7.98-1.52,1.94-2.56,3.02-.93.96-1.88,1.91-2.79,2.83l-20.26,19.61v6h35.12v-6.65h-24.58l14.47-13.78Z"></path>
      <path class="cls-10" d="M983.3,688.47c-2.2,3.26-5.14,5.83-8.74,7.65-6.81,3.44-14.57,3.56-20.96.81-3.01-1.3-5.67-3.09-7.91-5.33-2.24-2.24-4.06-4.91-5.4-7.92-1.33-3-2-6.24-2-9.67s.64-6.73,1.89-9.81c1.25-3.08,3.02-5.8,5.27-8.08,2.24-2.27,4.91-4.13,7.92-5.51,5.4-2.46,12.03-2.76,18.08-.62,2.7.95,5.1,2.3,7.14,4,2.03,1.69,3.69,3.79,4.94,6.24,1.23,2.43,1.86,5.19,1.86,8.19,0,2.2-.31,4.4-.91,6.53-.61,2.11-1.55,4.05-2.85,5.8-.44.66-1.02,1.35-1.73,2.06-.72.72-1.48,1.39-2.28,2-.77.58-1.59,1.07-2.42,1.43-1.21.53-2.48.91-3.34.11-.28-.26-.41-.59-.41-1.05s.11-1.02.31-1.68c.23-.73.46-1.41.71-2.06l8.06-24.08h-7.19l-.48,1.51c-.83-1.06-1.84-1.91-3.02-2.55-1.76-.94-3.64-1.41-5.6-1.41-3.09,0-5.95.8-8.51,2.4-2.5,1.56-4.67,3.56-6.43,5.94-1.75,2.36-3.13,5.03-4.11,7.92-.98,2.9-1.48,5.74-1.48,8.43,0,3.46,1.07,6.48,3.19,8.98,2.15,2.54,5.11,3.83,8.79,3.83,1.77,0,3.57-.35,5.33-1.07,1.35-.55,2.57-1.29,3.63-2.21.61,1.03,1.49,1.82,2.64,2.36,1.47.69,2.99,1.04,4.55,1.04,3.12,0,5.96-.92,8.45-2.73,2.41-1.76,4.46-3.85,6.1-6.22,3.18-4.57,4.8-9.59,4.8-14.9,0-7.54-2.95-13.85-8.74-18.75-2.61-2.37-5.61-4.17-8.92-5.36-7.38-2.63-15.37-2.24-22.12.62-3.73,1.58-7.03,3.79-9.8,6.55-2.76,2.76-4.99,6.03-6.61,9.73-1.63,3.7-2.46,7.68-2.46,11.84s.78,8.38,2.33,12.12c1.54,3.74,3.73,7.06,6.49,9.86,2.77,2.81,6.06,5.06,9.8,6.68,3.74,1.63,7.82,2.45,12.13,2.45,2.67,0,5.34-.35,7.9-1.04,2.55-.68,5.02-1.69,7.34-2.99,2.32-1.3,4.46-2.91,6.37-4.79,1.93-1.88,3.52-4.04,4.75-6.41l.72-1.39-6.79.17-.27.4ZM969,666.29c0,1.93-.44,4.15-1.31,6.58-.89,2.49-1.82,4.65-2.73,6.41-.83,1.49-1.97,2.99-3.41,4.42-1.34,1.34-2.87,1.99-4.7,1.99s-2.99-.58-3.81-1.8c-.9-1.32-1.33-2.76-1.33-4.41,0-1.73.31-3.66.91-5.75.61-2.09,1.49-4.07,2.63-5.89,1.13-1.8,2.49-3.34,4.07-4.57,1.51-1.19,3.15-1.77,5.01-1.77,1.33,0,2.42.46,3.32,1.38.9.94,1.34,2.05,1.34,3.4Z"></path>
    </g>
  </g>
</svg>
