<?xml version="1.0" encoding="UTF-8"?>
<svg id="Layer_2" data-name="Layer 2" xmlns="http://www.w3.org/2000/svg" viewBox="0 0 639.44 107.17">
  <defs>
    <style>
      .cls-1 {
        fill: #0074bc;
      }

      .cls-2 {
        fill: #ffc233;
      }

      .cls-3 {
        fill: #58595b;
      }
    </style>
  </defs>
  <g id="Layer_1-2" data-name="Layer 1">
    <g>
      <g>
        <polygon class="cls-2" points="126.38 53.74 101.39 53.74 101.39 28.54 72.88 28.54 72.88 53.74 48.15 53.74 48.15 82.26 72.88 82.26 72.88 107.15 101.39 107.15 101.39 82.26 126.38 82.26 126.38 53.74"/>
        <polygon class="cls-1" points="69.29 82.26 48.15 82.26 48.15 53.74 72.88 53.74 72.88 28.54 95.59 28.54 124.11 .04 28.51 .04 0 28.54 44.37 28.54 44.37 107.17 69.29 82.26"/>
        <path class="cls-1" d="m158.44,28.54v25.21h-28.52V.04l-28.53,28.49v25.21h24.99v28.52h32.05v24.91l28.52-28.51V.04l-28.52,28.49Zm-57.04,78.63l24.92-24.91h-24.92v24.91Z"/>
      </g>
      <g>
        <path class="cls-1" d="m249.41,40c0,2.79-.42,5.07-1.25,6.82-.83,1.76-1.95,3.13-3.34,4.12-1.4.99-3.02,1.66-4.87,2.02-1.85.36-3.8.54-5.84.54h-18.64v-18.87h8.33v12.14h8.47c1.16,0,2.28-.08,3.37-.24,1.08-.16,2.04-.47,2.87-.94.83-.47,1.48-1.13,1.95-1.98.47-.85.69-1.96.66-3.34-.06-1.07-.31-1.97-.75-2.71-.44-.74-1.04-1.35-1.81-1.84-.77-.49-1.67-.86-2.71-1.13-1.04-.27-2.16-.46-3.39-.59-2.35-.22-4.61-.45-6.78-.68-2.16-.24-4.08-.67-5.74-1.29-1.66-.63-2.97-1.54-3.93-2.73-.96-1.19-1.39-2.87-1.29-5.04.06-1.51.51-2.87,1.34-4.09.83-1.22,1.98-2.27,3.44-3.15,1.46-.88,3.2-1.56,5.22-2.05,2.02-.49,4.24-.73,6.66-.73,2.16,0,4.26.19,6.28.56,2.02.38,3.84,1.01,5.46,1.91,1.62.89,2.96,2.07,4.02,3.53,1.07,1.46,1.73,3.26,1.98,5.39h-8.28c-.22-.88-.66-1.61-1.32-2.19-.66-.58-1.44-1.05-2.35-1.41-.91-.36-1.91-.62-3.01-.78-1.1-.16-2.18-.24-3.25-.24s-2.13.08-3.08.24c-.96.16-1.79.38-2.49.66-.71.28-1.27.63-1.69,1.04-.42.41-.64.85-.64,1.32,0,.5.31.9.94,1.2.63.3,1.45.53,2.47.71,1.02.17,2.19.32,3.51.45,1.32.13,2.68.25,4.09.38,1.98.19,3.89.52,5.74.99,1.85.47,3.49,1.18,4.92,2.14,1.43.96,2.57,2.23,3.44,3.81.86,1.58,1.29,3.6,1.29,6.05Z"/>
        <path class="cls-1" d="m282.11,53.51v-5.32c-.66.75-1.45,1.48-2.38,2.19-.93.71-1.95,1.33-3.06,1.88-1.11.55-2.29.99-3.53,1.32-1.24.33-2.5.49-3.79.49-2.13,0-4.04-.26-5.72-.78-1.68-.52-3.11-1.29-4.31-2.33-1.19-1.04-2.1-2.35-2.73-3.93-.63-1.58-.94-3.44-.94-5.58V14.97h8.33v26.59c0,2.07.62,3.57,1.86,4.49,1.24.93,2.8,1.39,4.68,1.39,1.66,0,3.2-.31,4.61-.94,1.41-.63,2.64-1.4,3.67-2.31,1.04-.91,1.84-1.9,2.42-2.96.58-1.07.87-2.05.87-2.96V14.97h8.28v38.55h-8.28Z"/>
        <path class="cls-1" d="m331.11,46.95c-.97,1.65-2.26,3-3.86,4.07-1.6,1.07-3.44,1.86-5.53,2.38-2.09.52-4.26.78-6.52.78s-4.48-.26-6.57-.78c-2.09-.52-3.93-1.31-5.53-2.38-1.6-1.07-2.88-2.42-3.84-4.07-.96-1.65-1.43-3.6-1.43-5.86V14.97h8.33v25.65c0,1.19.24,2.21.73,3.06.49.85,1.14,1.55,1.98,2.12.83.56,1.8.98,2.89,1.25,1.1.27,2.24.4,3.44.4s2.34-.13,3.44-.4c1.1-.27,2.06-.68,2.89-1.25.83-.56,1.5-1.27,2-2.12.5-.85.75-1.87.75-3.06V14.97h8.28v26.12c0,2.26-.49,4.21-1.46,5.86Z"/>
        <path class="cls-1" d="m324.12,68.95v-7.34h-3.81v-5.22h12.14v12.57h-8.33Z"/>
        <path class="cls-1" d="m373.78,40.9c0,2.6-.5,4.76-1.51,6.47-1,1.71-2.33,3.07-3.98,4.07-1.65,1-3.52,1.71-5.62,2.12-2.1.41-4.25.61-6.45.61s-4.32-.21-6.38-.64c-2.06-.42-3.89-1.19-5.51-2.31-1.62-1.11-2.92-2.65-3.91-4.61-.99-1.96-1.51-4.48-1.58-7.55h8.42c0,1.69.27,3.08.8,4.17.53,1.08,1.22,1.94,2.07,2.56.85.63,1.8,1.06,2.87,1.29,1.07.24,2.13.35,3.2.35,1.22,0,2.39-.1,3.51-.31,1.11-.2,2.09-.55,2.94-1.04.85-.49,1.53-1.13,2.05-1.93.52-.8.78-1.8.78-2.99,0-1-.25-1.84-.75-2.49-.5-.66-1.15-1.18-1.93-1.58-.78-.39-1.66-.69-2.64-.89-.97-.2-1.93-.35-2.87-.45-2.32-.22-4.53-.47-6.64-.75-2.1-.28-3.95-.76-5.55-1.44-1.6-.67-2.88-1.65-3.84-2.92-.96-1.27-1.44-3-1.44-5.2,0-1.63.43-3.14,1.29-4.52.86-1.38,2.02-2.57,3.48-3.55,1.46-.99,3.17-1.76,5.13-2.31,1.96-.55,4.06-.82,6.28-.82,2.07,0,4.12.21,6.14.64,2.02.42,3.84,1.12,5.46,2.09,1.62.97,2.94,2.25,3.98,3.84,1.04,1.59,1.6,3.52,1.69,5.81h-8.33c-.09-1.04-.44-1.91-1.04-2.61-.6-.71-1.33-1.29-2.19-1.74-.86-.45-1.82-.78-2.87-.96-1.05-.19-2.06-.28-3.04-.28s-1.92.09-2.85.26c-.93.17-1.75.43-2.47.78-.72.35-1.3.76-1.74,1.25-.44.49-.66,1.04-.66,1.67,0,.66.31,1.19.92,1.6.61.41,1.4.73,2.38.96.97.24,2.07.42,3.29.54,1.22.13,2.46.25,3.72.38,1.94.19,3.84.49,5.69.92,1.85.42,3.49,1.09,4.92,2,1.43.91,2.57,2.13,3.44,3.65.86,1.52,1.29,3.48,1.29,5.86Z"/>
        <path class="cls-1" d="m342.33,10.12v-5.18h23.01V0h8.33v10.12h-31.34Z"/>
        <path class="cls-1" d="m418.4,47.51c-.96,1.55-2.2,2.82-3.72,3.81-1.52.99-3.23,1.71-5.13,2.16-1.9.45-3.77.68-5.62.68s-3.77-.23-5.65-.68c-1.88-.45-3.59-1.18-5.11-2.16-1.52-.99-2.76-2.26-3.72-3.81-.96-1.55-1.43-3.44-1.43-5.67V14.97h5.41v26.21c0,1.48.3,2.73.89,3.77.6,1.04,1.38,1.88,2.35,2.54.97.66,2.09,1.14,3.34,1.44,1.25.3,2.56.45,3.91.45s2.66-.15,3.93-.45c1.27-.3,2.39-.78,3.37-1.44.97-.66,1.76-1.51,2.35-2.54.6-1.04.89-2.29.89-3.77V14.97h5.37v26.87c0,2.23-.48,4.12-1.43,5.67Z"/>
        <path class="cls-1" d="m423.01,5.51c0,1.51-.52,2.72-1.55,3.65-1.04.93-2.35,1.39-3.95,1.39s-2.92-.46-3.95-1.39c-1.04-.93-1.55-2.14-1.55-3.65,0-.72.14-1.39.42-2,.28-.61.67-1.14,1.15-1.58.49-.44,1.07-.78,1.74-1.04.68-.25,1.4-.38,2.19-.38,1.6,0,2.92.47,3.95,1.41,1.04.94,1.55,2.13,1.55,3.58Zm-3.2,0c0-.57-.23-1.06-.68-1.48-.45-.42-1-.64-1.62-.64s-1.17.21-1.62.64c-.45.42-.68.92-.68,1.48,0,.6.23,1.1.68,1.51.46.41,1,.61,1.62.61s1.17-.2,1.62-.61c.46-.41.68-.91.68-1.51Zm15.87,19.11c0-1.13-.29-2.05-.87-2.78-.58-.72-1.37-1.26-2.38-1.62-1-.36-2.17-.56-3.51-.59-1.33-.03-2.75.08-4.26.33v-4.89c2.01-.31,3.98-.42,5.93-.31,1.94.11,3.69.49,5.25,1.13,1.55.64,2.81,1.59,3.77,2.82.96,1.24,1.44,2.85,1.44,4.82v29.98h-5.37v-28.9Z"/>
        <path class="cls-1" d="m478.36,41.37c0,2.54-.46,4.64-1.39,6.31-.93,1.66-2.14,2.97-3.65,3.93-1.51.96-3.22,1.62-5.15,2-1.93.38-3.9.56-5.91.56s-3.95-.2-5.84-.61c-1.88-.41-3.56-1.15-5.04-2.21-1.48-1.07-2.67-2.53-3.58-4.4-.91-1.87-1.4-4.24-1.46-7.13h5.51c0,1.95.31,3.54.92,4.78.61,1.24,1.41,2.21,2.4,2.92.99.71,2.1,1.19,3.34,1.46,1.24.27,2.49.4,3.74.4,1.41,0,2.77-.12,4.07-.35,1.3-.24,2.45-.64,3.44-1.22.99-.58,1.77-1.38,2.35-2.4.58-1.02.87-2.33.87-3.93,0-1.29-.25-2.35-.75-3.18-.5-.83-1.18-1.51-2.05-2.02-.86-.52-1.86-.91-2.99-1.18-1.13-.27-2.32-.49-3.58-.68-1.95-.31-3.89-.6-5.84-.85-1.95-.25-3.69-.67-5.25-1.25-1.55-.58-2.81-1.44-3.77-2.59-.96-1.15-1.44-2.78-1.44-4.92,0-1.6.41-3.04,1.22-4.33.82-1.29,1.9-2.39,3.25-3.32,1.35-.93,2.91-1.64,4.68-2.14,1.77-.5,3.63-.75,5.58-.75s3.75.22,5.6.66c1.85.44,3.51,1.12,4.99,2.05,1.47.93,2.68,2.1,3.62,3.53.94,1.43,1.44,3.15,1.51,5.15h-5.41c-.13-1.16-.53-2.15-1.2-2.97-.67-.82-1.51-1.49-2.49-2.02-.99-.53-2.08-.93-3.27-1.18-1.19-.25-2.37-.38-3.53-.38-1.1,0-2.2.12-3.29.35-1.1.24-2.08.58-2.94,1.04-.86.46-1.56,1.02-2.09,1.69-.53.68-.8,1.45-.8,2.33,0,.94.33,1.7.99,2.28.66.58,1.53,1.04,2.61,1.39s2.31.61,3.69.8c1.38.19,2.79.36,4.24.52,1.76.22,3.48.53,5.18.92,1.69.39,3.2,1.01,4.52,1.86,1.32.85,2.38,1.99,3.18,3.44.8,1.44,1.2,3.33,1.2,5.65Z"/>
        <path class="cls-1" d="m471.05,61.61h-2.92v-4.24h8.33v11.58h-5.41v-7.34Z"/>
        <path class="cls-1" d="m512.31,28.76c.16,1.76.2,3.58.12,5.48-.08,1.9-.33,3.77-.75,5.6-.42,1.84-1.05,3.58-1.88,5.22-.83,1.65-1.91,3.1-3.25,4.35-1.33,1.26-2.94,2.25-4.82,2.99-1.88.74-4.11,1.11-6.68,1.11h-4.42l-9.84-31.34,4.52-3.62,9.46,30.17h1.18c2.01,0,3.75-.53,5.22-1.6,1.47-1.07,2.67-2.47,3.58-4.21.91-1.74,1.54-3.72,1.91-5.93.36-2.21.45-4.48.26-6.8-.35-4.14-1.73-7.15-4.17-9.01-2.43-1.87-5.89-2.45-10.38-1.77v-4.8c3.01-.44,5.7-.4,8.07.12,2.37.52,4.39,1.41,6.07,2.68,1.68,1.27,3,2.88,3.98,4.82.97,1.95,1.58,4.13,1.84,6.54Z"/>
        <path class="cls-1" d="m518.78,14.97h5.41v38.55h-5.41V14.97Z"/>
        <path class="cls-1" d="m562.28,47.56c-.66,1.52-1.57,2.76-2.73,3.72-1.16.96-2.53,1.66-4.09,2.12-1.57.45-3.26.68-5.08.68-1.48,0-2.87-.17-4.19-.49-1.32-.33-2.56-.77-3.72-1.32-1.16-.55-2.21-1.18-3.15-1.91-.94-.72-1.76-1.47-2.45-2.26v5.41h-5.41V14.97h5.41v22.92c0,1.1.32,2.31.96,3.62.64,1.32,1.54,2.55,2.68,3.69,1.14,1.15,2.52,2.11,4.12,2.89,1.6.78,3.36,1.18,5.27,1.18,1.16,0,2.23-.14,3.2-.42.97-.28,1.81-.73,2.52-1.34.71-.61,1.26-1.4,1.67-2.35.41-.96.61-2.12.61-3.51V14.97h5.37v27.06c0,2.17-.33,4.01-.99,5.53Z"/>
        <path class="cls-1" d="m534.79,5.88h14.78V.99h5.37v4.89h2.92V.99h5.41v9.13h-28.47v-4.24Z"/>
        <path class="cls-1" d="m604.85,34.22c0,3.48-.48,6.49-1.44,9.01-.96,2.53-2.27,4.6-3.93,6.21-1.66,1.62-3.62,2.81-5.86,3.58-2.24.77-4.64,1.15-7.18,1.15s-4.93-.38-7.15-1.15c-2.23-.77-4.17-1.96-5.84-3.58-1.66-1.62-2.98-3.69-3.95-6.21-.97-2.52-1.46-5.53-1.46-9.01,0-.85.03-1.71.09-2.59.06-.88.22-1.98.47-3.29h12.61v4.94h-7.81v.94c0,2.6.32,4.86.96,6.78.64,1.91,1.54,3.49,2.68,4.73,1.15,1.24,2.52,2.16,4.12,2.75,1.6.6,3.36.89,5.27.89s3.66-.3,5.25-.89c1.58-.6,2.95-1.51,4.09-2.75,1.14-1.24,2.04-2.82,2.68-4.73.64-1.91.96-4.17.96-6.78s-.32-4.85-.96-6.75c-.64-1.9-1.54-3.47-2.68-4.71-1.15-1.24-2.51-2.16-4.09-2.75-1.58-.6-3.33-.89-5.25-.89s-3.52.24-4.82.71c-1.3.47-2.38,1.04-3.22,1.72-.85.67-1.51,1.39-2,2.14-.49.75-.87,1.41-1.15,1.98h-5.98c.47-1.41,1.15-2.8,2.05-4.17.89-1.36,2.04-2.58,3.44-3.65,1.4-1.07,3.06-1.93,4.99-2.59,1.93-.66,4.17-.99,6.71-.99s4.93.38,7.18,1.15c2.24.77,4.2,1.96,5.86,3.58,1.66,1.62,2.97,3.69,3.93,6.21.96,2.53,1.44,5.53,1.44,9.01Z"/>
        <path class="cls-1" d="m639.29,28.76c.16,1.76.2,3.58.12,5.48-.08,1.9-.33,3.77-.75,5.6-.42,1.84-1.05,3.58-1.88,5.22-.83,1.65-1.91,3.1-3.25,4.35-1.33,1.26-2.94,2.25-4.82,2.99-1.88.74-4.11,1.11-6.68,1.11h-4.42l-9.84-31.34,4.52-3.62,9.46,30.17h1.18c2.01,0,3.75-.53,5.22-1.6,1.47-1.07,2.67-2.47,3.58-4.21.91-1.74,1.54-3.72,1.91-5.93.36-2.21.45-4.48.26-6.8-.35-4.14-1.73-7.15-4.17-9.01-2.43-1.87-5.89-2.45-10.38-1.77v-4.8c3.01-.44,5.7-.4,8.07.12,2.37.52,4.39,1.41,6.07,2.68,1.68,1.27,3,2.88,3.98,4.82.97,1.95,1.58,4.13,1.84,6.54Z"/>
      </g>
      <g>
        <path class="cls-3" d="m220.92,97.64v-15.89l-5.44.06v-3.16h14.54v3.16l-5.44-.06v15.89h-3.66Z"/>
        <path class="cls-3" d="m246.24,97.64v-8.11h-7.72v8.11h-3.66v-18.99h3.66v7.72h7.72v-7.72h3.66v18.99h-3.66Z"/>
        <path class="cls-3" d="m264.59,97.98c-1.47,0-2.75-.25-3.86-.75-1.11-.5-2.03-1.19-2.78-2.07-.74-.88-1.3-1.92-1.68-3.13-.38-1.2-.56-2.5-.56-3.89s.19-2.69.56-3.89c.38-1.2.93-2.24,1.68-3.13.74-.88,1.67-1.57,2.78-2.07,1.11-.5,2.39-.75,3.86-.75s2.75.25,3.86.75c1.11.5,2.03,1.19,2.78,2.07.74.88,1.3,1.93,1.68,3.13.38,1.2.56,2.5.56,3.89s-.19,2.69-.56,3.89c-.38,1.2-.93,2.24-1.68,3.13-.74.88-1.67,1.57-2.78,2.07-1.11.5-2.39.75-3.86.75Zm0-2.99c1.71,0,3-.6,3.89-1.8.88-1.2,1.32-2.88,1.32-5.04s-.44-3.84-1.32-5.04c-.88-1.2-2.18-1.8-3.89-1.8s-3.01.6-3.89,1.8-1.32,2.88-1.32,5.04.44,3.84,1.32,5.04c.88,1.2,2.18,1.8,3.89,1.8Z"/>
        <path class="cls-3" d="m290.87,97.64l-6.48-10.76c-.39-.66-.75-1.31-1.06-1.94-.31-.64-.58-1.3-.8-2h-.08c.15.79.27,1.55.35,2.3.08.74.13,1.41.13,2.01v10.4h-3.66v-18.99h3.94l6.2,10.76c.39.66.75,1.31,1.06,1.94.31.64.58,1.31.8,2h.08c-.15-.79-.27-1.55-.35-2.3-.08-.74-.13-1.41-.13-2.01v-10.4h3.66v18.99h-3.66Z"/>
        <path class="cls-3" d="m301.3,97.64v-18.99h7.72c2.12,0,3.69.47,4.71,1.39,1.01.93,1.52,2.16,1.52,3.7,0,.49-.08.93-.23,1.34-.15.4-.35.77-.59,1.08-.24.32-.52.6-.82.83-.3.23-.6.43-.9.58.92.26,1.7.77,2.34,1.51.64.74.96,1.74.96,3,0,.79-.14,1.52-.41,2.2-.27.68-.7,1.26-1.28,1.76-.58.5-1.32.89-2.21,1.17-.89.28-1.96.42-3.2.42h-7.61Zm7.75-11.27c.79,0,1.44-.19,1.94-.58.51-.39.76-1,.76-1.85,0-.71-.24-1.27-.73-1.68-.49-.4-1.16-.61-2-.61h-4.17v4.71h4.2Zm-.2,8.25c1.13,0,2.01-.24,2.65-.73.64-.49.96-1.16.96-2s-.32-1.48-.96-1.92c-.64-.43-1.55-.65-2.73-.65h-3.92v5.3h4Z"/>
        <path class="cls-3" d="m333.33,78.65h3.66v11.27c0,2.74-.68,4.77-2.03,6.09-1.35,1.32-3.22,1.97-5.61,1.97s-4.25-.66-5.61-1.97c-1.35-1.31-2.03-3.34-2.03-6.09v-11.27h3.66v11.3c0,1.71.35,2.98,1.06,3.8.7.83,1.68,1.24,2.92,1.24s2.21-.41,2.92-1.24,1.06-2.09,1.06-3.8v-11.3Z"/>
        <path class="cls-3" d="m354.21,97.64l-4.09-7.1h-2.79v7.1h-3.66v-18.99h7.13c1.09,0,2.06.16,2.9.47.84.31,1.56.73,2.14,1.25.58.53,1.02,1.15,1.32,1.87.3.72.45,1.49.45,2.3,0,1.32-.37,2.43-1.1,3.35-.73.92-1.69,1.59-2.87,2l4.48,7.75h-3.92Zm-3.38-10.26c.98,0,1.74-.25,2.3-.75.55-.5.83-1.2.83-2.1,0-.84-.25-1.51-.76-2s-1.3-.73-2.37-.73h-3.49v5.58h3.49Z"/>
        <path class="cls-3" d="m363.42,97.64v-18.99h3.66v18.99h-3.66Z"/>
        <path class="cls-3" d="m383.14,97.64v-18.99h7.72c2.12,0,3.69.47,4.71,1.39,1.01.93,1.52,2.16,1.52,3.7,0,.49-.08.93-.23,1.34-.15.4-.35.77-.59,1.08-.24.32-.52.6-.82.83-.3.23-.6.43-.9.58.92.26,1.7.77,2.34,1.51.64.74.96,1.74.96,3,0,.79-.14,1.52-.41,2.2-.27.68-.7,1.26-1.28,1.76-.58.5-1.32.89-2.21,1.17-.89.28-1.96.42-3.2.42h-7.61Zm7.75-11.27c.79,0,1.44-.19,1.94-.58.51-.39.76-1,.76-1.85,0-.71-.24-1.27-.73-1.68-.49-.4-1.16-.61-2-.61h-4.17v4.71h4.2Zm-.2,8.25c1.13,0,2.01-.24,2.65-.73.64-.49.96-1.16.96-2s-.32-1.48-.96-1.92c-.64-.43-1.55-.65-2.73-.65h-3.92v5.3h4Z"/>
        <path class="cls-3" d="m415.43,97.64l-1.44-4.25h-6.87l-1.44,4.25h-3.83l6.85-18.99h3.72l6.85,18.99h-3.83Zm-3.44-10.14l-1.41-4.85h-.06l-1.41,4.85-.93,2.85h4.73l-.93-2.85Z"/>
        <path class="cls-3" d="m439.54,97.64v-9.3c0-.36.01-.76.04-1.21.03-.45.07-.92.11-1.41.05-.49.1-.98.17-1.46.07-.49.14-.95.21-1.38h-.08c-.23.85-.46,1.65-.7,2.41-.24.76-.55,1.59-.93,2.49l-2.99,6.96h-3.44l-2.99-6.96c-.38-.9-.69-1.73-.93-2.49-.24-.76-.48-1.56-.7-2.41h-.08c.07.43.15.89.21,1.38.07.49.12.98.17,1.46.05.49.08.96.11,1.41.03.45.04.85.04,1.21v9.3h-3.55v-18.99h4.11l3.83,8.73c.38.85.69,1.67.94,2.48.25.81.43,1.56.52,2.25h.06c.09-.69.27-1.45.52-2.25.25-.81.57-1.63.94-2.48l3.83-8.73h4.11v18.99h-3.55Z"/>
        <path class="cls-3" d="m460.39,97.64l-4.09-7.1h-2.79v7.1h-3.66v-18.99h7.13c1.09,0,2.06.16,2.9.47.85.31,1.56.73,2.14,1.25.58.53,1.02,1.15,1.32,1.87.3.72.45,1.49.45,2.3,0,1.32-.37,2.43-1.1,3.35-.73.92-1.69,1.59-2.87,2l4.48,7.75h-3.92Zm-3.38-10.26c.98,0,1.74-.25,2.3-.75.55-.5.83-1.2.83-2.1,0-.84-.25-1.51-.76-2-.51-.49-1.3-.73-2.37-.73h-3.49v5.58h3.49Z"/>
        <path class="cls-3" d="m481.13,78.65h3.66v11.27c0,2.74-.68,4.77-2.03,6.09-1.35,1.32-3.22,1.97-5.61,1.97s-4.25-.66-5.61-1.97c-1.35-1.31-2.03-3.34-2.03-6.09v-11.27h3.66v11.3c0,1.71.35,2.98,1.06,3.8.7.83,1.68,1.24,2.92,1.24s2.21-.41,2.92-1.24c.7-.83,1.06-2.09,1.06-3.8v-11.3Z"/>
        <path class="cls-3" d="m503.08,97.64l-6.48-10.76c-.39-.66-.75-1.31-1.06-1.94-.31-.64-.58-1.3-.8-2h-.08c.15.79.27,1.55.35,2.3.08.74.13,1.41.13,2.01v10.4h-3.66v-18.99h3.94l6.2,10.76c.39.66.75,1.31,1.06,1.94.31.64.58,1.31.8,2h.08c-.15-.79-.27-1.55-.35-2.3-.08-.74-.13-1.41-.13-2.01v-10.4h3.66v18.99h-3.66Z"/>
        <path class="cls-3" d="m525.19,97.64l-.39-2.23c-.39.7-.94,1.28-1.65,1.76-.7.48-1.62.72-2.75.72s-2.23-.23-3.2-.69c-.97-.46-1.8-1.11-2.49-1.94-.69-.84-1.23-1.84-1.61-3.01-.38-1.17-.56-2.47-.56-3.9,0-1.58.22-2.99.66-4.23.44-1.24,1.08-2.29,1.92-3.14.84-.85,1.84-1.51,3.03-1.97,1.18-.46,2.51-.69,3.97-.69,2.03,0,3.85.42,5.47,1.27l-.9,2.79c-.66-.36-1.36-.62-2.1-.8-.74-.18-1.47-.27-2.18-.27-1.93,0-3.45.58-4.55,1.75-1.1,1.16-1.65,2.93-1.65,5.3,0,1,.12,1.9.37,2.7.24.81.59,1.5,1.03,2.07.44.57.96,1.01,1.55,1.32.59.31,1.23.46,1.93.46.51,0,.99-.08,1.44-.24.45-.16.84-.4,1.18-.73.34-.33.61-.74.8-1.24.2-.5.3-1.07.3-1.73v-1.13h-3.66v-3.04h7.21v10.85h-3.16Z"/>
        <path class="cls-3" d="m550.15,97.64v-9.3c0-.36.01-.76.04-1.21.03-.45.07-.92.11-1.41.05-.49.1-.98.17-1.46.07-.49.14-.95.21-1.38h-.08c-.23.85-.46,1.65-.7,2.41-.24.76-.55,1.59-.93,2.49l-2.99,6.96h-3.44l-2.99-6.96c-.38-.9-.69-1.73-.93-2.49-.24-.76-.48-1.56-.7-2.41h-.08c.07.43.15.89.21,1.38.07.49.12.98.17,1.46.05.49.08.96.11,1.41.03.45.04.85.04,1.21v9.3h-3.55v-18.99h4.11l3.83,8.73c.38.85.69,1.67.94,2.48.25.81.43,1.56.52,2.25h.06c.09-.69.27-1.45.52-2.25.25-.81.57-1.63.94-2.48l3.83-8.73h4.11v18.99h-3.55Z"/>
        <path class="cls-3" d="m571.99,78.65h3.66v11.27c0,2.74-.68,4.77-2.03,6.09-1.35,1.32-3.22,1.97-5.61,1.97s-4.25-.66-5.61-1.97c-1.35-1.31-2.03-3.34-2.03-6.09v-11.27h3.66v11.3c0,1.71.35,2.98,1.06,3.8.7.83,1.68,1.24,2.92,1.24s2.21-.41,2.92-1.24c.7-.83,1.06-2.09,1.06-3.8v-11.3Z"/>
        <path class="cls-3" d="m593.77,97.64l-1.44-4.25h-6.87l-1.44,4.25h-3.83l6.85-18.99h3.72l6.85,18.99h-3.83Zm-3.44-10.14l-1.41-4.85h-.06l-1.41,4.85-.93,2.85h4.73l-.93-2.85Z"/>
        <path class="cls-3" d="m614.16,97.64l-6.48-10.76c-.39-.66-.75-1.31-1.06-1.94-.31-.64-.58-1.3-.8-2h-.08c.15.79.27,1.55.35,2.3.08.74.13,1.41.13,2.01v10.4h-3.66v-18.99h3.94l6.2,10.76c.39.66.75,1.31,1.06,1.94.31.64.58,1.31.8,2h.08c-.15-.79-.27-1.55-.35-2.3s-.13-1.41-.13-2.01v-10.4h3.66v18.99h-3.66Z"/>
        <path class="cls-3" d="m636.28,97.64l-.39-2.23c-.39.7-.94,1.28-1.65,1.76-.7.48-1.62.72-2.75.72s-2.23-.23-3.2-.69c-.97-.46-1.8-1.11-2.49-1.94-.69-.84-1.23-1.84-1.61-3.01-.38-1.17-.56-2.47-.56-3.9,0-1.58.22-2.99.66-4.23.44-1.24,1.08-2.29,1.92-3.14.84-.85,1.85-1.51,3.03-1.97,1.18-.46,2.51-.69,3.97-.69,2.03,0,3.85.42,5.47,1.27l-.9,2.79c-.66-.36-1.36-.62-2.1-.8-.74-.18-1.47-.27-2.18-.27-1.93,0-3.45.58-4.55,1.75-1.1,1.16-1.65,2.93-1.65,5.3,0,1,.12,1.9.37,2.7.24.81.59,1.5,1.03,2.07.44.57.96,1.01,1.55,1.32.59.31,1.23.46,1.93.46.51,0,.99-.08,1.44-.24.45-.16.84-.4,1.18-.73.34-.33.61-.74.8-1.24.2-.5.3-1.07.3-1.73v-1.13h-3.66v-3.04h7.21v10.85h-3.16Z"/>
      </g>
    </g>
  </g>
</svg>