<svg xmlns="http://www.w3.org/2000/svg" xmlns:xlink="http://www.w3.org/1999/xlink" id="Layer_1" x="0px" y="0px" viewBox="0 0 240 42" style="enable-background:new 0 0 240 42;" xml:space="preserve"><style type="text/css">	.st0{fill:#FDED7C;}	.st1{fill:#009ADE;}	.st2{fill:#6D6E74;}	.st3{fill:#FFC233;}	.st4{fill:#0074BC;}	.st5{fill:#58595B;}	.st6{fill:#1068D4;}	.st7{fill:#FFFFFF;}</style><g>	<path class="st0" d="M33.5-39.7h-9.6v-9.7h-11v9.7H3.4v10.9h9.5v9.5h11v-9.5h9.6V-39.7z"></path>	<path class="st1" d="M11.5-28.8H3.4v-10.9h9.5v-9.7h8.7l11-10.9H-4.2l-11,10.9H1.9v30.1L11.5-28.8z"></path>	<path class="st1" d="M45.8-49.4v9.7h-11v-20.6l-11,10.9v9.7h9.6v10.9h12.3v9.5l11-10.9v-30.1L45.8-49.4z M23.9-19.3l9.6-9.5h-9.6  V-19.3z"></path>	<path class="st2" d="M102.3-36.3c-1.1,0-1.9-0.2-2.4-0.7c-0.5-0.5-0.7-1.2-0.7-2.2v-11.4c0-1.1-0.2-1.9-0.6-2.4  c-0.4-0.6-1.1-1-1.9-1.3v-2.6h8.5v2.7H101c0.6,0.3,1,0.8,1.2,1.4s0.4,1.3,0.4,2.1v10.6c0,0.7,0.4,1.1,1.1,1.1h0.9v2.7H102.3z   M111.2-36c-1,0-1.9-0.1-2.8-0.2c-0.9-0.1-1.6-0.3-2.2-0.5v-2.8c0.7,0.3,1.4,0.5,2.2,0.6c0.8,0.1,1.5,0.2,2.2,0.2  c1.1,0,1.9-0.1,2.4-0.3c0.5-0.2,0.8-0.5,0.8-1.1c0-0.4-0.1-0.7-0.4-1c-0.3-0.2-0.7-0.4-1.2-0.6c-0.6-0.2-1.3-0.4-2.1-0.7  c-1.3-0.5-2.3-1-3-1.5c-0.7-0.6-1.1-1.4-1.1-2.5c0-1.2,0.5-2.3,1.5-3c1-0.8,2.4-1.2,4.4-1.2c0.8,0,1.6,0.1,2.4,0.2  c0.8,0.1,1.5,0.3,2,0.4v2.8c-0.6-0.2-1.2-0.4-2-0.5c-0.7-0.1-1.4-0.2-2-0.2c-0.8,0-1.5,0.1-2.1,0.3c-0.6,0.2-0.9,0.5-0.9,1.1  c0,0.3,0.1,0.6,0.4,0.8c0.3,0.2,0.7,0.4,1.3,0.6c0.6,0.2,1.2,0.4,2,0.7c1,0.3,1.8,0.7,2.3,1c0.6,0.4,1,0.8,1.3,1.3  c0.3,0.5,0.4,1.2,0.4,2c0,1.4-0.5,2.4-1.6,3.1C114.5-36.3,113-36,111.2-36z M124.8-36c-0.5,0-1,0-1.5-0.1c-0.5-0.1-1-0.2-1.4-0.3  l-4-9.6h3.4l3.1,7.5c1.3,0,2.2-0.4,2.8-1.3c0.6-0.9,0.9-2.2,0.9-3.9c0-1-0.1-1.9-0.3-2.4c-0.2-0.6-0.5-1-1-1.2  c-0.5-0.3-1.1-0.4-1.9-0.4H124v-2.5h1.6c2.1,0,3.6,0.5,4.5,1.6c1,1.1,1.5,2.7,1.5,4.9c0,1.8-0.3,3.3-0.9,4.4  c-0.6,1.1-1.4,2-2.4,2.5C127.3-36.3,126.1-36,124.8-36z M135.7-36.3l-3.3-14h3.4l1.8,9l2.1-6.8v-2.2h2.4l2.5,9l1.8-9h3.4l-3.3,14  h-3l-2.3-8l-2.5,8H135.7z M158.1-36c-1.2,0-2.4-0.1-3.4-0.4c-1-0.3-1.8-0.7-2.4-1.4c-0.6-0.7-0.9-1.6-0.9-2.7  c0-0.6,0.1-1.2,0.4-1.7c0.3-0.6,0.7-1,1.4-1.3c-0.5-0.2-0.9-0.6-1.2-1.1c-0.3-0.5-0.5-1.1-0.5-1.8c0-1.4,0.4-2.4,1.3-3.1  c0.9-0.7,2-1.1,3.4-1.1c0.5,0,1,0,1.4,0.1c0.4,0.1,0.7,0.1,1,0.3v2.6c-0.5-0.1-1.1-0.2-1.8-0.2c-0.6,0-1.1,0.1-1.5,0.3  c-0.3,0.2-0.5,0.6-0.5,1.1c0,0.6,0.2,1,0.5,1.2c0.4,0.2,0.9,0.3,1.6,0.3h1.5l0.1,2.6h-1.6c-1.5,0-2.2,0.6-2.2,1.8  c0,0.6,0.3,1,0.8,1.4c0.5,0.3,1.4,0.4,2.5,0.4c1.1,0,2-0.2,2.5-0.7c0.5-0.5,0.8-1.1,0.8-2v-8.8h3.5v8.5c0,2-0.6,3.5-1.7,4.4  C161.9-36.5,160.2-36,158.1-36z M172.8-36.3v-8.6c0-0.9-0.2-1.7-0.5-2.2c-0.4-0.5-1.1-0.8-2.2-0.8c-0.6,0-1.2,0.1-1.8,0.2  c-0.6,0.1-1.2,0.3-1.7,0.5v-2.6c0.5-0.2,1.2-0.4,1.9-0.6c0.8-0.2,1.5-0.2,2.3-0.2c2,0,3.4,0.4,4.3,1.3c0.9,0.8,1.3,2.1,1.3,3.9v9.1  H172.8z M186.1-36c-2.1,0-3.7-0.5-4.9-1.5c-1.2-1-1.8-2.5-1.8-4.4v-8.4h3.5v8.5c0,2.1,1.1,3.1,3.2,3.1c2.1,0,3.2-1,3.2-3.1v-8.5  h3.5v8.4c0,2-0.6,3.5-1.8,4.4C189.8-36.5,188.2-36,186.1-36z M200.9-36.3v-8.6c0-0.9-0.2-1.7-0.5-2.2c-0.4-0.5-1.1-0.8-2.2-0.8  c-0.6,0-1.2,0.1-1.8,0.2c-0.6,0.1-1.2,0.3-1.7,0.5v-2.6c0.5-0.2,1.2-0.4,1.9-0.6c0.8-0.2,1.5-0.2,2.3-0.2c2,0,3.4,0.4,4.3,1.3  c0.9,0.8,1.3,2.1,1.3,3.9v9.1H200.9z M211.9-36c-0.9,0-1.7-0.1-2.4-0.4c-0.7-0.3-1.3-0.8-1.8-1.4c-0.4-0.7-0.6-1.5-0.6-2.6  c0-1.4,0.5-2.5,1.4-3.2c1-0.8,2.3-1.1,4.1-1.1h4v-0.7c0-0.9-0.2-1.5-0.7-1.8c-0.5-0.4-1.3-0.5-2.6-0.5c-0.9,0-1.7,0.1-2.4,0.2  c-0.7,0.1-1.5,0.3-2.2,0.5v-2.6c0.7-0.2,1.5-0.4,2.5-0.6c0.9-0.2,1.9-0.2,2.8-0.2c2.1,0,3.7,0.4,4.7,1.3c1,0.9,1.6,2.3,1.6,4.1v8.8  h-3.5v-6h-3.8c-0.7,0-1.3,0.1-1.8,0.4c-0.4,0.3-0.6,0.7-0.6,1.4c0,0.6,0.2,1.1,0.6,1.3c0.4,0.2,1,0.4,1.9,0.4c0.3,0,0.6,0,1-0.1  c0.3,0,0.6-0.1,0.8-0.2v2.6c-0.3,0.1-0.7,0.2-1.2,0.3C213-36,212.5-36,211.9-36z M228.8-36c-1.2,0-2.3-0.1-3.3-0.3  c-1-0.2-1.9-0.5-2.6-0.8v-5.2h3.2v3.2c0.3,0.1,0.7,0.2,1.1,0.3c0.4,0.1,0.9,0.1,1.3,0.1c0.9,0,1.6-0.1,2.1-0.4  c0.5-0.3,0.8-0.8,0.8-1.5c0-0.5-0.2-0.9-0.5-1.1c-0.3-0.3-0.8-0.5-1.5-0.7c-0.6-0.2-1.4-0.4-2.3-0.6c-0.8-0.2-1.6-0.4-2.3-0.7  c-0.7-0.3-1.2-0.6-1.6-1.1c-0.4-0.5-0.6-1.1-0.6-1.9c0-1.2,0.5-2.2,1.6-2.9c1.1-0.7,2.6-1,4.7-1c1,0,2,0.1,2.9,0.2  c0.9,0.1,1.7,0.3,2.2,0.4v2.8c-0.6-0.2-1.3-0.4-2.1-0.5c-0.8-0.1-1.7-0.2-2.5-0.2c-0.5,0-1,0-1.6,0.1c-0.5,0.1-1,0.2-1.3,0.3  c-0.3,0.1-0.5,0.4-0.5,0.7c0,0.4,0.2,0.6,0.6,0.8c0.4,0.2,0.9,0.4,1.6,0.5c0.7,0.1,1.4,0.3,2.1,0.5c0.9,0.2,1.7,0.5,2.4,0.8  c0.7,0.3,1.2,0.7,1.5,1.3s0.5,1.3,0.5,2.2c0,1.5-0.5,2.6-1.6,3.4C232.1-36.4,230.6-36,228.8-36z M242-36c-1.5,0-2.7-0.5-3.6-1.4  c-0.9-0.9-1.3-2.2-1.3-3.8v-9.1h3.5v8.9c0,1,0.2,1.6,0.6,2.1c0.4,0.4,1.1,0.6,1.9,0.6c0.7,0,1.3-0.1,1.9-0.4c0.6-0.3,1.1-0.6,1.5-1  v-10.1h3.5v14h-3.2l-0.2-1.4c-0.6,0.5-1.3,0.9-2.1,1.2C243.9-36.2,243-36,242-36z M259.9-36c-2.1,0-3.7-0.5-4.9-1.5  c-1.2-1-1.8-2.5-1.8-4.4v-8.4h3.5v8.5c0,2.1,1.1,3.1,3.2,3.1c2.1,0,3.2-1,3.2-3.1v-8.5h3.5v8.4c0,2-0.6,3.5-1.8,4.4  C263.6-36.5,262-36,259.9-36z M263.6-29.7v-3H262l0.1-2.2h4.4v5.3H263.6z M274.4-36c-1,0-1.9-0.1-2.8-0.2c-0.9-0.1-1.6-0.3-2.2-0.5  v-2.8c0.7,0.3,1.4,0.5,2.2,0.6c0.8,0.1,1.5,0.2,2.2,0.2c1.1,0,1.9-0.1,2.4-0.3c0.5-0.2,0.8-0.5,0.8-1.1c0-0.4-0.1-0.7-0.4-1  c-0.3-0.2-0.7-0.4-1.2-0.6c-0.6-0.2-1.3-0.4-2.1-0.7c-1.3-0.5-2.3-1-3-1.5c-0.7-0.6-1.1-1.4-1.1-2.5c0-1.2,0.5-2.3,1.5-3  c1-0.8,2.4-1.2,4.4-1.2c0.8,0,1.6,0.1,2.4,0.2c0.8,0.1,1.5,0.3,2,0.4v2.8c-0.6-0.2-1.2-0.4-2-0.5c-0.7-0.1-1.4-0.2-2-0.2  c-0.8,0-1.5,0.1-2.1,0.3c-0.6,0.2-0.9,0.5-0.9,1.1c0,0.3,0.1,0.6,0.4,0.8c0.3,0.2,0.7,0.4,1.3,0.6c0.6,0.2,1.2,0.4,2,0.7  c1,0.3,1.8,0.7,2.3,1c0.6,0.4,1,0.8,1.3,1.3c0.3,0.5,0.4,1.2,0.4,2c0,1.4-0.5,2.4-1.6,3.1C277.7-36.3,276.2-36,274.4-36z   M268.3-52.2l0.2-2.4h8.3v-2.1h2.9v4.5H268.3z"></path></g><g>	<g>		<polygon class="st3" points="44.9,21.4 36.3,21.4 36.3,12.7 26.5,12.7 26.5,21.4 18,21.4 18,31.2 26.5,31.2 26.5,39.7 36.3,39.7    36.3,31.2 44.9,31.2   "></polygon>		<polygon class="st4" points="25.3,31.2 18,31.2 18,21.4 26.5,21.4 26.5,12.7 34.3,12.7 44.1,2.9 11.2,2.9 1.5,12.7 16.7,12.7    16.7,39.7   "></polygon>		<path class="st4" d="M55.9,12.7v8.7h-9.8V2.9l-9.8,9.8v8.7h8.6v9.8h11v8.6l9.8-9.8v-27L55.9,12.7z M36.3,39.7l8.6-8.6h-8.6V39.7z"></path>	</g>	<g>		<path class="st4" d="M78.1,2.8c-0.2,0-0.3,0-0.5,0c-0.1,0-0.3,0-0.4,0.1C77.1,2.9,77,3,76.9,3c-0.1,0.1-0.1,0.1-0.1,0.2   c0,0.2,0.1,0.3,0.2,0.4c0.2,0.1,0.3,0.3,0.5,0.4c0.2,0.2,0.4,0.4,0.5,0.6c0.2,0.2,0.2,0.6,0.2,1v15.6h-2.8V6.1   c0-0.4-0.1-0.7-0.2-0.9C75.1,5,75,4.8,74.8,4.6c-0.2-0.2-0.4-0.4-0.5-0.6C74.1,3.7,74,3.4,74,3.1c0-0.3,0.1-0.5,0.2-0.8   c0.1-0.3,0.3-0.5,0.6-0.7c0.3-0.2,0.6-0.3,0.9-0.5C76.1,1,76.5,1,77,1l4.1,0.1v1.8L78.1,2.8z"></path>		<path class="st4" d="M93.1,16.9c0,0.9-0.2,1.6-0.5,2.2c-0.3,0.6-0.8,1.1-1.4,1.4c-0.6,0.3-1.2,0.6-1.9,0.7   c-0.7,0.1-1.5,0.2-2.2,0.2c-0.8,0-1.5-0.1-2.2-0.2c-0.7-0.1-1.3-0.4-1.9-0.8c-0.5-0.4-1-0.9-1.3-1.6c-0.3-0.7-0.5-1.5-0.5-2.6h2.9   c0,0.6,0.1,1.1,0.3,1.4s0.4,0.7,0.7,0.9c0.3,0.2,0.6,0.4,1,0.4c0.4,0.1,0.7,0.1,1.1,0.1c0.4,0,0.8,0,1.2-0.1   c0.4-0.1,0.7-0.2,1-0.4c0.3-0.2,0.5-0.4,0.7-0.7c0.2-0.3,0.3-0.6,0.3-1c0-0.3-0.1-0.6-0.3-0.9c-0.2-0.2-0.4-0.4-0.7-0.5   c-0.3-0.1-0.6-0.2-0.9-0.3c-0.3-0.1-0.7-0.1-1-0.1c-0.8-0.1-1.6-0.2-2.3-0.3c-0.7-0.1-1.3-0.3-1.9-0.5c-0.5-0.2-1-0.6-1.3-1   s-0.5-1-0.5-1.8c0-0.6,0.1-1.1,0.4-1.5c0.3-0.5,0.7-0.9,1.2-1.2c0.5-0.3,1.1-0.6,1.8-0.8c0.7-0.2,1.4-0.3,2.1-0.3   c0.7,0,1.4,0.1,2.1,0.2c0.7,0.1,1.3,0.4,1.9,0.7c0.5,0.3,1,0.8,1.4,1.3c0.4,0.5,0.5,1.2,0.6,2h-2.9c0-0.4-0.1-0.7-0.4-0.9   c-0.2-0.2-0.5-0.4-0.8-0.6c-0.3-0.2-0.6-0.3-1-0.3c-0.4-0.1-0.7-0.1-1-0.1c-0.3,0-0.7,0-1,0.1c-0.3,0.1-0.6,0.1-0.8,0.3   s-0.4,0.3-0.6,0.4s-0.2,0.4-0.2,0.6c0,0.2,0.1,0.4,0.3,0.5s0.5,0.3,0.8,0.3c0.3,0.1,0.7,0.1,1.1,0.2c0.4,0,0.8,0.1,1.3,0.1   c0.7,0.1,1.3,0.2,2,0.3c0.6,0.1,1.2,0.4,1.7,0.7s0.9,0.7,1.2,1.2C93,15.4,93.1,16.1,93.1,16.9z"></path>		<path class="st4" d="M105.9,12.7c0.1,0.6,0.1,1.2,0.1,1.9s-0.1,1.3-0.3,1.9c-0.2,0.6-0.4,1.2-0.7,1.8c-0.3,0.6-0.7,1.1-1.2,1.5   c-0.5,0.4-1.1,0.8-1.8,1s-1.5,0.4-2.4,0.4h-1.9l-3.6-10.7l2.4-1.8l3.3,10h0c0.6,0,1.2-0.2,1.6-0.5c0.4-0.3,0.8-0.7,1.1-1.2   c0.3-0.5,0.4-1.1,0.5-1.7c0.1-0.7,0.1-1.3,0.1-2c-0.1-1.2-0.5-2-1.3-2.5c-0.8-0.5-2-0.7-3.6-0.4V7.9c1.2-0.2,2.3-0.2,3.2,0   c0.9,0.2,1.7,0.5,2.4,0.9c0.7,0.4,1.2,1,1.5,1.7C105.6,11.1,105.8,11.9,105.9,12.7z"></path>		<path class="st4" d="M122,19.1c-0.2,0.5-0.5,1-0.8,1.3c-0.4,0.3-0.8,0.6-1.2,0.7c-0.5,0.2-1,0.2-1.6,0.2c-0.4,0-0.8,0-1.1-0.1   c-0.3-0.1-0.6-0.2-0.9-0.4c-0.3-0.1-0.5-0.3-0.7-0.5s-0.4-0.4-0.5-0.6c-0.1,0.2-0.3,0.4-0.5,0.6c-0.2,0.2-0.4,0.3-0.7,0.5   c-0.3,0.1-0.5,0.3-0.9,0.4c-0.3,0.1-0.7,0.1-1.1,0.1c-0.5,0-1.1-0.1-1.5-0.2c-0.5-0.2-0.9-0.4-1.2-0.7c-0.4-0.3-0.6-0.8-0.8-1.3   c-0.2-0.5-0.3-1.2-0.3-1.9V8h2.9v9.2c0,0.6,0.1,1.1,0.3,1.5c0.2,0.3,0.5,0.5,1,0.5c0.4,0,0.8-0.2,1.1-0.5c0.3-0.4,0.4-0.9,0.4-1.6   V8h2.8v8.9c0,0.7,0.1,1.3,0.4,1.6c0.3,0.4,0.7,0.5,1.1,0.5c0.4,0,0.8-0.2,1-0.5c0.2-0.3,0.3-0.8,0.3-1.5V8h2.8v9.2   C122.3,18,122.1,18.6,122,19.1z"></path>		<path class="st4" d="M130.4,21.3c-2,0.1-3.5-0.3-4.6-1c-1.1-0.7-1.6-1.8-1.5-3.3c0-0.4,0.1-0.7,0.2-1c0.1-0.3,0.3-0.6,0.5-0.9   c0.2-0.3,0.5-0.5,0.8-0.7c0.3-0.2,0.6-0.3,0.9-0.4c-0.2-0.1-0.5-0.1-0.7-0.3c-0.3-0.1-0.5-0.3-0.7-0.5c-0.2-0.2-0.4-0.5-0.5-0.8   c-0.1-0.3-0.2-0.6-0.2-1c0-0.8,0.2-1.5,0.7-2c0.5-0.6,1.1-1,1.9-1.2c0.4-0.1,1-0.2,1.6-0.2s1.2,0,1.8,0.1v2.3   c-0.4-0.1-0.9-0.1-1.3-0.1s-0.7,0-1,0.1c-0.3,0.1-0.5,0.2-0.7,0.4c-0.2,0.2-0.3,0.4-0.3,0.7c0,0.3,0.1,0.5,0.2,0.6   c0.1,0.1,0.3,0.3,0.5,0.4c0.2,0.1,0.5,0.1,0.8,0.2c0.3,0,0.6,0,0.9,0h1.3v2.3h-0.9c-1,0-1.8,0.2-2.3,0.6c-0.5,0.4-0.8,0.9-0.8,1.5   c0,0.4,0.1,0.8,0.3,1c0.2,0.3,0.4,0.5,0.8,0.6c0.3,0.1,0.7,0.3,1.1,0.3c0.4,0.1,0.9,0.1,1.4,0.1l3.2-0.1V8h2.8v13.2L130.4,21.3z"></path>		<path class="st4" d="M142.2,21.2v-9.3c0-0.3-0.1-0.5-0.3-0.8c-0.2-0.2-0.4-0.4-0.7-0.6s-0.7-0.2-1.2-0.3c-0.5,0-1,0-1.6,0.1V8   c0.9-0.1,1.8-0.2,2.6-0.1c0.8,0.1,1.5,0.3,2.1,0.5s1.1,0.7,1.4,1.2s0.5,1.1,0.5,1.8v9.8L142.2,21.2L142.2,21.2z"></path>		<path class="st4" d="M158.9,18.9c-0.3,0.6-0.8,1-1.3,1.4s-1.2,0.6-1.9,0.8c-0.7,0.2-1.5,0.3-2.2,0.3c-0.8,0-1.5-0.1-2.3-0.3   s-1.3-0.4-1.9-0.8s-1-0.8-1.3-1.4c-0.3-0.6-0.5-1.2-0.5-2V8h2.9v8.8c0,0.4,0.1,0.8,0.3,1.1c0.2,0.3,0.4,0.5,0.7,0.7   c0.3,0.2,0.6,0.3,1,0.4c0.4,0.1,0.8,0.1,1.2,0.1c0.4,0,0.8,0,1.2-0.1c0.4-0.1,0.7-0.2,1-0.4c0.3-0.2,0.5-0.4,0.7-0.7   c0.2-0.3,0.3-0.6,0.3-1.1V8h2.8v8.9C159.4,17.7,159.2,18.4,158.9,18.9z"></path>		<path class="st4" d="M164.8,21.2v-9.3c0-0.3-0.1-0.5-0.3-0.8c-0.2-0.2-0.4-0.4-0.7-0.6c-0.3-0.1-0.7-0.2-1.2-0.3   c-0.5,0-1,0-1.6,0.1V8c0.9-0.1,1.8-0.2,2.6-0.1c0.8,0.1,1.5,0.3,2.1,0.5s1.1,0.7,1.4,1.2s0.5,1.1,0.5,1.8v9.8L164.8,21.2   L164.8,21.2z"></path>		<path class="st4" d="M179.1,21.2v-6.4c-0.2,0.1-0.4,0.2-0.8,0.3c-0.3,0.1-0.7,0.1-1.1,0.2c-0.4,0-0.8,0.1-1.2,0.1   c-0.4,0-0.8,0.1-1.1,0.1c-0.3,0-0.6,0.1-0.9,0.1c-0.3,0.1-0.6,0.2-0.8,0.3c-0.2,0.1-0.4,0.3-0.6,0.6c-0.2,0.2-0.2,0.5-0.2,0.8   c0,0.5,0.1,0.9,0.4,1.1s0.7,0.4,1.1,0.5c0.4,0.1,0.9,0.1,1.4,0c0.5-0.1,1-0.1,1.5-0.3v2.5c-0.9,0.1-1.8,0.2-2.7,0.2   c-0.9,0-1.6-0.1-2.3-0.4c-0.7-0.3-1.2-0.7-1.6-1.3c-0.4-0.6-0.6-1.4-0.6-2.4c0-1.3,0.4-2.3,1.2-3c0.8-0.7,1.9-1.1,3.3-1.3   c0.4,0,1-0.1,1.5-0.1c0.6,0,1.1,0,1.6-0.1c0.5-0.1,0.9-0.2,1.2-0.4c0.3-0.2,0.5-0.5,0.5-0.9c0-0.3-0.1-0.5-0.2-0.7   c-0.2-0.2-0.4-0.4-0.6-0.5c-0.3-0.1-0.6-0.2-0.9-0.3c-0.4-0.1-0.7-0.1-1.1-0.1c-0.4,0-0.7,0-1.1,0.1c-0.4,0.1-0.7,0.2-1,0.4   s-0.5,0.4-0.8,0.6c-0.2,0.2-0.3,0.5-0.4,0.8h-2.9c0.1-0.8,0.4-1.5,0.8-2c0.4-0.5,0.9-1,1.5-1.3c0.6-0.3,1.2-0.6,1.9-0.7   c0.7-0.1,1.4-0.2,2.1-0.2c0.7,0,1.4,0.1,2.1,0.2c0.7,0.1,1.3,0.4,1.9,0.7s1,0.7,1.3,1.3c0.3,0.5,0.5,1.2,0.5,2v9.3L179.1,21.2   L179.1,21.2z"></path>		<path class="st4" d="M196,16.6c0,1-0.1,1.7-0.4,2.3c-0.3,0.6-0.7,1.1-1.1,1.4c-0.5,0.3-1,0.6-1.7,0.7c-0.6,0.1-1.3,0.2-2,0.2h-6.4   v-6.5h2.9v4.2h2.9c0.4,0,0.8,0,1.2-0.1c0.4-0.1,0.7-0.2,1-0.3c0.3-0.2,0.5-0.4,0.7-0.7c0.2-0.3,0.2-0.7,0.2-1.1   c0-0.4-0.1-0.7-0.3-0.9c-0.1-0.3-0.4-0.5-0.6-0.6c-0.3-0.2-0.6-0.3-0.9-0.4c-0.4-0.1-0.7-0.2-1.2-0.2c-0.8-0.1-1.6-0.1-2.3-0.2   c-0.7-0.1-1.4-0.2-2-0.4c-0.6-0.2-1-0.5-1.3-0.9c-0.3-0.4-0.5-1-0.4-1.7c0-0.5,0.2-1,0.5-1.4c0.3-0.4,0.7-0.8,1.2-1.1   c0.5-0.3,1.1-0.5,1.8-0.7c0.7-0.2,1.5-0.3,2.3-0.3c0.7,0,1.5,0.1,2.1,0.2s1.3,0.3,1.9,0.7c0.5,0.3,1,0.7,1.4,1.2   c0.4,0.5,0.6,1.1,0.7,1.9H193c-0.1-0.3-0.2-0.5-0.4-0.8c-0.2-0.2-0.5-0.4-0.8-0.5c-0.3-0.1-0.7-0.2-1-0.3   c-0.4-0.1-0.7-0.1-1.1-0.1s-0.7,0-1.1,0.1c-0.3,0.1-0.6,0.1-0.9,0.2c-0.2,0.1-0.4,0.2-0.6,0.4c-0.1,0.1-0.2,0.3-0.2,0.4   c0,0.2,0.1,0.3,0.3,0.4c0.2,0.1,0.5,0.2,0.8,0.2c0.4,0.1,0.8,0.1,1.2,0.1c0.4,0,0.9,0.1,1.4,0.1c0.7,0.1,1.3,0.2,2,0.3   c0.6,0.2,1.2,0.4,1.7,0.7c0.5,0.3,0.9,0.8,1.2,1.3C195.8,15,196,15.7,196,16.6z"></path>		<path class="st4" d="M207.2,21.2v-1.8c-0.2,0.3-0.5,0.5-0.8,0.8c-0.3,0.2-0.7,0.5-1.1,0.7c-0.4,0.2-0.8,0.3-1.2,0.4   c-0.4,0.1-0.9,0.2-1.3,0.2c-0.7,0-1.4-0.1-2-0.3c-0.6-0.2-1.1-0.4-1.5-0.8c-0.4-0.4-0.7-0.8-0.9-1.3c-0.2-0.5-0.3-1.2-0.3-1.9V8   h2.9v9.1c0,0.7,0.2,1.2,0.6,1.5c0.4,0.3,1,0.5,1.6,0.5c0.6,0,1.1-0.1,1.6-0.3c0.5-0.2,0.9-0.5,1.3-0.8c0.4-0.3,0.6-0.7,0.8-1   c0.2-0.4,0.3-0.7,0.3-1V8h2.8v13.2C210,21.2,207.2,21.2,207.2,21.2z"></path>		<path class="st4" d="M223.9,18.9c-0.3,0.6-0.8,1-1.3,1.4s-1.2,0.6-1.9,0.8c-0.7,0.2-1.5,0.3-2.2,0.3c-0.8,0-1.5-0.1-2.3-0.3   c-0.7-0.2-1.3-0.4-1.9-0.8s-1-0.8-1.3-1.4c-0.3-0.6-0.5-1.2-0.5-2V8h2.9v8.8c0,0.4,0.1,0.8,0.3,1.1c0.2,0.3,0.4,0.5,0.7,0.7   c0.3,0.2,0.6,0.3,1,0.4c0.4,0.1,0.8,0.1,1.2,0.1c0.4,0,0.8,0,1.2-0.1c0.4-0.1,0.7-0.2,1-0.4c0.3-0.2,0.5-0.4,0.7-0.7   c0.2-0.3,0.3-0.6,0.3-1.1V8h2.8v8.9C224.4,17.7,224.2,18.4,223.9,18.9z"></path>		<path class="st4" d="M221.5,26.5V24h-1.3v-1.8h4.2v4.3L221.5,26.5L221.5,26.5z"></path>		<path class="st4" d="M238,16.9c0,0.9-0.2,1.6-0.5,2.2c-0.3,0.6-0.8,1.1-1.4,1.4c-0.6,0.3-1.2,0.6-1.9,0.7   c-0.7,0.1-1.5,0.2-2.2,0.2c-0.8,0-1.5-0.1-2.2-0.2c-0.7-0.1-1.3-0.4-1.9-0.8c-0.5-0.4-1-0.9-1.3-1.6c-0.3-0.7-0.5-1.5-0.5-2.6h2.9   c0,0.6,0.1,1.1,0.3,1.4s0.4,0.7,0.7,0.9c0.3,0.2,0.6,0.4,1,0.4c0.4,0.1,0.7,0.1,1.1,0.1c0.4,0,0.8,0,1.2-0.1s0.7-0.2,1-0.4   s0.5-0.4,0.7-0.7c0.2-0.3,0.3-0.6,0.3-1c0-0.3-0.1-0.6-0.3-0.9c-0.2-0.2-0.4-0.4-0.7-0.5c-0.3-0.1-0.6-0.2-0.9-0.3   c-0.3-0.1-0.7-0.1-1-0.1c-0.8-0.1-1.6-0.2-2.3-0.3c-0.7-0.1-1.3-0.3-1.9-0.5c-0.5-0.2-1-0.6-1.3-1s-0.5-1-0.5-1.8   c0-0.6,0.1-1.1,0.4-1.5c0.3-0.5,0.7-0.9,1.2-1.2c0.5-0.3,1.1-0.6,1.8-0.8c0.7-0.2,1.4-0.3,2.1-0.3c0.7,0,1.4,0.1,2.1,0.2   c0.7,0.1,1.3,0.4,1.9,0.7c0.5,0.3,1,0.8,1.4,1.3c0.4,0.5,0.5,1.2,0.6,2H235c0-0.4-0.1-0.7-0.4-0.9c-0.2-0.2-0.5-0.4-0.8-0.6   c-0.3-0.2-0.6-0.3-1-0.3c-0.4-0.1-0.7-0.1-1-0.1s-0.7,0-1,0.1c-0.3,0.1-0.6,0.1-0.8,0.3c-0.3,0.1-0.4,0.3-0.6,0.4   c-0.1,0.2-0.2,0.4-0.2,0.6c0,0.2,0.1,0.4,0.3,0.5s0.5,0.3,0.8,0.3c0.3,0.1,0.7,0.1,1.1,0.2s0.8,0.1,1.3,0.1c0.7,0.1,1.3,0.2,2,0.3   c0.6,0.1,1.2,0.4,1.7,0.7c0.5,0.3,0.9,0.7,1.2,1.2C237.8,15.4,238,16.1,238,16.9z"></path>		<path class="st4" d="M227.2,6.3V4.6h7.9V2.9h2.9v3.5H227.2z"></path>	</g>	<g>		<g>			<path class="st5" d="M78.4,39.7v-8.4l-2.9,0v-1.7h7.7v1.7l-2.9,0v8.4H78.4z"></path>			<path class="st5" d="M91.7,39.7v-4.3h-4.1v4.3h-1.9v-10h1.9v4.1h4.1v-4.1h1.9v10L91.7,39.7L91.7,39.7z"></path>			<path class="st5" d="M101.4,39.9c-0.8,0-1.5-0.1-2-0.4s-1.1-0.6-1.5-1.1c-0.4-0.5-0.7-1-0.9-1.6c-0.2-0.6-0.3-1.3-0.3-2    s0.1-1.4,0.3-2c0.2-0.6,0.5-1.2,0.9-1.6c0.4-0.5,0.9-0.8,1.5-1.1c0.6-0.3,1.3-0.4,2-0.4c0.8,0,1.5,0.1,2,0.4    c0.6,0.3,1.1,0.6,1.5,1.1c0.4,0.5,0.7,1,0.9,1.6c0.2,0.6,0.3,1.3,0.3,2s-0.1,1.4-0.3,2c-0.2,0.6-0.5,1.2-0.9,1.6    c-0.4,0.5-0.9,0.8-1.5,1.1C102.8,39.8,102.2,39.9,101.4,39.9z M101.4,38.3c0.9,0,1.6-0.3,2-0.9s0.7-1.5,0.7-2.7    c0-1.1-0.2-2-0.7-2.7c-0.5-0.6-1.1-0.9-2-0.9c-0.9,0-1.6,0.3-2,0.9c-0.5,0.6-0.7,1.5-0.7,2.7c0,1.1,0.2,2,0.7,2.7    C99.8,38,100.5,38.3,101.4,38.3z"></path>			<path class="st5" d="M115.2,39.7l-3.4-5.7c-0.2-0.3-0.4-0.7-0.6-1c-0.2-0.3-0.3-0.7-0.4-1.1h0c0.1,0.4,0.1,0.8,0.2,1.2    c0,0.4,0.1,0.7,0.1,1.1v5.5h-1.9v-10h2.1l3.3,5.7c0.2,0.3,0.4,0.7,0.6,1c0.2,0.3,0.3,0.7,0.4,1.1h0c-0.1-0.4-0.1-0.8-0.2-1.2    c0-0.4-0.1-0.7-0.1-1.1v-5.5h1.9v10C117.1,39.7,115.2,39.7,115.2,39.7z"></path>			<path class="st5" d="M120.7,39.7v-10h4.1c1.1,0,1.9,0.3,2.5,0.7c0.5,0.5,0.8,1.1,0.8,2c0,0.3,0,0.5-0.1,0.7    c-0.1,0.2-0.2,0.4-0.3,0.6c-0.1,0.2-0.3,0.3-0.4,0.4c-0.2,0.1-0.3,0.2-0.5,0.3c0.5,0.1,0.9,0.4,1.2,0.8c0.3,0.4,0.5,0.9,0.5,1.6    c0,0.4-0.1,0.8-0.2,1.2c-0.1,0.4-0.4,0.7-0.7,0.9s-0.7,0.5-1.2,0.6c-0.5,0.1-1,0.2-1.7,0.2L120.7,39.7L120.7,39.7z M124.8,33.8    c0.4,0,0.8-0.1,1-0.3c0.3-0.2,0.4-0.5,0.4-1c0-0.4-0.1-0.7-0.4-0.9c-0.3-0.2-0.6-0.3-1.1-0.3h-2.2v2.5H124.8z M124.7,38.1    c0.6,0,1.1-0.1,1.4-0.4c0.3-0.3,0.5-0.6,0.5-1.1c0-0.4-0.2-0.8-0.5-1c-0.3-0.2-0.8-0.3-1.4-0.3h-2.1v2.8H124.7z"></path>			<path class="st5" d="M137.6,29.7h1.9v5.9c0,1.5-0.4,2.5-1.1,3.2c-0.7,0.7-1.7,1-2.9,1c-1.3,0-2.2-0.3-2.9-1    c-0.7-0.7-1.1-1.8-1.1-3.2v-5.9h1.9v6c0,0.9,0.2,1.6,0.6,2c0.4,0.4,0.9,0.7,1.5,0.7c0.7,0,1.2-0.2,1.5-0.7s0.6-1.1,0.6-2    L137.6,29.7L137.6,29.7z"></path>			<path class="st5" d="M148.6,39.7l-2.1-3.7H145v3.7h-1.9v-10h3.7c0.6,0,1.1,0.1,1.5,0.3c0.4,0.2,0.8,0.4,1.1,0.7    c0.3,0.3,0.5,0.6,0.7,1c0.2,0.4,0.2,0.8,0.2,1.2c0,0.7-0.2,1.3-0.6,1.8c-0.4,0.5-0.9,0.8-1.5,1.1l2.4,4.1L148.6,39.7L148.6,39.7z     M146.8,34.3c0.5,0,0.9-0.1,1.2-0.4c0.3-0.3,0.4-0.6,0.4-1.1c0-0.4-0.1-0.8-0.4-1.1c-0.3-0.3-0.7-0.4-1.2-0.4H145v2.9L146.8,34.3    L146.8,34.3z"></path>			<path class="st5" d="M153.4,39.7v-10h1.9v10H153.4z"></path>			<path class="st5" d="M169.8,39.7v-4.3h-4.1v4.3h-1.9v-10h1.9v4.1h4.1v-4.1h1.9v10L169.8,39.7L169.8,39.7z"></path>			<path class="st5" d="M179.5,39.9c-0.8,0-1.5-0.1-2-0.4s-1.1-0.6-1.5-1.1c-0.4-0.5-0.7-1-0.9-1.6c-0.2-0.6-0.3-1.3-0.3-2    s0.1-1.4,0.3-2c0.2-0.6,0.5-1.2,0.9-1.6c0.4-0.5,0.9-0.8,1.5-1.1c0.6-0.3,1.3-0.4,2-0.4c0.8,0,1.5,0.1,2,0.4    c0.6,0.3,1.1,0.6,1.5,1.1c0.4,0.5,0.7,1,0.9,1.6c0.2,0.6,0.3,1.3,0.3,2s-0.1,1.4-0.3,2c-0.2,0.6-0.5,1.2-0.9,1.6    c-0.4,0.5-0.9,0.8-1.5,1.1C180.9,39.8,180.3,39.9,179.5,39.9z M179.5,38.3c0.9,0,1.6-0.3,2-0.9c0.5-0.6,0.7-1.5,0.7-2.7    c0-1.1-0.2-2-0.7-2.7c-0.5-0.6-1.1-0.9-2-0.9s-1.6,0.3-2,0.9c-0.5,0.6-0.7,1.5-0.7,2.7c0,1.1,0.2,2,0.7,2.7    C177.9,38,178.6,38.3,179.5,38.3z"></path>			<path class="st5" d="M187.2,37.6c0.4,0.2,0.8,0.4,1.2,0.5c0.4,0.1,0.9,0.2,1.3,0.2c0.6,0,1-0.1,1.4-0.3c0.4-0.2,0.6-0.6,0.6-1    c0-0.2-0.1-0.4-0.2-0.6c-0.1-0.2-0.3-0.3-0.5-0.4c-0.2-0.1-0.4-0.2-0.7-0.3c-0.2-0.1-0.5-0.2-0.8-0.3c-0.3-0.1-0.6-0.2-1-0.4    c-0.3-0.1-0.7-0.3-1-0.6c-0.3-0.2-0.5-0.5-0.7-0.9c-0.2-0.3-0.3-0.8-0.3-1.3c0-0.4,0.1-0.7,0.2-1.1c0.1-0.3,0.3-0.6,0.6-0.9    c0.3-0.3,0.7-0.4,1.1-0.6c0.4-0.1,1-0.2,1.6-0.2c0.6,0,1.1,0.1,1.6,0.2c0.5,0.1,0.9,0.3,1.3,0.5l-0.5,1.5    c-0.4-0.2-0.8-0.3-1.2-0.4c-0.4-0.1-0.8-0.1-1.1-0.1c-0.6,0-1,0.1-1.3,0.3c-0.3,0.2-0.4,0.5-0.4,0.8c0,0.2,0.1,0.4,0.2,0.6    c0.1,0.2,0.3,0.3,0.4,0.4c0.2,0.1,0.4,0.2,0.6,0.3c0.2,0.1,0.5,0.2,0.7,0.3c0.4,0.1,0.7,0.3,1.1,0.4c0.4,0.1,0.7,0.4,1,0.6    s0.5,0.5,0.7,0.9c0.2,0.3,0.3,0.8,0.3,1.3s-0.1,0.9-0.3,1.3c-0.2,0.4-0.5,0.7-0.8,0.9c-0.3,0.3-0.7,0.4-1.2,0.5    c-0.5,0.1-0.9,0.2-1.5,0.2c-0.7,0-1.3-0.1-1.8-0.2c-0.5-0.1-1-0.3-1.4-0.6L187.2,37.6z"></path>			<path class="st5" d="M196.7,39.7v-10h3.6c0.5,0,1,0.1,1.5,0.3c0.4,0.2,0.8,0.4,1.1,0.7c0.3,0.3,0.5,0.6,0.7,1    c0.2,0.4,0.2,0.8,0.2,1.3c0,0.5-0.1,0.9-0.3,1.3c-0.2,0.4-0.4,0.8-0.7,1.1c-0.3,0.3-0.7,0.5-1.1,0.7c-0.4,0.2-0.9,0.3-1.5,0.3    h-1.6v3.5C198.6,39.7,196.7,39.7,196.7,39.7z M200.2,34.6c0.5,0,0.9-0.1,1.2-0.4c0.3-0.3,0.4-0.7,0.4-1.2c0-0.5-0.1-0.9-0.4-1.1    c-0.3-0.3-0.7-0.4-1.2-0.4h-1.7v3.2L200.2,34.6L200.2,34.6z"></path>			<path class="st5" d="M206.8,39.7v-10h1.9v10H206.8z"></path>			<path class="st5" d="M214.2,39.7v-8.4l-2.9,0v-1.7h7.7v1.7l-2.9,0v8.4H214.2z"></path>			<path class="st5" d="M227,39.7l-0.8-2.2h-3.6l-0.8,2.2h-2l3.6-10h2l3.6,10H227z M225.2,34.4l-0.7-2.5h0l-0.7,2.5l-0.5,1.5h2.5    L225.2,34.4z"></path>			<path class="st5" d="M231.6,39.7v-10l1.9,0v8.4h4.4v1.7H231.6z"></path>		</g>	</g></g><polygon class="st6" points="52.6,137.3 46.2,137.3 46.2,130.9 38.9,130.9 38.9,137.3 32.6,137.3 32.6,144.6 38.9,144.6 38.9,150.9  46.2,150.9 46.2,144.6 52.6,144.6 "></polygon><polygon class="st7" points="38,144.6 32.6,144.6 32.6,137.3 38.9,137.3 38.9,130.9 44.8,130.9 52,123.7 27.6,123.7 20.3,130.9  31.7,130.9 31.7,150.9 "></polygon><path class="st7" d="M60.8,130.9v6.4h-7.3v-13.6l-7.3,7.2v6.4h6.4v7.2h8.2v6.3l7.3-7.2v-20L60.8,130.9z M46.2,150.9l6.4-6.3h-6.4 V150.9z"></path><path class="st7" d="M77.6,124.8h-0.3c-0.1,0-0.2,0-0.3,0c-0.1,0-0.1,0-0.2,0.1c0,0-0.1,0.1-0.1,0.2c0,0.1,0.1,0.2,0.1,0.3 c0.1,0.1,0.2,0.2,0.3,0.3c0.1,0.1,0.2,0.2,0.3,0.4c0.1,0.2,0.2,0.4,0.2,0.6v10h-1.8v-9.7c0-0.2,0-0.4-0.2-0.6 c-0.1-0.1-0.2-0.3-0.3-0.4c-0.1-0.1-0.2-0.3-0.3-0.4c-0.1-0.2-0.2-0.4-0.2-0.6c0-0.4,0.2-0.7,0.5-0.9c0.2-0.1,0.4-0.2,0.6-0.3 c0.3-0.1,0.6-0.1,0.9-0.1l2.7,0v1.2L77.6,124.8z"></path><path class="st7" d="M87,133.8c0,0.5-0.1,1-0.3,1.4c-0.2,0.4-0.5,0.7-0.9,0.9c-0.4,0.2-0.8,0.4-1.2,0.5c-0.5,0.1-0.9,0.1-1.4,0.1 c-0.5,0-0.9,0-1.4-0.1c-0.4-0.1-0.8-0.3-1.2-0.5c-0.4-0.3-0.7-0.6-0.9-1c-0.2-0.5-0.4-1.1-0.3-1.7h1.9c0,0.3,0,0.6,0.2,0.9 c0.1,0.2,0.3,0.4,0.5,0.6c0.2,0.1,0.4,0.2,0.6,0.3c0.2,0.1,0.5,0.1,0.7,0.1c0.3,0,0.5,0,0.8-0.1c0.2,0,0.4-0.1,0.7-0.2 c0.2-0.1,0.3-0.2,0.5-0.4c0.1-0.2,0.2-0.4,0.2-0.7c0-0.2-0.1-0.4-0.2-0.5c-0.1-0.1-0.3-0.3-0.4-0.3c-0.2-0.1-0.4-0.2-0.6-0.2 c-0.2,0-0.4-0.1-0.6-0.1c-0.5,0-1-0.1-1.5-0.2c-0.4-0.1-0.8-0.2-1.2-0.3c-0.3-0.1-0.6-0.4-0.8-0.6c-0.4-0.6-0.4-1.5,0-2.1 c0.2-0.3,0.5-0.6,0.8-0.8c0.4-0.2,0.7-0.4,1.1-0.5c0.5-0.1,0.9-0.2,1.4-0.2c0.5,0,0.9,0,1.4,0.1c0.4,0.1,0.8,0.2,1.2,0.5 c0.4,0.2,0.7,0.5,0.9,0.8c0.2,0.4,0.4,0.8,0.4,1.3H85c0-0.2-0.1-0.4-0.2-0.6c-0.1-0.2-0.3-0.3-0.5-0.4c-0.2-0.1-0.4-0.2-0.6-0.2 c-0.2,0-0.4-0.1-0.7-0.1c-0.2,0-0.4,0-0.6,0.1c-0.2,0-0.4,0.1-0.5,0.2c-0.1,0.1-0.3,0.2-0.4,0.3c-0.1,0.1-0.1,0.2-0.1,0.4 c0,0.1,0.1,0.3,0.2,0.4c0.2,0.1,0.3,0.2,0.5,0.2c0.2,0.1,0.5,0.1,0.7,0.1c0.3,0,0.5,0.1,0.8,0.1c0.4,0,0.8,0.1,1.3,0.2 c0.4,0.1,0.8,0.2,1.1,0.4c0.3,0.2,0.6,0.5,0.8,0.8C86.9,133,87,133.4,87,133.8z"></path><path class="st7" d="M95.4,131.2c0,0.4,0.1,0.8,0,1.2c0,0.4-0.1,0.8-0.2,1.2c-0.1,0.4-0.3,0.8-0.5,1.1c-0.2,0.4-0.5,0.7-0.8,1 c-0.3,0.3-0.7,0.5-1.2,0.7c-0.5,0.2-1,0.3-1.6,0.2h-1.2l-2.3-6.9l1.5-1.1l2.2,6.4h0c0.4,0,0.7-0.1,1-0.3c0.3-0.2,0.5-0.5,0.7-0.8 c0.2-0.3,0.3-0.7,0.4-1.1c0.1-0.4,0.1-0.8,0-1.3c0-0.6-0.3-1.3-0.9-1.6c-0.7-0.4-1.6-0.5-2.4-0.3v-1.6c0.7-0.1,1.4-0.1,2.1,0 c0.5,0.1,1.1,0.3,1.5,0.6c0.4,0.3,0.7,0.7,1,1.1C95.2,130.2,95.4,130.7,95.4,131.2z"></path><path class="st7" d="M106.1,135.3c-0.1,0.3-0.3,0.6-0.5,0.8c-0.2,0.2-0.5,0.4-0.8,0.5c-0.3,0.1-0.7,0.2-1,0.2c-0.2,0-0.5,0-0.7-0.1 c-0.2-0.1-0.4-0.1-0.6-0.2c-0.2-0.1-0.3-0.2-0.4-0.3c-0.1-0.1-0.2-0.2-0.3-0.4c-0.1,0.1-0.2,0.3-0.3,0.4c-0.1,0.1-0.3,0.2-0.4,0.3 c-0.2,0.1-0.4,0.2-0.6,0.2c-0.2,0.1-0.5,0.1-0.7,0.1c-0.3,0-0.7-0.1-1-0.2c-0.3-0.1-0.6-0.3-0.8-0.5c-0.2-0.2-0.4-0.5-0.5-0.8 c-0.1-0.4-0.2-0.8-0.2-1.2v-5.9h1.8v5.9c0,0.3,0.1,0.6,0.2,0.9c0.1,0.2,0.4,0.3,0.6,0.3c0.3,0,0.5-0.1,0.7-0.3 c0.2-0.3,0.3-0.7,0.3-1.1v-5.7h1.8v5.7c0,0.4,0.1,0.7,0.3,1.1c0.2,0.2,0.4,0.3,0.7,0.3c0.3,0,0.5-0.1,0.6-0.3 c0.2-0.3,0.2-0.6,0.2-0.9v-5.9h1.8v5.9C106.3,134.5,106.2,134.9,106.1,135.3z"></path><path class="st7" d="M111.7,136.7c-1,0.1-2.1-0.1-3-0.6c-0.7-0.5-1.1-1.3-1-2.2c0-0.2,0-0.5,0.1-0.7c0.1-0.2,0.2-0.4,0.3-0.6 c0.1-0.2,0.3-0.3,0.5-0.4c0.2-0.1,0.4-0.2,0.6-0.3c-0.2,0-0.3-0.1-0.5-0.2c-0.2-0.1-0.3-0.2-0.4-0.3c-0.1-0.1-0.2-0.3-0.3-0.5 c-0.1-0.2-0.1-0.4-0.1-0.6c0-0.5,0.2-0.9,0.5-1.3c0.3-0.4,0.8-0.6,1.2-0.8c0.3-0.1,0.7-0.1,1-0.1c0.4,0,0.8,0,1.2,0.1v1.5 c-0.3-0.1-0.5-0.1-0.8-0.1c-0.2,0-0.4,0-0.7,0.1c-0.2,0-0.3,0.1-0.4,0.2c-0.1,0.1-0.2,0.3-0.2,0.4c0,0.1,0,0.3,0.1,0.4 c0.1,0.1,0.2,0.2,0.4,0.2c0.2,0.1,0.3,0.1,0.5,0.1c0.2,0,0.4,0,0.6,0h0.8v1.5h-0.6c-0.5,0-1,0.1-1.5,0.4c-0.3,0.2-0.5,0.6-0.5,1 c0,0.2,0.1,0.5,0.2,0.7c0.1,0.2,0.3,0.3,0.5,0.4c0.2,0.1,0.5,0.2,0.7,0.2c0.3,0,0.6,0,0.9,0l2.1,0v-7h1.8v8.5L111.7,136.7z"></path><path class="st7" d="M119.6,136.6v-6c0-0.2-0.1-0.4-0.2-0.5c-0.1-0.2-0.3-0.3-0.5-0.4c-0.2-0.1-0.5-0.2-0.8-0.2c-0.3,0-0.7,0-1,0.1 v-1.5c0.6-0.1,1.1-0.1,1.7-0.1c0.5,0,0.9,0.2,1.4,0.3c0.4,0.2,0.7,0.4,0.9,0.8c0.2,0.3,0.3,0.7,0.3,1.1v6.3H119.6z"></path><path class="st7" d="M130.3,135.2c-0.2,0.4-0.5,0.7-0.9,0.9c-0.4,0.2-0.8,0.4-1.2,0.5c-1,0.2-1.9,0.2-2.9,0 c-0.4-0.1-0.9-0.3-1.2-0.5c-0.3-0.2-0.6-0.5-0.8-0.9c-0.2-0.4-0.3-0.8-0.3-1.3v-5.7h1.8v5.6c0,0.5,0.2,0.9,0.6,1.1 c0.2,0.1,0.4,0.2,0.6,0.3c0.2,0.1,0.5,0.1,0.8,0.1c0.3,0,0.5,0,0.8-0.1c0.2-0.1,0.4-0.1,0.6-0.3c0.2-0.1,0.3-0.3,0.4-0.5 c0.1-0.2,0.2-0.4,0.2-0.7v-5.6h1.8v5.7C130.6,134.3,130.5,134.8,130.3,135.2z"></path><path class="st7" d="M134.3,136.6v-6c0-0.2-0.1-0.4-0.2-0.5c-0.1-0.2-0.3-0.3-0.5-0.4c-0.2-0.1-0.5-0.2-0.8-0.2c-0.3,0-0.7,0-1,0.1 v-1.5c0.6-0.1,1.1-0.1,1.7-0.1c0.5,0,0.9,0.2,1.4,0.3c0.4,0.2,0.7,0.4,0.9,0.8c0.2,0.3,0.3,0.7,0.3,1.1v6.3L134.3,136.6z"></path><path class="st7" d="M143.4,136.6v-4.1c-0.2,0.1-0.3,0.1-0.5,0.2c-0.2,0-0.4,0.1-0.7,0.1c-0.2,0-0.5,0.1-0.8,0.1c-0.3,0-0.5,0-0.7,0 c-0.2,0-0.4,0-0.6,0.1c-0.2,0-0.4,0.1-0.5,0.2c-0.2,0.1-0.3,0.2-0.4,0.4c-0.1,0.2-0.2,0.3-0.2,0.5c0,0.3,0.1,0.5,0.3,0.7 c0.2,0.2,0.4,0.3,0.7,0.3c0.3,0,0.6,0.1,0.9,0c0.3,0,0.6-0.1,1-0.2v1.6c-0.6,0.1-1.1,0.1-1.7,0.1c-0.5,0-1-0.1-1.5-0.2 c-0.4-0.2-0.8-0.4-1.1-0.8c-0.3-0.5-0.4-1-0.4-1.6c0-0.7,0.2-1.4,0.8-1.9c0.6-0.5,1.4-0.8,2.2-0.8c0.3,0,0.6,0,1,0 c0.3,0,0.7,0,1-0.1c0.3,0,0.6-0.1,0.8-0.2c0.2-0.1,0.3-0.3,0.3-0.6c0-0.2-0.1-0.3-0.2-0.4c-0.1-0.1-0.3-0.2-0.4-0.3 c-0.2-0.1-0.4-0.2-0.6-0.2c-0.5-0.1-1-0.1-1.4,0c-0.2,0-0.4,0.1-0.7,0.2c-0.2,0.1-0.4,0.2-0.5,0.4c-0.1,0.2-0.2,0.3-0.3,0.5h-1.9 c0.1-0.5,0.2-0.9,0.5-1.3c0.3-0.3,0.6-0.6,0.9-0.8c0.4-0.2,0.8-0.4,1.2-0.5c0.4-0.1,0.9-0.1,1.3-0.1c0.4,0,0.9,0,1.3,0.1 c0.4,0.1,0.8,0.2,1.2,0.4c0.4,0.2,0.7,0.5,0.9,0.8c0.2,0.4,0.4,0.8,0.3,1.3v6L143.4,136.6z"></path><path class="st7" d="M154.1,133.6c0,0.5-0.1,1-0.3,1.5c-0.2,0.4-0.4,0.7-0.7,0.9c-0.3,0.2-0.7,0.4-1.1,0.4c-0.4,0.1-0.9,0.1-1.3,0.1 h-4.1v-4.2h1.8v2.7h1.9c0.3,0,0.5,0,0.7-0.1c0.2,0,0.4-0.1,0.6-0.2c0.2-0.1,0.3-0.3,0.4-0.4c0.1-0.2,0.2-0.5,0.1-0.7 c0-0.2-0.1-0.4-0.2-0.6c-0.1-0.2-0.2-0.3-0.4-0.4c-0.2-0.1-0.4-0.2-0.6-0.3c-0.2-0.1-0.5-0.1-0.7-0.1c-0.5,0-1-0.1-1.5-0.1 c-0.4,0-0.9-0.1-1.3-0.3c-0.3-0.1-0.6-0.3-0.9-0.6c-0.2-0.3-0.3-0.7-0.3-1.1c0-0.3,0.1-0.6,0.3-0.9c0.2-0.3,0.5-0.5,0.8-0.7 c0.4-0.2,0.8-0.4,1.2-0.5c0.5-0.1,1-0.2,1.5-0.2c0.5,0,0.9,0,1.4,0.1c0.4,0.1,0.8,0.2,1.2,0.4c0.3,0.2,0.7,0.5,0.9,0.8 c0.2,0.3,0.4,0.8,0.4,1.2h-1.8c0-0.2-0.1-0.4-0.3-0.5c-0.2-0.1-0.3-0.2-0.5-0.3c-0.2-0.1-0.4-0.1-0.7-0.2c-0.2,0-0.5,0-0.7-0.1 c-0.2,0-0.5,0-0.7,0.1c-0.2,0-0.4,0.1-0.6,0.1c-0.1,0.1-0.3,0.1-0.4,0.2c-0.1,0.1-0.1,0.2-0.1,0.3c0,0.1,0.1,0.2,0.2,0.3 c0.2,0.1,0.4,0.1,0.5,0.2c0.2,0,0.5,0.1,0.8,0.1l0.9,0.1c0.4,0,0.9,0.1,1.3,0.2c0.4,0.1,0.8,0.2,1.1,0.5c0.3,0.2,0.6,0.5,0.8,0.8 C154,132.7,154.1,133.2,154.1,133.6z"></path><path class="st7" d="M161.2,136.6v-1.2c-0.2,0.2-0.3,0.3-0.5,0.5c-0.2,0.2-0.4,0.3-0.7,0.4c-0.2,0.1-0.5,0.2-0.8,0.3 c-0.3,0.1-0.6,0.1-0.8,0.1c-0.4,0-0.9-0.1-1.3-0.2c-0.3-0.1-0.7-0.3-1-0.5c-0.3-0.2-0.5-0.5-0.6-0.9c-0.1-0.4-0.2-0.8-0.2-1.2v-5.8 h1.8v5.9c0,0.4,0.1,0.7,0.4,1c0.3,0.2,0.7,0.3,1,0.3c0.4,0,0.7-0.1,1-0.2c0.3-0.1,0.6-0.3,0.8-0.5c0.2-0.2,0.4-0.4,0.5-0.7 c0.1-0.2,0.2-0.4,0.2-0.7v-5.1h1.8v8.5L161.2,136.6z"></path><path class="st7" d="M172,135.2c-0.2,0.4-0.5,0.7-0.9,0.9c-0.4,0.2-0.8,0.4-1.2,0.5c-1,0.2-1.9,0.2-2.9,0c-0.4-0.1-0.9-0.3-1.2-0.5 c-0.3-0.2-0.6-0.5-0.9-0.9c-0.2-0.4-0.3-0.8-0.3-1.3v-5.7h1.8v5.6c0,0.5,0.2,0.9,0.6,1.1c0.2,0.1,0.4,0.2,0.6,0.3 c0.2,0.1,0.5,0.1,0.8,0.1c0.3,0,0.5,0,0.8-0.1c0.2-0.1,0.4-0.1,0.6-0.3c0.2-0.1,0.3-0.3,0.4-0.5c0.1-0.2,0.2-0.4,0.2-0.7v-5.6h1.8 v5.7C172.3,134.3,172.2,134.8,172,135.2z"></path><path class="st7" d="M169.8,140.7v-1.6H169V138h2.7v2.8L169.8,140.7z"></path><path class="st7" d="M181.1,133.8c0,0.5-0.1,1-0.3,1.4c-0.2,0.4-0.5,0.7-0.9,0.9c-0.4,0.2-0.8,0.4-1.2,0.5c-0.5,0.1-0.9,0.1-1.4,0.1 c-0.5,0-0.9,0-1.4-0.1c-0.4-0.1-0.9-0.3-1.2-0.5c-0.4-0.3-0.7-0.6-0.9-1c-0.2-0.5-0.4-1.1-0.3-1.7h1.9c0,0.3,0.1,0.6,0.2,0.9 c0.1,0.2,0.3,0.4,0.5,0.6c0.2,0.1,0.4,0.2,0.6,0.3c0.2,0.1,0.5,0.1,0.7,0.1c0.3,0,0.5,0,0.8-0.1c0.2,0,0.5-0.1,0.7-0.2 c0.2-0.1,0.3-0.3,0.5-0.4c0.1-0.2,0.2-0.4,0.2-0.7c0-0.2-0.1-0.4-0.2-0.5c-0.1-0.1-0.3-0.3-0.4-0.3c-0.2-0.1-0.4-0.2-0.6-0.2 c-0.2,0-0.4-0.1-0.6-0.1c-0.5,0-1-0.1-1.5-0.2c-0.4,0-0.8-0.2-1.2-0.3c-0.3-0.1-0.6-0.4-0.9-0.6c-0.2-0.3-0.3-0.7-0.3-1.1 c0-0.4,0.1-0.7,0.3-1c0.2-0.3,0.5-0.6,0.8-0.8c0.4-0.2,0.7-0.4,1.1-0.5c0.5-0.1,0.9-0.2,1.4-0.2c0.5,0,0.9,0,1.4,0.1 c0.4,0.1,0.8,0.2,1.2,0.5c0.4,0.2,0.7,0.5,0.9,0.8c0.2,0.4,0.4,0.8,0.4,1.3h-1.8c0-0.2-0.1-0.4-0.2-0.6c-0.1-0.2-0.3-0.3-0.5-0.4 c-0.2-0.1-0.4-0.2-0.6-0.2c-0.2,0-0.4-0.1-0.7-0.1c-0.2,0-0.4,0-0.6,0.1c-0.2,0-0.4,0.1-0.5,0.2c-0.1,0.1-0.3,0.2-0.4,0.3 c-0.1,0.1-0.1,0.2-0.1,0.4c0,0.1,0.1,0.3,0.2,0.4c0.2,0.1,0.3,0.2,0.5,0.2c0.2,0.1,0.5,0.1,0.7,0.1c0.3,0,0.5,0.1,0.8,0.1 c0.4,0,0.8,0.1,1.3,0.2c0.4,0.1,0.8,0.2,1.1,0.4c0.3,0.2,0.6,0.5,0.8,0.8C181,133,181.1,133.4,181.1,133.8z"></path><path class="st7" d="M173.7,127.1v-1.1h5.1v-1.1h1.8v2.2L173.7,127.1z"></path><path class="st7" d="M78.6,145.2v5.7h-1.3v-5.7h-2.2v-1.1h5.7v1.1H78.6z"></path><path class="st7" d="M86.4,150.9v-3h-3v3h-1.3v-6.8h1.3v2.7h3v-2.7h1.3v6.8H86.4z"></path><path class="st7" d="M95.8,147.5c0,0.5-0.1,0.9-0.2,1.4c-0.1,0.4-0.4,0.8-0.7,1.1c-0.3,0.3-0.6,0.6-1,0.8c-0.9,0.4-1.9,0.4-2.8,0 c-0.4-0.2-0.8-0.4-1-0.8c-0.3-0.3-0.5-0.7-0.7-1.1c-0.2-0.4-0.2-0.9-0.2-1.4c0-0.5,0.1-0.9,0.2-1.4c0.1-0.4,0.4-0.8,0.7-1.1 c0.3-0.3,0.6-0.6,1-0.8c0.9-0.4,1.9-0.4,2.8,0c0.4,0.2,0.8,0.4,1,0.8c0.3,0.3,0.5,0.7,0.7,1.1C95.7,146.5,95.8,147,95.8,147.5z  M94.5,147.5c0-0.3,0-0.6-0.1-0.9c-0.1-0.3-0.2-0.6-0.4-0.8c-0.2-0.2-0.4-0.4-0.6-0.6c-0.3-0.1-0.6-0.2-0.9-0.2 c-0.3,0-0.6,0.1-0.9,0.2c-0.2,0.1-0.5,0.3-0.6,0.6c-0.2,0.2-0.3,0.5-0.4,0.8c-0.1,0.6-0.1,1.2,0,1.8c0.1,0.3,0.2,0.6,0.4,0.8 c0.2,0.2,0.4,0.4,0.6,0.6c0.3,0.1,0.6,0.2,0.9,0.2c0.6,0,1.2-0.3,1.6-0.8c0.2-0.2,0.3-0.5,0.4-0.8C94.5,148.1,94.5,147.8,94.5,147.5 z"></path><path class="st7" d="M101.5,150.9l-3.1-4.8v4.8h-1.2v-6.8l1.3,0l3.1,4.8v-4.9h1.3v6.8L101.5,150.9z"></path><path class="st7" d="M110,149c0,0.3-0.1,0.5-0.2,0.8c-0.1,0.2-0.3,0.4-0.5,0.6c-0.2,0.2-0.5,0.3-0.8,0.4c-0.4,0.1-0.8,0.2-1.2,0.2 h-3.2v-6.8h3.4c0.3,0,0.6,0,0.9,0.1c0.2,0.1,0.5,0.2,0.7,0.3c0.2,0.1,0.3,0.3,0.4,0.5c0.1,0.2,0.2,0.5,0.1,0.8 c0,0.6-0.3,1.2-0.9,1.4c0.4,0.1,0.7,0.3,0.9,0.6C109.9,148.2,110,148.6,110,149z M108.4,146c0-0.3-0.1-0.5-0.2-0.7 c-0.2-0.1-0.5-0.2-0.7-0.2h-1.9v1.7h1.9c0.3,0,0.5-0.1,0.7-0.2C108.3,146.5,108.4,146.2,108.4,146L108.4,146z M108.7,148.8 c0-0.3-0.1-0.5-0.3-0.7c-0.2-0.2-0.5-0.3-0.8-0.2h-2.1v2h2.1c0.3,0,0.6-0.1,0.8-0.3C108.6,149.3,108.7,149.1,108.7,148.8 L108.7,148.8z"></path><path class="st7" d="M116.9,149.6c-0.1,0.3-0.3,0.6-0.6,0.8c-0.3,0.2-0.6,0.4-0.9,0.5c-0.8,0.2-1.6,0.2-2.3,0 c-0.3-0.1-0.6-0.3-0.9-0.5c-0.3-0.2-0.5-0.5-0.6-0.8c-0.1-0.4-0.2-0.8-0.2-1.2v-4.3h1.3v3.9c0,0.2,0,0.4,0,0.7 c0,0.2,0.1,0.4,0.2,0.6c0.1,0.2,0.3,0.3,0.5,0.4c0.3,0.1,0.6,0.2,0.9,0.2c0.3,0,0.6,0,0.9-0.2c0.2-0.1,0.4-0.3,0.5-0.4 c0.1-0.2,0.2-0.4,0.2-0.6c0-0.2,0-0.4,0-0.7v-3.9h1.3v4.3C117.1,148.8,117.1,149.2,116.9,149.6z"></path><path class="st7" d="M123,150.9c0-0.1-0.1-0.2-0.1-0.2c0-0.1,0-0.2-0.1-0.3c0-0.1,0-0.2,0-0.3v-0.3c0-0.3,0-0.5-0.1-0.8 c0-0.2-0.1-0.4-0.2-0.5c-0.1-0.1-0.2-0.2-0.4-0.3c-0.2-0.1-0.4-0.1-0.7-0.1h-1.7v2.8h-1.3v-6.8h3.3c0.6-0.1,1.2,0.1,1.7,0.5 c0.4,0.3,0.6,0.8,0.6,1.4c0,0.2,0,0.5-0.1,0.7c-0.1,0.2-0.1,0.3-0.3,0.5c-0.1,0.1-0.2,0.2-0.3,0.3c-0.1,0.1-0.2,0.1-0.3,0.2 c0.1,0,0.2,0.1,0.3,0.1c0.1,0.1,0.2,0.2,0.3,0.3c0.1,0.1,0.2,0.3,0.2,0.4c0.1,0.2,0.1,0.4,0.1,0.6c0,0.2,0,0.4,0,0.6 c0,0.2,0,0.3,0.1,0.5c0,0.1,0.1,0.3,0.1,0.4c0.1,0.1,0.1,0.2,0.2,0.3L123,150.9z M122.8,146.1c0-0.2,0-0.3-0.1-0.5 c-0.1-0.1-0.1-0.2-0.2-0.3c-0.1-0.1-0.2-0.1-0.4-0.1c-0.1,0-0.3,0-0.4,0h-1.9v2h1.9c0.3,0,0.6-0.1,0.8-0.3 C122.8,146.7,122.9,146.4,122.8,146.1L122.8,146.1z"></path><path class="st7" d="M127.2,150.9h-1.3v-6.8h1.3V150.9z M125.9,150.9v-6.8h1.3v6.8H125.9z"></path><path class="st7" d="M136.3,150.9v-3h-3v3H132v-6.8h1.3v2.7h3v-2.7h1.3v6.8H136.3z"></path><path class="st7" d="M145.5,147.5c0,0.5-0.1,0.9-0.2,1.4c-0.1,0.4-0.4,0.8-0.7,1.1c-0.3,0.3-0.6,0.6-1,0.8c-0.9,0.4-1.9,0.4-2.8,0 c-0.4-0.2-0.8-0.4-1-0.8c-0.3-0.3-0.5-0.7-0.7-1.1c-0.2-0.4-0.2-0.9-0.2-1.4c0-0.5,0.1-0.9,0.2-1.4c0.1-0.4,0.4-0.8,0.7-1.1 c0.3-0.3,0.6-0.6,1-0.8c0.9-0.4,1.9-0.4,2.8,0c0.4,0.2,0.8,0.4,1,0.8c0.3,0.3,0.5,0.7,0.7,1.1C145.4,146.5,145.5,147,145.5,147.5z  M144.2,147.5c0-0.3,0-0.6-0.1-0.9c-0.1-0.3-0.2-0.6-0.4-0.8c-0.2-0.2-0.4-0.4-0.6-0.6c-0.6-0.3-1.3-0.3-1.8,0 c-0.2,0.1-0.5,0.3-0.6,0.6c-0.2,0.2-0.3,0.5-0.4,0.8c-0.1,0.6-0.1,1.2,0,1.8c0.1,0.3,0.2,0.6,0.4,0.8c0.2,0.2,0.4,0.4,0.6,0.6 c0.6,0.3,1.3,0.3,1.8,0c0.2-0.1,0.5-0.3,0.6-0.6c0.2-0.2,0.3-0.5,0.4-0.8C144.2,148.1,144.2,147.8,144.2,147.5L144.2,147.5z"></path><path class="st7" d="M152.3,148.9c0,0.3-0.1,0.7-0.2,1c-0.2,0.3-0.4,0.5-0.6,0.7c-0.3,0.2-0.6,0.3-0.9,0.4c-0.7,0.2-1.4,0.2-2.1,0 c-0.3-0.1-0.6-0.2-0.9-0.4c-0.3-0.2-0.5-0.5-0.6-0.8c-0.2-0.4-0.2-0.7-0.2-1.1h1.3c0,0.2,0,0.5,0.1,0.7c0.1,0.2,0.2,0.3,0.4,0.4 c0.2,0.1,0.3,0.2,0.5,0.2c0.2,0.1,0.4,0.1,0.7,0.1c0.2,0,0.4,0,0.6-0.1c0.2,0,0.3-0.1,0.4-0.2c0.1-0.1,0.2-0.2,0.2-0.3 c0-0.1,0.1-0.2,0.1-0.4c0-0.1,0-0.2,0-0.3c0-0.1-0.1-0.2-0.1-0.2c0-0.1-0.1-0.1-0.2-0.1c-0.1,0-0.1-0.1-0.2-0.1 c-0.2-0.1-0.5-0.2-0.8-0.2s-0.7-0.2-1.2-0.3c-0.3-0.1-0.5-0.2-0.8-0.3c-0.2-0.1-0.3-0.3-0.5-0.4c-0.1-0.1-0.2-0.3-0.2-0.5 c0-0.2-0.1-0.3-0.1-0.5c0-0.3,0.1-0.6,0.2-0.9c0.1-0.3,0.3-0.5,0.6-0.6c0.2-0.2,0.5-0.3,0.8-0.4c0.3-0.1,0.6-0.1,0.9-0.1 c0.4,0,0.7,0,1,0.1c0.3,0.1,0.6,0.2,0.9,0.4c0.2,0.2,0.4,0.4,0.6,0.7c0.1,0.3,0.2,0.6,0.2,1h-1.3c0-0.2-0.1-0.4-0.1-0.6 c-0.1-0.1-0.2-0.3-0.3-0.4c-0.1-0.1-0.3-0.2-0.4-0.2c-0.2,0-0.4-0.1-0.5-0.1c-0.1,0-0.3,0-0.4,0c-0.1,0-0.3,0.1-0.4,0.1 c-0.1,0.1-0.2,0.1-0.3,0.2c-0.2,0.3-0.1,0.7,0.1,0.9c0.2,0.1,0.4,0.2,0.6,0.3c0.1,0,0.1,0,0.2,0c0.1,0,0.2,0,0.3,0.1 c0.1,0,0.3,0.1,0.4,0.1c0.1,0,0.3,0.1,0.4,0.1c0.1,0,0.3,0.1,0.4,0.1c0.1,0,0.2,0.1,0.3,0.1c0.4,0.1,0.8,0.4,1,0.7 c0.1,0.2,0.2,0.3,0.3,0.5C152.3,148.5,152.3,148.7,152.3,148.9z"></path><path class="st7" d="M158.8,146.2c0,0.2,0,0.3,0,0.4c0,0.2-0.1,0.3-0.1,0.5c-0.1,0.2-0.2,0.3-0.3,0.4c-0.1,0.1-0.3,0.3-0.4,0.4 c-0.2,0.1-0.4,0.2-0.6,0.3c-0.3,0.1-0.6,0.1-0.9,0.1h-1.8v2.6h-1.3v-6.8h3.1c0.4,0,0.8,0.1,1.2,0.2c0.3,0.1,0.5,0.3,0.7,0.5 c0.2,0.2,0.3,0.4,0.3,0.7C158.8,145.7,158.8,146,158.8,146.2z M157.5,146.2c0-0.2,0-0.4-0.1-0.5c-0.1-0.1-0.1-0.2-0.2-0.3 c-0.1-0.1-0.2-0.1-0.4-0.2c-0.1,0-0.3,0-0.4,0h-1.7v2.1h1.7c0.1,0,0.3,0,0.4,0c0.1,0,0.3-0.1,0.4-0.2c0.1-0.1,0.2-0.2,0.3-0.3 C157.5,146.5,157.5,146.4,157.5,146.2L157.5,146.2z"></path><path class="st7" d="M161.2,150.9h-1.3v-6.8h1.3V150.9z M159.9,150.9v-6.8h1.3v6.8H159.9z M159.9,150.9v-6.8h1.3v6.8H159.9z"></path><path class="st7" d="M166.4,145.2v5.7H165v-5.7h-2.2v-1.1h5.7v1.1H166.4z"></path><path class="st7" d="M173.8,150.9l-0.6-1.8h-2.6l-0.6,1.8h-1.4l2.7-6.8h1.4l2.7,6.8H173.8z M171.8,145.4l-1,2.7h1.9L171.8,145.4z"></path><path class="st7" d="M176.3,150.9v-6.8h1.3v5.7h3.5v1.1H176.3z"></path></svg>