<?xml version="1.0" encoding="UTF-8"?>
<svg id="Layer_3" data-name="Layer 3" xmlns="http://www.w3.org/2000/svg" viewBox="0 0 1793.59 384.45">
  <defs>
    <style>
      .cls-1 {
        fill: #076abb;
      }
    </style>
  </defs>
  <g>
    <g>
      <path class="cls-1" d="M249.68,72.76h-54.59l6.83-16.66c3.19-7.78,4.52-12.73,3.99-14.86-.52-2.13-2.41-3.19-5.67-3.19-3.54,0-6.8,1.44-9.79,4.31-2.99,2.87-5.68,7.23-8.07,13.06-3.07,7.5-4.37,13.15-3.89,16.95.39,3.8,4.05,8.38,10.98,13.75,19.83,15.45,31.12,28.12,33.86,38.03,2.73,9.91-.41,25.88-9.44,47.91-6.56,16.02-13.28,27.82-20.16,35.41-6.88,7.59-16.77,13.95-29.67,19.09-12.9,5.14-26.52,7.71-40.85,7.71-15.73,0-27.94-2.96-36.64-8.89-8.7-5.92-12.89-13.47-12.57-22.63.31-9.16,3.92-22.17,10.82-39.02l6.03-14.72h54.59l-11.21,27.36c-3.45,8.43-4.9,13.84-4.35,16.25.55,2.41,2.78,3.61,6.69,3.61s7.44-1.53,10.6-4.58c3.16-3.05,5.97-7.59,8.44-13.61,5.42-13.24,7.15-21.89,5.19-25.97-2.06-4.07-8.44-10.88-19.14-20.41-10.67-9.63-17.48-16.62-20.45-20.97-2.96-4.35-4.43-10.37-4.4-18.05.03-7.68,2.49-17.5,7.38-29.44,7.06-17.22,14.42-29.81,22.11-37.77,7.68-7.96,17.38-14.19,29.08-18.68,11.7-4.49,24.54-6.73,38.5-6.73,15.26,0,27.26,2.45,36,7.36,8.74,4.91,13.33,11.09,13.76,18.54.44,7.45-3.01,20.11-10.33,37.98l-3.64,8.89Z"/>
      <path class="cls-1" d="M397.52,72.76h-54.59l6.83-16.66c3.19-7.78,4.52-12.73,3.99-14.86-.52-2.13-2.41-3.19-5.67-3.19-3.54,0-6.8,1.44-9.79,4.31-2.99,2.87-5.68,7.23-8.07,13.06-3.07,7.5-4.37,13.15-3.89,16.95.39,3.8,4.05,8.38,10.98,13.75,19.83,15.45,31.12,28.12,33.86,38.03,2.73,9.91-.41,25.88-9.44,47.91-6.56,16.02-13.28,27.82-20.16,35.41-6.88,7.59-16.77,13.95-29.67,19.09-12.9,5.14-26.52,7.71-40.85,7.71-15.73,0-27.94-2.96-36.64-8.89-8.7-5.92-12.89-13.47-12.57-22.63.31-9.16,3.92-22.17,10.82-39.02l6.03-14.72h54.59l-11.21,27.36c-3.45,8.43-4.9,13.84-4.35,16.25.55,2.41,2.78,3.61,6.69,3.61s7.44-1.53,10.6-4.58c3.16-3.05,5.97-7.59,8.44-13.61,5.42-13.24,7.15-21.89,5.19-25.97-2.06-4.07-8.44-10.88-19.14-20.41-10.67-9.63-17.48-16.62-20.45-20.97-2.96-4.35-4.43-10.37-4.4-18.05.03-7.68,2.49-17.5,7.38-29.44,7.06-17.22,14.42-29.81,22.11-37.77,7.68-7.96,17.38-14.19,29.08-18.68,11.7-4.49,24.54-6.73,38.5-6.73,15.26,0,27.26,2.45,36,7.36,8.74,4.91,13.33,11.09,13.76,18.54.44,7.45-3.01,20.11-10.33,37.98l-3.64,8.89Z"/>
      <path class="cls-1" d="M557.89,4.72l-92.12,224.81h-58.77L499.11,4.72h58.77Z"/>
      <path class="cls-1" d="M620.57,45.27l-7.93,16.97c6.87-6.77,13.95-11.85,21.25-15.23,7.3-3.39,14.81-5.08,22.53-5.08,9.68,0,16.66,2.27,20.94,6.8,4.28,4.54,5.9,10.25,4.84,17.15-1.06,6.9-4.89,18.4-11.49,34.51l-52.91,129.14h-56.4l52.29-127.61c5.2-12.68,7.94-20.41,8.24-23.19.3-2.78-1.46-4.17-5.27-4.17-4,0-7.17,1.6-9.5,4.79-2.33,3.19-6.34,11.73-12.03,25.62l-51.04,124.56h-56.4l75.5-184.26h57.38Z"/>
      <path class="cls-1" d="M782.25,20.69l-11.89,29.02h15.22l-11.95,29.16h-15.22l-40.4,98.59c-4.97,12.13-7.11,18.88-6.42,20.27s5.64,2.08,14.85,2.08l-12.18,29.72h-22.76c-12.84,0-21.79-.53-26.85-1.6-5.06-1.06-8.89-3.52-11.5-7.36-2.61-3.84-3.42-8.24-2.41-13.19,1-4.95,5.26-16.59,12.77-34.92l38.35-93.59h-12.15l11.95-29.16h12.15l11.89-29.02h56.54Z"/>
      <path class="cls-1" d="M888.48,140.66h-73.01l-16.33,39.85c-3.41,8.33-5.01,13.7-4.79,16.11.22,2.41,2.06,3.61,5.5,3.61,4.28,0,7.8-1.6,10.55-4.79,2.75-3.19,6-9.37,9.76-18.54l9.96-24.3h53.47l-5.58,13.61c-4.67,11.39-8.97,20.13-12.92,26.24-3.95,6.11-9.99,12.64-18.14,19.58-8.15,6.94-17.01,12.15-26.57,15.62-9.57,3.47-20.49,5.21-32.78,5.21s-21.73-1.71-29.45-5.14c-7.72-3.42-12.89-8.12-15.52-14.09-2.63-5.97-3.45-12.54-2.46-19.72.98-7.17,4.28-17.61,9.9-31.31l22.02-53.74c6.6-16.11,13.99-28.81,22.18-38.12,8.19-9.3,18.27-16.43,30.26-21.38,11.99-4.95,24.45-7.43,37.39-7.43,15.82,0,27.65,2.98,35.49,8.96,7.84,5.97,11.81,13.89,11.91,23.75.1,9.86-3.51,23.72-10.83,41.59l-10.01,24.44ZM844.23,110.67l5.52-13.47c3.91-9.53,5.92-15.69,6.03-18.47.11-2.78-1.41-4.17-4.58-4.17-3.91,0-6.81,1.18-8.71,3.54-1.9,2.36-4.97,8.73-9.22,19.09l-5.52,13.47h16.47Z"/>
      <path class="cls-1" d="M1074.15,45.27l-58.15,141.91c-7.85,19.16-13.37,31.54-16.55,37.14-3.18,5.6-8.75,11.53-16.71,17.77-7.96,6.25-17.43,11.01-28.41,14.3-10.98,3.28-23.78,4.93-38.39,4.93-17.96,0-31.14-3.03-39.55-9.1-8.4-6.06-9.15-17.98-2.24-35.76h54.73c-3.34,8.15-2.03,12.22,3.93,12.22,4.28,0,7.63-1.25,10.05-3.75,2.42-2.5,5.26-7.74,8.53-15.71l5.7-13.9c-6.63,4.36-13.07,7.66-19.34,9.89-6.27,2.23-12.33,3.34-18.19,3.34-10.14,0-17.66-2.04-22.56-6.11-4.89-4.07-7.19-9.42-6.9-16.04.29-6.62,2.94-16.04,7.95-28.26l27.42-66.93c7.17-17.5,15.49-30.08,24.97-37.77,9.48-7.68,20.68-11.53,33.62-11.53,7.07,0,12.93,1.44,17.57,4.31,4.64,2.88,8.06,7.19,10.26,12.94l9.75-13.92h52.49ZM997.58,94.15c3.45-8.42,5.16-13.79,5.13-16.11-.03-2.31-1.72-3.47-5.07-3.47s-6.1,1.32-8.53,3.96c-2.43,2.64-5.24,7.85-8.42,15.62l-25.38,61.93c-3.38,8.24-5.06,13.59-5.04,16.04.02,2.45,1.66,3.68,4.91,3.68,3.72,0,6.75-1.48,9.08-4.44,2.33-2.96,5.64-9.67,9.93-20.13l23.38-57.07Z"/>
      <path class="cls-1" d="M1150.65,45.27l-12.16,24.23c15.3-17.35,30.93-26.54,46.89-27.56l-26.57,64.85c-10.33,0-18.49,1.39-24.46,4.17-5.98,2.78-10.54,6.64-13.69,11.59-3.15,4.95-8.38,16.36-15.7,34.23l-29.81,72.76h-56.4l75.5-184.26h56.4Z"/>
      <path class="cls-1" d="M1217.74,116.64h-52.91l5.06-12.36c5.84-14.25,12-25.25,18.47-32.98,6.47-7.73,15.9-14.56,28.29-20.48,12.38-5.92,26.54-8.89,42.45-8.89,19.08,0,32.08,3.36,39.01,10.07,6.93,6.71,9.37,14.95,7.32,24.72-2.05,9.77-9.31,29.88-21.79,60.33l-37.89,92.48h-54.86l6.73-16.42c-6.14,6.58-12.61,11.52-19.4,14.81-6.79,3.29-13.96,4.94-21.5,4.94-9.87,0-17.79-2.76-23.77-8.26-5.98-5.51-5.16-17.57,2.47-36.17l6.2-15.14c5.65-13.79,11.69-23.19,18.11-28.19,6.42-5,19.66-10.83,39.7-17.5,21.48-7.22,33.38-12.08,35.71-14.58,2.33-2.5,5.06-7.59,8.21-15.27,3.94-9.63,5.79-15.9,5.55-18.81-.25-2.92-2.05-4.37-5.4-4.37-3.82,0-6.69,1.23-8.63,3.68-1.94,2.45-5.01,8.82-9.22,19.09l-7.91,19.3ZM1225.25,141.91c-11.72,6.57-19.21,12.08-22.48,16.52-3.26,4.44-6.6,10.83-10.02,19.16-3.91,9.53-5.8,15.69-5.68,18.47.12,2.78,2.04,4.17,5.76,4.17s6.28-1.09,8.25-3.26c1.96-2.17,4.84-7.89,8.63-17.15l15.53-37.91Z"/>
      <path class="cls-1" d="M1410.2,20.69l-11.89,29.02h15.22l-11.95,29.16h-15.22l-40.4,98.59c-4.97,12.13-7.11,18.88-6.42,20.27.69,1.39,5.64,2.08,14.85,2.08l-12.18,29.72h-22.76c-12.84,0-21.79-.53-26.85-1.6-5.06-1.06-8.89-3.52-11.5-7.36-2.62-3.84-3.42-8.24-2.41-13.19,1-4.95,5.26-16.59,12.77-34.92l38.35-93.59h-12.15l11.95-29.16h12.15l11.89-29.02h56.54Z"/>
      <path class="cls-1" d="M1502.46,4.72l-12.01,29.3h-58.08l12.01-29.3h58.08ZM1485.85,45.27l-75.5,184.26h-58.08l75.5-184.26h58.08Z"/>
      <path class="cls-1" d="M1607.18,109.98l-18.49,45.13c-6.79,16.57-12.61,28.72-17.45,36.45-4.84,7.73-11.39,14.95-19.63,21.66-8.24,6.71-17.32,11.66-27.24,14.86-9.92,3.19-20.46,4.79-31.63,4.79-12.47,0-22.47-1.37-30.01-4.1-7.54-2.73-12.57-6.85-15.11-12.36-2.54-5.51-3.23-12.17-2.07-20,1.16-7.82,4.94-19.55,11.35-35.2l19.34-47.21c7.02-17.13,14.36-30.5,22.03-40.13,7.67-9.63,17.54-17.36,29.6-23.19,12.07-5.83,25.64-8.75,40.72-8.75,12.66,0,22.76,1.87,30.29,5.62,7.54,3.75,12.54,8.63,15.01,14.65,2.47,6.02,3.3,12.22,2.5,18.61-.8,6.39-3.88,16.11-9.23,29.16ZM1556.47,96.09c3.87-9.44,5.79-15.39,5.78-17.84-.02-2.45-1.7-3.68-5.05-3.68s-6.09,1.23-8.21,3.68c-2.12,2.45-5.12,8.4-8.99,17.84l-34.08,83.18c-3.57,8.7-5.33,14.37-5.3,17.01.04,2.64,1.68,3.96,4.94,3.96s6.05-1.2,8.11-3.61c2.05-2.41,4.71-7.59,7.98-15.55l34.82-84.98Z"/>
      <path class="cls-1" d="M1709.64,45.27l-7.93,16.97c6.87-6.77,13.95-11.85,21.25-15.23,7.3-3.39,14.81-5.08,22.53-5.08,9.68,0,16.66,2.27,20.94,6.8,4.28,4.54,5.9,10.25,4.84,17.15-1.06,6.9-4.89,18.4-11.49,34.51l-52.91,129.14h-56.4l52.29-127.61c5.2-12.68,7.95-20.41,8.25-23.19.3-2.78-1.46-4.17-5.27-4.17-4,0-7.17,1.6-9.5,4.79-2.33,3.19-6.34,11.73-12.03,25.62l-51.04,124.56h-56.4l75.5-184.26h57.38Z"/>
    </g>
    <rect class="cls-1" x="2.33" y="256.96" width="1791.25" height="14.95"/>
  </g>
  <g>
    <path d="M50.81,365.55l-3.18-18.77h-25.14l-10.53,18.77H0l38.38-67.19h11.79l11.17,67.19h-10.54ZM46.24,338.06l-2.38-15.2c-.71-4.49-1.23-8.6-1.56-12.25-1.35,2.92-3.01,6.14-4.96,9.63l-9.97,17.82h18.88Z"/>
    <path d="M85.41,366.6c-2.5,0-4.77-.44-6.76-1.3-2-.87-3.79-2.23-5.32-4.04-1.52-1.79-2.69-3.99-3.49-6.52-.79-2.5-1.19-5.36-1.19-8.48s.39-6.36,1.16-9.36c.77-3,1.9-5.87,3.36-8.54,1.47-2.7,3.23-5.01,5.24-6.87,2.01-1.86,4.28-3.38,6.77-4.5,2.51-1.14,5.09-1.72,7.66-1.72,5.47,0,9.82,2.29,12.95,6.81l5.01-23.71h10.11l-14.13,67.19h-9.53l.98-4.67c-4.09,3.8-8.39,5.73-12.81,5.73ZM93.34,323.88c-3.9,0-7.22,2.13-10.17,6.5-2.98,4.44-4.5,9.28-4.5,14.39,0,2.97.37,5.49,1.09,7.48.69,1.92,1.73,3.4,3.09,4.41,1.36,1.01,2.96,1.5,4.88,1.5,2.65,0,5.05-1.06,7.33-3.24,2.34-2.23,4.22-5.09,5.59-8.49,1.38-3.42,2.08-7.33,2.08-11.64,0-3.29-.87-5.97-2.6-7.97-1.71-1.98-3.93-2.95-6.8-2.95Z"/>
    <path d="M130.04,365.55l-8.13-49.24h9.93l4.2,26.88c.4,2.54.84,6.04,1.32,10.44,1.25-2.5,2.74-5.31,4.45-8.37l16.19-28.95h10.87l-28.37,49.24h-10.46Z"/>
    <path d="M180.41,366.6c-2.83,0-5.42-.55-7.71-1.62-2.32-1.09-4.25-2.77-5.71-4.99-1.47-2.23-2.22-4.94-2.22-8.07,0-2.3.41-4.41,1.23-6.26.82-1.86,2.02-3.48,3.58-4.83,1.53-1.33,3.24-2.36,5.1-3.08,1.81-.7,3.61-1.19,5.32-1.45,1.71-.26,5.17-.5,10.58-.76,4.27-.21,7.51-.67,9.65-1.4.52-1.88.78-3.46.78-4.7,0-1.39,0-5.62-9.29-5.62-6.27,0-10.25,2.6-12.16,7.96l-.26.73-10.27-.89.44-1.22c3.61-10.05,11.22-15.15,22.62-15.15,3.45,0,6.61.5,9.38,1.5,2.83,1.01,5.14,2.52,6.87,4.47,1.79,2.01,2.7,4.48,2.7,7.32,0,2.55-.39,5.57-1.15,8.97l-2.63,11.74c-.82,3.67-1.24,6.65-1.24,8.88,0,1.41.32,3.49.96,6.18l.29,1.23h-10.22l-.21-.72c-.35-1.17-.62-2.58-.81-4.2-5.11,3.96-10.36,5.97-15.63,5.97ZM198.6,342.09c-1.99.54-4.65.96-8.08,1.26-4.25.36-7.12.7-8.55,1.03-2.43.58-4.26,1.5-5.43,2.73-1.14,1.2-1.69,2.68-1.69,4.54,0,4.6,2.55,6.74,8.03,6.74,8.45,0,13.61-5.34,15.72-16.3Z"/>
    <path d="M244.67,365.55l6.58-31.14c.62-2.93.94-5.03.94-6.24,0-2-.61-4.29-5.36-4.29-8.96,0-14.61,6.19-17.28,18.92l-4.78,22.75h-10.15l10.37-49.24h9.4l-1.33,6.3c5.47-4.88,10.78-7.35,15.83-7.35,4.02,0,7.29,1.12,9.7,3.31,2.44,2.22,3.68,5.29,3.68,9.12,0,1.78-.4,4.54-1.22,8.45l-6.19,29.4h-10.18Z"/>
    <path d="M286.39,366.6c-3.36,0-6.41-.69-9.06-2.04-2.68-1.37-4.93-3.58-6.68-6.58-1.75-2.98-2.63-6.76-2.63-11.25s.67-8.6,2-12.58c1.33-4,3.13-7.45,5.36-10.27,2.25-2.85,4.98-5.02,8.09-6.46,3.11-1.43,6.68-2.16,10.61-2.16,3.59,0,6.73.69,9.34,2.05,2.63,1.37,4.7,3.32,6.15,5.79,1.44,2.46,2.17,5.43,2.17,8.8v.93l-9.99.68v-1.06c-.05-5.85-2.72-8.58-8.41-8.58-3.23,0-5.88.99-8.08,3.03-2.23,2.06-3.98,5.12-5.2,9.08-1.24,4.04-1.87,7.85-1.87,11.33,0,7.46,2.73,11.08,8.34,11.08s9.68-3.72,12.29-11.37l.26-.76,10.15,1.06-.41,1.19c-4.15,12-11.69,18.08-22.42,18.08Z"/>
    <path d="M333.24,366.6c-6.37,0-11.31-2.03-14.7-6.02-3.35-3.95-5.04-8.98-5.04-14.97,0-5.2,1.21-10.34,3.6-15.28,2.41-4.97,5.54-8.76,9.33-11.27,3.8-2.52,8.32-3.8,13.45-3.8,6.02,0,10.87,1.87,14.39,5.57,3.51,3.68,5.29,8.73,5.29,15.01,0,2.35-.21,4.79-.63,7.26l-.14.83h-35c-.05.54-.07,1.05-.07,1.51,0,3.7.87,6.79,2.6,9.17,1.67,2.31,3.95,3.44,6.97,3.44,6.19,0,10.62-3.26,13.55-9.95l.29-.67,9.82,1.01-.34,1.15c-1.43,4.83-4.42,8.92-8.89,12.15-4.46,3.22-9.33,4.86-14.47,4.86ZM349.9,335.79l.02-1.53c-.04-1.27-.21-2.49-.51-3.57-.29-1.07-.72-2.06-1.27-2.96-.54-.88-1.21-1.64-1.99-2.27-.78-.62-1.68-1.1-2.69-1.42-1.02-.33-2.17-.5-3.41-.5-6.99,0-11.75,4.01-14.51,12.25h24.36Z"/>
    <path d="M381.43,366.6c-2.5,0-4.77-.44-6.76-1.3-2-.87-3.79-2.23-5.32-4.04-1.52-1.79-2.69-3.99-3.49-6.52-.79-2.5-1.19-5.36-1.19-8.48s.39-6.36,1.16-9.36c.77-3,1.9-5.87,3.36-8.54,1.47-2.7,3.23-5.01,5.24-6.87,2.01-1.86,4.28-3.38,6.77-4.5,2.51-1.14,5.09-1.72,7.66-1.72,5.47,0,9.82,2.29,12.95,6.81l5.01-23.71h10.11l-14.13,67.19h-9.53l.98-4.67c-4.09,3.8-8.39,5.73-12.81,5.73ZM389.36,323.88c-3.9,0-7.22,2.13-10.17,6.5-2.98,4.44-4.5,9.28-4.5,14.39,0,2.97.37,5.49,1.09,7.48.69,1.92,1.73,3.4,3.09,4.41,1.36,1.01,2.96,1.5,4.88,1.5,2.65,0,5.05-1.06,7.33-3.24,2.34-2.23,4.22-5.09,5.59-8.49,1.38-3.42,2.08-7.33,2.08-11.64,0-3.29-.87-5.97-2.6-7.97-1.71-1.98-3.93-2.95-6.8-2.95Z"/>
    <polygon points="440.28 365.55 454.45 298.36 503.9 298.36 501.9 307.79 463.29 307.79 459.41 326.05 497.06 326.05 495.06 335.48 457.41 335.48 453.08 356.15 494.46 356.15 492.46 365.55 440.28 365.55"/>
    <path d="M530.47,365.55l6.58-31.14c.62-2.93.94-5.03.94-6.24,0-2-.61-4.29-5.36-4.29-8.96,0-14.61,6.19-17.28,18.92l-4.78,22.75h-10.15l10.37-49.24h9.4l-1.33,6.3c5.47-4.88,10.78-7.35,15.83-7.35,4.02,0,7.29,1.12,9.7,3.31,2.44,2.22,3.68,5.29,3.68,9.12,0,1.78-.4,4.54-1.22,8.45l-6.19,29.4h-10.18Z"/>
    <path d="M570.14,384.45c-3,0-5.68-.27-7.97-.81-2.33-.55-4.33-1.38-5.93-2.49-1.63-1.13-2.92-2.56-3.83-4.25-.92-1.7-1.39-3.61-1.39-5.67,0-.81.09-1.68.26-2.59l.17-.9,10.02.91v.91c0,2.43.48,3.55.88,4.07.61.77,1.44,1.31,2.55,1.65,1.2.36,2.67.55,4.36.55,1.82,0,3.49-.19,4.97-.56,1.42-.36,2.7-.98,3.82-1.85,1.08-.84,1.97-2.23,2.67-4.12.74-2.03,1.43-4.55,2.03-7.49l.16-.8c-3.72,3.02-7.69,4.54-11.84,4.54-3.65,0-6.83-.88-9.47-2.61-2.63-1.72-4.73-4.23-6.22-7.44-1.48-3.17-2.23-6.92-2.23-11.15,0-3.89.7-7.62,2.07-11.11,1.37-3.47,3.12-6.49,5.21-8.98,2.1-2.5,4.68-4.64,7.67-6.37,3.05-1.75,6.37-2.64,9.89-2.64,5.81,0,10.49,2.42,13.95,7.2l1.28-6.15h9.5l-9.86,46.82c-1.56,7.39-4.23,12.85-7.91,16.21-3.72,3.39-8.69,5.11-14.78,5.11ZM578.14,323.74c-2.62,0-4.97.93-7.18,2.84-2.25,1.96-4.1,4.45-5.5,7.42-1.39,2.96-2.09,6.21-2.09,9.64,0,2.57.21,4.62.61,6.1.4,1.44,1.05,2.76,1.93,3.92.87,1.14,1.86,1.98,2.96,2.5,1.1.53,2.39.8,3.82.8,3.22,0,5.91-.99,8.21-3.04,2.34-2.07,4.19-4.96,5.52-8.57,1.34-3.66,2.02-6.99,2.02-9.89,0-3.46-.97-6.32-2.9-8.5-1.92-2.17-4.35-3.23-7.42-3.23Z"/>
    <path d="M602.22,365.55l10.37-49.24h10.15l-10.37,49.24h-10.15ZM614.05,309.49l2.33-11.13h10.11l-2.33,11.13h-10.11Z"/>
    <path d="M652.97,365.55l6.58-31.14c.62-2.93.94-5.03.94-6.24,0-2-.61-4.29-5.36-4.29-8.96,0-14.61,6.19-17.28,18.92l-4.78,22.75h-10.15l10.37-49.24h9.4l-1.33,6.3c5.47-4.88,10.78-7.35,15.83-7.35,4.02,0,7.29,1.12,9.7,3.31,2.44,2.22,3.68,5.29,3.68,9.12,0,1.78-.4,4.54-1.22,8.45l-6.19,29.4h-10.18Z"/>
    <path d="M695.65,366.6c-6.37,0-11.31-2.03-14.7-6.02-3.35-3.95-5.04-8.98-5.04-14.97,0-5.2,1.21-10.34,3.6-15.28,2.41-4.97,5.54-8.76,9.33-11.27,3.8-2.52,8.32-3.8,13.45-3.8,6.02,0,10.87,1.87,14.39,5.57,3.51,3.68,5.29,8.73,5.29,15.01,0,2.35-.21,4.79-.63,7.26l-.14.83h-35c-.05.54-.07,1.05-.07,1.51,0,3.7.87,6.79,2.6,9.17,1.67,2.31,3.95,3.44,6.97,3.44,6.19,0,10.62-3.26,13.55-9.95l.29-.67,9.82,1.01-.34,1.15c-1.43,4.83-4.42,8.92-8.89,12.15-4.46,3.22-9.33,4.86-14.47,4.86ZM712.31,335.79l.02-1.53c-.04-1.27-.21-2.49-.51-3.57-.29-1.07-.72-2.06-1.27-2.96-.54-.88-1.21-1.64-1.99-2.27-.78-.62-1.68-1.1-2.69-1.42-1.02-.33-2.17-.5-3.41-.5-6.99,0-11.75,4.01-14.51,12.25h24.36Z"/>
    <path d="M746.71,366.6c-6.37,0-11.31-2.03-14.7-6.02-3.35-3.95-5.04-8.98-5.04-14.97,0-5.2,1.21-10.34,3.6-15.28,2.41-4.97,5.54-8.76,9.33-11.27,3.8-2.52,8.32-3.8,13.45-3.8,6.02,0,10.87,1.87,14.39,5.57,3.51,3.68,5.29,8.73,5.29,15.01,0,2.35-.21,4.79-.63,7.26l-.14.83h-35c-.05.54-.07,1.05-.07,1.51,0,3.7.87,6.79,2.6,9.17,1.67,2.31,3.95,3.44,6.97,3.44,6.19,0,10.62-3.26,13.55-9.95l.29-.67,9.82,1.01-.34,1.15c-1.43,4.83-4.42,8.92-8.89,12.15-4.46,3.22-9.33,4.86-14.47,4.86ZM763.37,335.79l.02-1.53c-.04-1.27-.21-2.49-.51-3.57-.29-1.07-.72-2.06-1.27-2.96-.54-.88-1.21-1.64-1.99-2.27-.78-.62-1.68-1.1-2.69-1.42-1.02-.33-2.17-.5-3.41-.5-6.99,0-11.75,4.01-14.51,12.25h24.36Z"/>
    <path d="M776.08,365.55l10.37-49.24h9.22l-1.34,6.41c4.09-4.96,8.27-7.46,12.45-7.46,1.79,0,3.89.6,6.42,1.83l.87.42-4.2,9.46-1-.7c-1.25-.88-2.58-1.31-4.04-1.31-6.88,0-11.87,7.02-14.82,20.86l-4.2,19.73h-9.74Z"/>
    <path d="M806.35,365.55l10.37-49.24h10.15l-10.37,49.24h-10.15ZM818.18,309.49l2.33-11.13h10.11l-2.33,11.13h-10.11Z"/>
    <path d="M857.1,365.55l6.58-31.14c.62-2.93.94-5.03.94-6.24,0-2-.61-4.29-5.36-4.29-8.96,0-14.61,6.19-17.28,18.92l-4.78,22.75h-10.15l10.37-49.24h9.4l-1.33,6.3c5.47-4.88,10.78-7.35,15.83-7.35,4.02,0,7.29,1.12,9.7,3.31,2.44,2.22,3.68,5.29,3.68,9.12,0,1.78-.4,4.54-1.22,8.45l-6.19,29.4h-10.18Z"/>
    <path d="M896.77,384.45c-3,0-5.68-.27-7.97-.81-2.33-.55-4.33-1.38-5.93-2.49-1.63-1.13-2.92-2.56-3.83-4.25-.92-1.7-1.39-3.61-1.39-5.67,0-.81.09-1.68.26-2.59l.17-.9,10.02.91v.91c0,2.43.48,3.55.88,4.07.61.77,1.44,1.31,2.55,1.65,1.2.36,2.67.55,4.36.55,1.82,0,3.49-.19,4.97-.56,1.42-.36,2.7-.98,3.82-1.85,1.07-.84,1.97-2.23,2.67-4.12.74-2.02,1.42-4.54,2.03-7.49l.17-.8c-3.72,3.02-7.69,4.54-11.84,4.54-3.65,0-6.83-.88-9.47-2.61-2.63-1.72-4.73-4.23-6.22-7.44-1.48-3.17-2.23-6.92-2.23-11.15,0-3.89.7-7.62,2.07-11.11,1.37-3.47,3.12-6.49,5.21-8.98,2.1-2.5,4.68-4.64,7.67-6.37,3.05-1.75,6.37-2.64,9.89-2.64,5.81,0,10.49,2.42,13.95,7.2l1.28-6.15h9.5l-9.86,46.82c-1.56,7.39-4.23,12.84-7.91,16.21-3.72,3.39-8.69,5.11-14.78,5.11ZM904.77,323.74c-2.62,0-4.97.93-7.18,2.84-2.25,1.96-4.1,4.45-5.5,7.42-1.39,2.96-2.09,6.21-2.09,9.64,0,2.57.21,4.62.61,6.1.4,1.44,1.05,2.76,1.93,3.92.87,1.14,1.86,1.98,2.96,2.5,1.1.53,2.39.8,3.82.8,3.22,0,5.9-.99,8.21-3.04,2.34-2.07,4.19-4.96,5.52-8.57,1.34-3.66,2.02-6.99,2.02-9.89,0-3.46-.97-6.32-2.9-8.5-1.92-2.17-4.34-3.23-7.42-3.23Z"/>
    <path d="M955.55,365.55l14.21-67.19h28.24c2.83,0,5.26.18,7.24.54,2.05.37,3.85,1.05,5.37,2.02,1.51.97,2.85,2.26,3.97,3.83,1.11,1.55,1.95,3.24,2.5,5.02.55,1.77.83,3.66.83,5.61,0,4.89-1.3,9.25-3.85,12.97-2.55,3.71-6.06,6.47-10.43,8.19-4.29,1.69-9.69,2.55-16.03,2.55h-15.64l-5.57,26.47h-10.83ZM987.19,329.72c4.77,0,8.69-.64,11.65-1.89,2.89-1.22,5.03-2.97,6.37-5.2,1.36-2.25,2.04-4.62,2.04-7.05,0-1.77-.33-3.26-.97-4.44-.63-1.16-1.61-2.04-2.98-2.7-.97-.47-3.25-1.02-8.63-1.02h-16.05l-4.71,22.3h13.27Z"/>
    <path d="M1015.88,365.55l10.37-49.24h9.22l-1.34,6.41c4.09-4.96,8.27-7.46,12.45-7.46,1.79,0,3.89.6,6.42,1.83l.87.42-4.2,9.46-1-.7c-1.25-.88-2.58-1.31-4.04-1.31-6.88,0-11.87,7.02-14.82,20.86l-4.2,19.73h-9.74Z"/>
    <path d="M1068.58,366.6c-6.41,0-11.48-1.89-15.07-5.62-3.58-3.72-5.39-8.54-5.39-14.35,0-8.68,2.44-16.14,7.25-22.17,4.86-6.1,11.5-9.2,19.71-9.2,3.67,0,7.01.73,9.93,2.17,2.95,1.46,5.42,3.79,7.32,6.93,1.9,3.13,2.86,7.05,2.86,11.65s-.62,8.75-1.83,12.37c-1.22,3.64-3.06,6.83-5.46,9.47-2.39,2.63-5.32,4.77-8.69,6.36-3.39,1.59-6.97,2.4-10.63,2.4ZM1074.77,323.47c-2.17,0-4.22.49-6.07,1.46-1.87.98-3.66,2.54-5.3,4.64-1.66,2.11-2.95,4.56-3.84,7.26-.89,2.71-1.33,5.74-1.33,8.99,0,2.52.4,4.76,1.19,6.64.76,1.82,1.94,3.29,3.49,4.35,1.54,1.06,3.48,1.59,5.75,1.59,3.17,0,5.96-.93,8.29-2.77,2.37-1.87,4.35-4.79,5.9-8.66,1.56-3.92,2.36-7.63,2.36-11.02,0-3.79-.96-6.86-2.86-9.13-1.88-2.25-4.35-3.34-7.56-3.34Z"/>
    <path d="M1116.32,366.6c-2.5,0-4.77-.44-6.76-1.3-2-.87-3.79-2.23-5.32-4.04-1.52-1.79-2.69-3.99-3.49-6.52-.79-2.5-1.19-5.36-1.19-8.48s.39-6.36,1.16-9.36c.77-3,1.9-5.87,3.36-8.54,1.47-2.7,3.23-5.01,5.24-6.87,2.01-1.86,4.28-3.38,6.76-4.5,2.51-1.14,5.09-1.72,7.66-1.72,5.47,0,9.82,2.29,12.95,6.81l5.01-23.71h10.11l-14.13,67.19h-9.53l.98-4.67c-4.09,3.8-8.39,5.73-12.81,5.73ZM1124.26,323.88c-3.9,0-7.22,2.13-10.17,6.5-2.98,4.44-4.5,9.28-4.5,14.39,0,2.97.37,5.49,1.09,7.48.69,1.92,1.73,3.4,3.09,4.41,1.36,1.01,2.96,1.5,4.88,1.5,2.65,0,5.05-1.06,7.33-3.24,2.34-2.23,4.22-5.09,5.59-8.49,1.38-3.41,2.08-7.33,2.08-11.64,0-3.29-.87-5.97-2.6-7.97-1.71-1.98-3.93-2.95-6.8-2.95Z"/>
    <path d="M1164.78,366.6c-3.76,0-6.94-1.1-9.44-3.26-2.54-2.2-3.83-5.07-3.83-8.53,0-2.12.5-5.53,1.53-10.42l5.91-28.08h10.15l-6.62,31.41c-.51,2.41-.76,4.31-.76,5.67,0,3.23,1.67,4.67,5.43,4.67,1.74,0,3.41-.29,4.95-.87,1.54-.58,3.02-1.47,4.38-2.65,1.38-1.2,2.61-2.63,3.64-4.25,1.05-1.63,1.86-3.27,2.41-4.86.56-1.62,1.24-4.28,2-7.89l4.48-21.22h10.15l-10.34,49.24h-9.53l1.32-6.35c-5.13,4.92-10.44,7.41-15.82,7.41Z"/>
    <path d="M1220.36,366.6c-3.36,0-6.41-.69-9.06-2.04-2.68-1.37-4.93-3.58-6.68-6.58-1.75-2.98-2.63-6.76-2.63-11.25s.67-8.6,2-12.58c1.33-3.99,3.13-7.45,5.36-10.26,2.25-2.85,4.98-5.02,8.09-6.46,3.11-1.43,6.68-2.16,10.61-2.16,3.59,0,6.73.69,9.34,2.05,2.63,1.37,4.7,3.32,6.15,5.79,1.44,2.46,2.17,5.43,2.17,8.8v.93l-10,.68v-1.06c-.05-5.85-2.72-8.58-8.41-8.58-3.23,0-5.88.99-8.08,3.03-2.23,2.06-3.98,5.12-5.2,9.08-1.24,4.03-1.87,7.85-1.87,11.33,0,7.46,2.73,11.08,8.34,11.08s9.68-3.72,12.29-11.37l.26-.76,10.15,1.06-.41,1.19c-4.15,12-11.69,18.08-22.42,18.08Z"/>
    <path d="M1258.73,366.37c-3.02,0-5.57-.69-7.6-2.05-2.15-1.45-3.25-3.52-3.25-6.17,0-1.17.39-3.58,1.18-7.37l5.53-26.21h-6.43l1.72-8.24h6.43l2.38-11.24,11.61-6.93-3.84,18.17h7.97l-1.76,8.24h-7.93l-5.34,25.3c-.83,3.93-1,5.3-1,5.77,0,1,.31,1.92,2.52,1.92,1.71,0,3.23-.17,4.54-.51l1.55-.4-1.77,8.76-.6.16c-2.02.54-4,.81-5.9.81Z"/>
    <path d="M1292.24,366.6c-3.14,0-5.98-.37-8.44-1.09-2.5-.74-4.56-1.75-6.11-3.02-1.54-1.25-2.75-2.6-3.59-3.99-.84-1.38-1.45-2.88-1.81-4.43-.36-1.53-.54-3.44-.54-5.67v-.94l10.14-.59v1.06c0,3.59.97,6.26,2.89,7.92,1.96,1.7,4.61,2.56,7.88,2.56,9.77,0,9.77-4.64,9.77-6.16,0-2.47-3.15-5.11-9.1-7.63-4.12-1.73-6.82-3-8.25-3.87-1.46-.88-2.69-1.88-3.65-2.97-.98-1.1-1.72-2.33-2.22-3.65-.5-1.32-.75-2.74-.75-4.24,0-4.5,1.77-8.11,5.25-10.74,3.4-2.57,7.7-3.87,12.78-3.87,5.88,0,10.6,1.39,14.03,4.14,3.49,2.79,5.33,6.75,5.47,11.76l.03.96-9.92.68-.04-1.02c-.25-5.59-3.57-8.31-10.15-8.31-1.96,0-3.83.49-5.57,1.45-1.59.88-2.33,2.03-2.33,3.62,0,.63.16,1.21.47,1.79.32.59.9,1.18,1.72,1.75.89.62,2.96,1.64,6.16,3,4.96,2.12,8.31,3.8,10.26,5.13,2,1.37,3.51,3.02,4.48,4.92.97,1.89,1.46,3.96,1.46,6.17,0,2.42-.54,4.62-1.6,6.54-1.05,1.91-2.61,3.56-4.63,4.91-1.98,1.32-4.15,2.3-6.46,2.92-2.29.61-4.86.92-7.64.92Z"/>
    <path d="M1393.03,366.87c-2.76-2.35-5.12-4.78-7.04-7.23-5.93,4.87-12.06,7.33-18.24,7.33s-11.14-1.8-15.02-5.35c-3.9-3.58-5.88-8.29-5.88-14.01,0-2.17.28-4.24.83-6.16.55-1.93,1.43-3.81,2.61-5.59,1.18-1.77,2.81-3.51,4.84-5.15,1.87-1.51,4.78-3.2,8.65-5.01-1.23-2.77-2.03-4.72-2.42-5.96-.46-1.42-.68-3.3-.68-5.74,0-2.98.63-5.66,1.86-7.96,1.24-2.3,3.26-4.37,6-6.14,2.76-1.78,5.98-2.69,9.55-2.69,4.27,0,7.88,1.26,10.73,3.76,2.89,2.53,4.36,5.8,4.36,9.73,0,6.7-5.37,12.88-15.97,18.37,3.4,6.04,6.73,11.16,9.92,15.25,1.86-2.36,3.65-5.11,5.34-8.18l.47-.85,8.81,4.52-.42.88c-1.89,3.96-4.51,7.89-7.81,11.69,1.85,2.31,4.21,5.06,7.03,8.19l.71.79-7.6,6.03-.63-.53ZM1367.98,333.79c-4.02,1.95-6.85,3.93-8.42,5.92-1.66,2.09-2.47,4.37-2.47,6.96,0,3.13,1.03,5.7,3.15,7.85,2.12,2.15,4.67,3.2,7.82,3.2,4.01,0,8.07-1.95,12.08-5.81-5.07-6.65-9.16-12.73-12.16-18.11ZM1378.01,305.69c-1.27,0-2.39.33-3.42,1.01-1.05.69-1.91,1.61-2.56,2.74-.64,1.11-.96,2.38-.96,3.78,0,2.4.74,5.12,2.21,8.12,6.61-3.49,9.95-6.98,9.95-10.39,0-1.48-.49-2.7-1.51-3.73-1.01-1.02-2.23-1.52-3.72-1.52Z"/>
    <path d="M1459.13,366.67c-17.43,0-26.28-7.8-26.31-23.19v-.91s10.62-1.01,10.62-1.01l-.1,3.41c0,3.8,1.23,6.77,3.77,9.03,2.53,2.26,6.68,3.41,12.33,3.41,3.07,0,5.84-.49,8.23-1.45,2.34-.95,4.11-2.18,5.26-3.66,1.14-1.46,1.69-3.14,1.69-5.12,0-1.4-.31-2.64-.91-3.69-.6-1.05-2-2.22-4.15-3.49-2.27-1.33-5.22-2.77-8.76-4.29-5.28-2.28-8.74-3.95-10.58-5.09-1.86-1.15-3.51-2.5-4.91-4.02-1.42-1.54-2.51-3.25-3.24-5.08-.73-1.83-1.1-3.8-1.1-5.87,0-6.03,2.36-10.67,7.03-13.81,4.54-3.05,10.24-4.6,16.96-4.6,5.45,0,10.08.85,13.75,2.52,3.73,1.7,6.58,4.22,8.47,7.49,1.87,3.24,2.82,6.37,2.82,9.29,0,.29-.02.75-.07,1.4l-.06.85-10.38.83v-1.08c0-1.41-.12-2.64-.35-3.64-.22-.96-.69-1.97-1.39-3.01-.7-1.03-1.61-1.94-2.71-2.69-1.12-.76-2.55-1.41-4.27-1.92-1.72-.51-3.78-.77-6.11-.77-2.83,0-5.28.39-7.28,1.17-1.95.76-3.45,1.78-4.45,3.03-.98,1.23-1.46,2.69-1.46,4.47,0,1.54.51,2.92,1.57,4.2,1.1,1.34,2.85,2.59,5.21,3.72,2.49,1.19,5.68,2.64,9.48,4.3,4.73,2.06,7.91,3.64,9.73,4.85,1.83,1.21,3.35,2.55,4.51,3.96,1.18,1.43,2.07,3.03,2.67,4.75.59,1.72.89,3.59.89,5.57,0,6.27-2.62,11.27-7.8,14.86-5.06,3.51-11.31,5.29-18.58,5.29Z"/>
    <path d="M1512.07,366.6c-6.37,0-11.31-2.03-14.7-6.02-3.35-3.95-5.04-8.98-5.04-14.97,0-5.2,1.21-10.34,3.6-15.28,2.41-4.97,5.54-8.76,9.33-11.27,3.8-2.52,8.32-3.8,13.45-3.8,6.03,0,10.87,1.87,14.39,5.57,3.51,3.68,5.29,8.73,5.29,15.01,0,2.35-.21,4.8-.63,7.26l-.14.83h-35c-.05.54-.07,1.05-.07,1.51,0,3.7.87,6.79,2.6,9.17,1.67,2.31,3.95,3.44,6.97,3.44,6.19,0,10.62-3.26,13.55-9.95l.29-.67,9.82,1.01-.34,1.15c-1.43,4.83-4.42,8.92-8.89,12.15-4.46,3.22-9.33,4.86-14.47,4.86ZM1528.73,335.79l.02-1.53c-.04-1.27-.21-2.49-.51-3.57-.29-1.07-.72-2.06-1.27-2.96-.54-.88-1.21-1.64-2-2.27-.78-.62-1.68-1.1-2.69-1.42-1.02-.33-2.17-.5-3.41-.5-6.99,0-11.75,4.01-14.51,12.25h24.36Z"/>
    <path d="M1541.45,365.55l10.37-49.24h9.22l-1.34,6.41c4.09-4.96,8.27-7.46,12.45-7.46,1.79,0,3.89.6,6.42,1.83l.87.42-4.2,9.46-1-.7c-1.25-.88-2.58-1.31-4.04-1.31-6.88,0-11.87,7.02-14.82,20.86l-4.2,19.73h-9.74Z"/>
    <path d="M1584.41,365.55l-8.13-49.24h9.93l4.2,26.88c.4,2.54.84,6.04,1.32,10.44,1.25-2.51,2.74-5.31,4.45-8.37l16.19-28.95h10.87l-28.37,49.24h-10.46Z"/>
    <path d="M1617.61,365.55l10.37-49.24h10.15l-10.37,49.24h-10.15ZM1629.44,309.49l2.33-11.13h10.11l-2.33,11.13h-10.11Z"/>
    <path d="M1659.02,366.6c-3.36,0-6.41-.69-9.06-2.04-2.68-1.37-4.93-3.58-6.68-6.58-1.75-2.98-2.63-6.76-2.63-11.25s.67-8.6,2-12.58c1.33-3.99,3.13-7.45,5.36-10.26,2.25-2.85,4.98-5.02,8.09-6.46,3.11-1.43,6.68-2.16,10.61-2.16,3.59,0,6.73.69,9.34,2.05,2.63,1.37,4.7,3.32,6.15,5.79,1.44,2.46,2.17,5.43,2.17,8.8v.93l-10,.68v-1.06c-.05-5.85-2.72-8.58-8.41-8.58-3.23,0-5.88.99-8.08,3.03-2.23,2.06-3.98,5.12-5.2,9.08-1.24,4.03-1.87,7.85-1.87,11.33,0,7.46,2.73,11.08,8.34,11.08s9.68-3.72,12.29-11.37l.26-.76,10.15,1.06-.41,1.19c-4.15,12-11.69,18.08-22.42,18.08Z"/>
    <path d="M1705.87,366.6c-6.37,0-11.31-2.03-14.7-6.02-3.35-3.95-5.04-8.98-5.04-14.97,0-5.2,1.21-10.34,3.6-15.28,2.41-4.97,5.54-8.76,9.33-11.27,3.8-2.52,8.32-3.8,13.45-3.8,6.03,0,10.87,1.87,14.39,5.57,3.51,3.68,5.29,8.73,5.29,15.01,0,2.35-.21,4.8-.63,7.26l-.14.83h-35c-.05.54-.07,1.05-.07,1.51,0,3.7.87,6.79,2.6,9.17,1.67,2.31,3.95,3.44,6.97,3.44,6.19,0,10.62-3.26,13.55-9.95l.29-.67,9.82,1.01-.34,1.15c-1.43,4.83-4.42,8.92-8.89,12.15-4.46,3.22-9.33,4.86-14.47,4.86ZM1722.53,335.79l.02-1.53c-.04-1.27-.21-2.49-.51-3.57-.29-1.07-.72-2.06-1.27-2.96-.54-.88-1.21-1.64-2-2.27-.78-.62-1.68-1.1-2.69-1.42-1.02-.33-2.17-.5-3.41-.5-6.99,0-11.75,4.01-14.51,12.25h24.36Z"/>
    <path d="M1756.45,366.6c-3.14,0-5.98-.37-8.44-1.09-2.5-.74-4.56-1.75-6.11-3.02-1.54-1.25-2.75-2.6-3.59-3.99-.84-1.38-1.45-2.88-1.81-4.43-.36-1.53-.54-3.44-.54-5.67v-.94l10.14-.59v1.06c0,3.59.97,6.26,2.89,7.92,1.96,1.7,4.61,2.56,7.88,2.56,9.77,0,9.77-4.64,9.77-6.16,0-2.47-3.15-5.11-9.1-7.63-4.12-1.73-6.82-3-8.25-3.87-1.46-.88-2.69-1.88-3.65-2.97-.98-1.1-1.72-2.33-2.22-3.65-.5-1.32-.75-2.74-.75-4.24,0-4.5,1.77-8.11,5.25-10.74,3.4-2.57,7.7-3.87,12.78-3.87,5.88,0,10.6,1.39,14.03,4.14,3.49,2.79,5.33,6.75,5.47,11.76l.03.96-9.92.68-.04-1.02c-.25-5.59-3.57-8.31-10.15-8.31-1.96,0-3.83.49-5.57,1.45-1.59.88-2.33,2.03-2.33,3.62,0,.63.16,1.21.47,1.79.32.59.9,1.18,1.72,1.75.89.62,2.96,1.64,6.16,3,4.96,2.12,8.31,3.8,10.26,5.13,2,1.37,3.51,3.02,4.48,4.92.97,1.89,1.46,3.96,1.46,6.17,0,2.42-.54,4.62-1.6,6.54-1.05,1.91-2.61,3.56-4.63,4.91-1.98,1.32-4.15,2.3-6.46,2.92-2.29.61-4.86.92-7.64.92Z"/>
  </g>
</svg>